G75*
%MOIN*%
%OFA0B0*%
%FSLAX25Y25*%
%IPPOS*%
%LPD*%
%AMOC8*
5,1,8,0,0,1.08239X$1,22.5*
%
%ADD10C,0.01600*%
%ADD11C,0.00400*%
%ADD12C,0.00900*%
%ADD13C,0.00500*%
%ADD14C,0.00100*%
%ADD15C,0.00800*%
%ADD16C,0.00700*%
D10*
X0133684Y0057600D02*
X0133684Y0069877D01*
X0136754Y0069877D01*
X0149031Y0057600D01*
X0152100Y0057600D01*
X0188684Y0066808D02*
X0197892Y0057600D01*
X0197892Y0069877D01*
X0207100Y0066808D02*
X0188684Y0066808D01*
X0243684Y0063739D02*
X0262100Y0063739D01*
X0262100Y0069877D02*
X0262100Y0057600D01*
X0249823Y0057600D02*
X0243684Y0063739D01*
X0246754Y0107600D02*
X0243684Y0110669D01*
X0243684Y0116808D01*
X0246754Y0119877D01*
X0249823Y0119877D01*
X0262100Y0107600D01*
X0262100Y0119877D01*
X0259031Y0152600D02*
X0262100Y0155669D01*
X0262100Y0161808D01*
X0259031Y0164877D01*
X0255961Y0164877D01*
X0252892Y0161808D01*
X0252892Y0158739D01*
X0252892Y0161808D02*
X0249823Y0164877D01*
X0246754Y0164877D01*
X0243684Y0161808D01*
X0243684Y0155669D01*
X0246754Y0152600D01*
X0207100Y0160669D02*
X0207100Y0166808D01*
X0204031Y0169877D01*
X0200961Y0169877D01*
X0197892Y0166808D01*
X0197892Y0157600D01*
X0204031Y0157600D01*
X0207100Y0160669D01*
X0197892Y0157600D02*
X0191754Y0163739D01*
X0188684Y0169877D01*
X0188684Y0119877D02*
X0188684Y0107600D01*
X0197892Y0107600D01*
X0194823Y0113739D01*
X0194823Y0116808D01*
X0197892Y0119877D01*
X0204031Y0119877D01*
X0207100Y0116808D01*
X0207100Y0110669D01*
X0204031Y0107600D01*
X0152100Y0110669D02*
X0149031Y0107600D01*
X0145961Y0107600D01*
X0142892Y0110669D01*
X0142892Y0116808D01*
X0145961Y0119877D01*
X0149031Y0119877D01*
X0152100Y0116808D01*
X0152100Y0110669D01*
X0142892Y0110669D02*
X0139823Y0107600D01*
X0136754Y0107600D01*
X0133684Y0110669D01*
X0133684Y0116808D01*
X0136754Y0119877D01*
X0139823Y0119877D01*
X0142892Y0116808D01*
D11*
X0183863Y0183584D02*
X0183096Y0184352D01*
X0183096Y0185886D01*
X0183863Y0186654D01*
X0184631Y0186654D01*
X0187700Y0183584D01*
X0187700Y0186654D01*
X0186933Y0188188D02*
X0183863Y0188188D01*
X0183096Y0188955D01*
X0183096Y0190490D01*
X0183863Y0191257D01*
X0186933Y0188188D01*
X0187700Y0188955D01*
X0187700Y0190490D01*
X0186933Y0191257D01*
X0183863Y0191257D01*
X0184631Y0192792D02*
X0183096Y0194327D01*
X0187700Y0194327D01*
X0187700Y0195861D02*
X0187700Y0192792D01*
X0186933Y0197396D02*
X0187700Y0198163D01*
X0187700Y0199698D01*
X0186933Y0200465D01*
X0185398Y0200465D01*
X0184631Y0199698D01*
X0184631Y0198931D01*
X0185398Y0197396D01*
X0183096Y0197396D01*
X0183096Y0200465D01*
X0180200Y0200465D02*
X0180200Y0197396D01*
X0180200Y0198931D02*
X0175596Y0198931D01*
X0177131Y0197396D01*
X0177131Y0195861D02*
X0180200Y0194327D01*
X0177131Y0192792D01*
X0294596Y0094549D02*
X0294596Y0093014D01*
X0295363Y0092247D01*
X0298433Y0092247D01*
X0299200Y0093014D01*
X0299200Y0094549D01*
X0298433Y0095316D01*
X0295363Y0095316D02*
X0294596Y0094549D01*
X0295363Y0090712D02*
X0294596Y0089945D01*
X0294596Y0088410D01*
X0295363Y0087643D01*
X0298433Y0087643D01*
X0299200Y0088410D01*
X0299200Y0089945D01*
X0298433Y0090712D01*
X0297665Y0086109D02*
X0294596Y0086109D01*
X0297665Y0086109D02*
X0299200Y0084574D01*
X0297665Y0083039D01*
X0294596Y0083039D01*
X0296898Y0081505D02*
X0296898Y0078435D01*
X0296898Y0076901D02*
X0296898Y0073831D01*
X0296131Y0073831D02*
X0294596Y0075366D01*
X0296131Y0076901D01*
X0299200Y0076901D01*
X0299200Y0073831D02*
X0296131Y0073831D01*
X0296898Y0072297D02*
X0296898Y0069227D01*
X0295363Y0067693D02*
X0294596Y0066926D01*
X0294596Y0064624D01*
X0299200Y0064624D01*
X0299200Y0066926D01*
X0298433Y0067693D01*
X0295363Y0067693D01*
X0294596Y0063089D02*
X0294596Y0060020D01*
X0299200Y0060020D01*
X0299200Y0063089D01*
X0296898Y0061554D02*
X0296898Y0060020D01*
X0299200Y0058485D02*
X0299200Y0055416D01*
X0294596Y0055416D01*
X0296898Y0053881D02*
X0296898Y0050812D01*
X0298433Y0049277D02*
X0295363Y0049277D01*
X0294596Y0048510D01*
X0294596Y0046208D01*
X0299200Y0046208D01*
X0299200Y0048510D01*
X0298433Y0049277D01*
X0299200Y0044673D02*
X0294596Y0044673D01*
X0294596Y0041604D02*
X0299200Y0044673D01*
X0299200Y0041604D02*
X0294596Y0041604D01*
X0295363Y0040069D02*
X0294596Y0039302D01*
X0294596Y0037767D01*
X0295363Y0037000D01*
X0298433Y0037000D01*
X0299200Y0037767D01*
X0299200Y0039302D01*
X0298433Y0040069D01*
X0296898Y0040069D01*
X0296898Y0038535D01*
D12*
X0155200Y0143716D02*
X0155200Y0149020D01*
X0153432Y0150788D01*
X0146359Y0150788D01*
X0144591Y0149020D01*
X0144591Y0143716D01*
X0155200Y0143716D01*
X0161841Y0147245D02*
X0161841Y0152550D01*
X0163609Y0154318D01*
X0167145Y0154318D01*
X0168914Y0152550D01*
X0168914Y0147245D01*
X0172450Y0147245D02*
X0161841Y0147245D01*
X0161841Y0157834D02*
X0172450Y0157834D01*
X0168914Y0161371D01*
X0172450Y0164907D01*
X0161841Y0164907D01*
X0161841Y0168423D02*
X0165377Y0171960D01*
X0161841Y0175496D01*
X0172450Y0175496D01*
X0167145Y0179013D02*
X0167145Y0186085D01*
X0161841Y0189602D02*
X0161841Y0193138D01*
X0161841Y0191370D02*
X0172450Y0191370D01*
X0172450Y0189602D02*
X0172450Y0193138D01*
X0170682Y0196661D02*
X0172450Y0198429D01*
X0172450Y0201965D01*
X0170682Y0203734D01*
X0163609Y0203734D01*
X0161841Y0201965D01*
X0161841Y0198429D01*
X0163609Y0196661D01*
X0170682Y0196661D01*
X0155200Y0198429D02*
X0153432Y0196661D01*
X0151664Y0196661D01*
X0149895Y0198429D01*
X0149895Y0201965D01*
X0151664Y0203734D01*
X0153432Y0203734D01*
X0155200Y0201965D01*
X0155200Y0198429D01*
X0149895Y0198429D02*
X0148127Y0196661D01*
X0146359Y0196661D01*
X0144591Y0198429D01*
X0144591Y0201965D01*
X0146359Y0203734D01*
X0148127Y0203734D01*
X0149895Y0201965D01*
X0149895Y0193145D02*
X0149895Y0186072D01*
X0144591Y0182556D02*
X0144591Y0179019D01*
X0144591Y0180787D02*
X0153432Y0180787D01*
X0155200Y0179019D01*
X0155200Y0177251D01*
X0153432Y0175483D01*
X0155200Y0171967D02*
X0155200Y0164894D01*
X0144591Y0164894D01*
X0144591Y0161377D02*
X0144591Y0154305D01*
X0144591Y0157841D02*
X0155200Y0157841D01*
X0161841Y0168423D02*
X0172450Y0168423D01*
D13*
X0182900Y0136800D02*
X0160900Y0136800D01*
X0160900Y0096800D01*
X0182900Y0096800D01*
X0182900Y0101800D01*
X0177900Y0101800D01*
X0177900Y0131800D01*
X0182900Y0131800D01*
X0182900Y0101800D01*
X0182900Y0086800D02*
X0182900Y0081800D01*
X0177900Y0081800D01*
X0177900Y0051800D01*
X0182900Y0051800D01*
X0182900Y0046800D01*
X0160900Y0046800D01*
X0160900Y0086800D01*
X0182900Y0086800D01*
X0182900Y0081800D02*
X0182900Y0051800D01*
X0215900Y0046800D02*
X0215900Y0086800D01*
X0237900Y0086800D01*
X0237900Y0081800D01*
X0232900Y0081800D01*
X0232900Y0051800D01*
X0237900Y0051800D01*
X0237900Y0046800D01*
X0215900Y0046800D01*
X0237900Y0051800D02*
X0237900Y0081800D01*
X0237900Y0096800D02*
X0237900Y0101800D01*
X0232900Y0101800D01*
X0232900Y0131800D01*
X0237900Y0131800D01*
X0237900Y0101800D01*
X0237900Y0096800D02*
X0215900Y0096800D01*
X0215900Y0136800D01*
X0237900Y0136800D01*
X0237900Y0131800D01*
X0237900Y0146800D02*
X0237900Y0151800D01*
X0232900Y0151800D01*
X0232900Y0181800D01*
X0237900Y0181800D01*
X0237900Y0151800D01*
X0237900Y0146800D02*
X0215900Y0146800D01*
X0215900Y0186800D01*
X0237900Y0186800D01*
X0237900Y0181800D01*
X0270900Y0186800D02*
X0270900Y0146800D01*
X0292900Y0146800D01*
X0292900Y0151800D01*
X0287900Y0151800D01*
X0287900Y0181800D01*
X0292900Y0181800D01*
X0292900Y0151800D01*
X0292900Y0136800D02*
X0292900Y0131800D01*
X0287900Y0131800D01*
X0287900Y0101800D01*
X0292900Y0101800D01*
X0292900Y0096800D01*
X0270900Y0096800D01*
X0270900Y0136800D01*
X0292900Y0136800D01*
X0292900Y0131800D02*
X0292900Y0101800D01*
X0292900Y0086800D02*
X0292900Y0081800D01*
X0287900Y0081800D01*
X0287900Y0051800D01*
X0292900Y0051800D01*
X0292900Y0046800D01*
X0270900Y0046800D01*
X0270900Y0086800D01*
X0292900Y0086800D01*
X0292900Y0081800D02*
X0292900Y0051800D01*
X0196849Y0024354D02*
X0193846Y0024354D01*
X0193846Y0022102D01*
X0195347Y0022853D01*
X0196098Y0022853D01*
X0196849Y0022102D01*
X0196849Y0020601D01*
X0196098Y0019850D01*
X0194597Y0019850D01*
X0193846Y0020601D01*
X0192245Y0019850D02*
X0189242Y0019850D01*
X0190743Y0019850D02*
X0190743Y0024354D01*
X0189242Y0022853D01*
X0187641Y0022102D02*
X0184638Y0022102D01*
X0183037Y0022853D02*
X0182286Y0022102D01*
X0180785Y0022102D01*
X0180034Y0022853D01*
X0180034Y0023603D01*
X0180785Y0024354D01*
X0182286Y0024354D01*
X0183037Y0023603D01*
X0183037Y0022853D01*
X0182286Y0022102D02*
X0183037Y0021351D01*
X0183037Y0020601D01*
X0182286Y0019850D01*
X0180785Y0019850D01*
X0180034Y0020601D01*
X0180034Y0021351D01*
X0180785Y0022102D01*
X0178433Y0019099D02*
X0175430Y0019099D01*
X0173829Y0019850D02*
X0173829Y0024354D01*
X0170826Y0024354D02*
X0173829Y0019850D01*
X0170826Y0019850D02*
X0170826Y0024354D01*
X0169258Y0024354D02*
X0167757Y0024354D01*
X0168508Y0024354D02*
X0168508Y0019850D01*
X0169258Y0019850D02*
X0167757Y0019850D01*
X0166156Y0020601D02*
X0166156Y0022102D01*
X0164654Y0022102D01*
X0163153Y0023603D02*
X0163153Y0020601D01*
X0163904Y0019850D01*
X0165405Y0019850D01*
X0166156Y0020601D01*
X0161552Y0020601D02*
X0161552Y0023603D01*
X0160801Y0024354D01*
X0159300Y0024354D01*
X0158549Y0023603D01*
X0158549Y0020601D01*
X0159300Y0019850D01*
X0160801Y0019850D01*
X0161552Y0020601D01*
X0163153Y0023603D02*
X0163904Y0024354D01*
X0165405Y0024354D01*
X0166156Y0023603D01*
X0156948Y0019850D02*
X0153945Y0019850D01*
X0153945Y0024354D01*
X0152344Y0022853D02*
X0152344Y0019850D01*
X0152344Y0022102D02*
X0149341Y0022102D01*
X0149341Y0022853D02*
X0150843Y0024354D01*
X0152344Y0022853D01*
X0149341Y0022853D02*
X0149341Y0019850D01*
X0147740Y0019850D02*
X0147740Y0024354D01*
X0144737Y0024354D02*
X0147740Y0019850D01*
X0144737Y0019850D02*
X0144737Y0024354D01*
X0143136Y0022853D02*
X0143136Y0019850D01*
X0143136Y0022102D02*
X0140134Y0022102D01*
X0140134Y0022853D02*
X0141635Y0024354D01*
X0143136Y0022853D01*
X0140134Y0022853D02*
X0140134Y0019850D01*
X0182900Y0131800D02*
X0182900Y0136800D01*
X0106849Y0189850D02*
X0103846Y0189850D01*
X0106849Y0192853D01*
X0106849Y0193603D01*
X0106098Y0194354D01*
X0104597Y0194354D01*
X0103846Y0193603D01*
X0102245Y0192102D02*
X0099242Y0192102D01*
X0097641Y0193603D02*
X0094638Y0190601D01*
X0094638Y0189850D01*
X0093037Y0189099D02*
X0090034Y0189099D01*
X0088433Y0189850D02*
X0088433Y0194354D01*
X0086932Y0192853D01*
X0085430Y0194354D01*
X0085430Y0189850D01*
X0083829Y0189850D02*
X0082328Y0191351D01*
X0080826Y0189850D01*
X0080826Y0194354D01*
X0079225Y0193603D02*
X0079225Y0192102D01*
X0078474Y0191351D01*
X0076222Y0191351D01*
X0076222Y0189850D02*
X0076222Y0194354D01*
X0078474Y0194354D01*
X0079225Y0193603D01*
X0083829Y0194354D02*
X0083829Y0189850D01*
X0094638Y0194354D02*
X0097641Y0194354D01*
X0097641Y0193603D01*
X0035349Y0193603D02*
X0035349Y0192853D01*
X0034598Y0192102D01*
X0033097Y0192102D01*
X0032346Y0192853D01*
X0032346Y0193603D01*
X0033097Y0194354D01*
X0034598Y0194354D01*
X0035349Y0193603D01*
X0034598Y0192102D02*
X0035349Y0191351D01*
X0035349Y0190601D01*
X0034598Y0189850D01*
X0033097Y0189850D01*
X0032346Y0190601D01*
X0032346Y0191351D01*
X0033097Y0192102D01*
X0030745Y0192102D02*
X0027742Y0192102D01*
X0026141Y0192102D02*
X0023889Y0192102D01*
X0023138Y0192853D01*
X0023138Y0193603D01*
X0023889Y0194354D01*
X0025390Y0194354D01*
X0026141Y0193603D01*
X0026141Y0190601D01*
X0025390Y0189850D01*
X0023889Y0189850D01*
X0023138Y0190601D01*
X0021537Y0189099D02*
X0018534Y0189099D01*
X0016933Y0189850D02*
X0016933Y0194354D01*
X0015432Y0192853D01*
X0013930Y0194354D01*
X0013930Y0189850D01*
X0012329Y0189850D02*
X0012329Y0194354D01*
X0009326Y0194354D02*
X0009326Y0189850D01*
X0010828Y0191351D01*
X0012329Y0189850D01*
X0007725Y0192102D02*
X0007725Y0193603D01*
X0006974Y0194354D01*
X0004722Y0194354D01*
X0004722Y0189850D01*
X0004722Y0191351D02*
X0006974Y0191351D01*
X0007725Y0192102D01*
X0270900Y0186800D02*
X0292900Y0186800D01*
X0292900Y0181800D01*
D14*
X0123950Y0176127D02*
X0123950Y0175627D01*
X0123700Y0175377D01*
X0123450Y0175377D01*
X0123199Y0175627D01*
X0123199Y0176127D01*
X0123450Y0176378D01*
X0123700Y0176378D01*
X0123950Y0176127D01*
X0123199Y0176127D02*
X0122949Y0176378D01*
X0122699Y0176378D01*
X0122449Y0176127D01*
X0122449Y0175627D01*
X0122699Y0175377D01*
X0122949Y0175377D01*
X0123199Y0175627D01*
X0123199Y0174904D02*
X0123450Y0174654D01*
X0123450Y0173903D01*
X0123950Y0173903D02*
X0122449Y0173903D01*
X0122449Y0174654D01*
X0122699Y0174904D01*
X0123199Y0174904D01*
X0123450Y0174404D02*
X0123950Y0174904D01*
X0108950Y0174904D02*
X0108450Y0174404D01*
X0108450Y0174654D02*
X0108450Y0173903D01*
X0108950Y0173903D02*
X0107449Y0173903D01*
X0107449Y0174654D01*
X0107699Y0174904D01*
X0108199Y0174904D01*
X0108450Y0174654D01*
X0108700Y0175377D02*
X0108950Y0175377D01*
X0108700Y0175377D02*
X0107699Y0176378D01*
X0107449Y0176378D01*
X0107449Y0175377D01*
X0093950Y0175627D02*
X0093950Y0176127D01*
X0093700Y0176378D01*
X0093450Y0176378D01*
X0093199Y0176127D01*
X0093199Y0175377D01*
X0093700Y0175377D01*
X0093950Y0175627D01*
X0093950Y0174904D02*
X0093450Y0174404D01*
X0093450Y0174654D02*
X0093450Y0173903D01*
X0093950Y0173903D02*
X0092449Y0173903D01*
X0092449Y0174654D01*
X0092699Y0174904D01*
X0093199Y0174904D01*
X0093450Y0174654D01*
X0093199Y0175377D02*
X0092699Y0175877D01*
X0092449Y0176378D01*
X0078950Y0176127D02*
X0078950Y0175627D01*
X0078700Y0175377D01*
X0078199Y0175377D02*
X0077949Y0175877D01*
X0077949Y0176127D01*
X0078199Y0176378D01*
X0078700Y0176378D01*
X0078950Y0176127D01*
X0078199Y0175377D02*
X0077449Y0175377D01*
X0077449Y0176378D01*
X0077699Y0174904D02*
X0078199Y0174904D01*
X0078450Y0174654D01*
X0078450Y0173903D01*
X0078950Y0173903D02*
X0077449Y0173903D01*
X0077449Y0174654D01*
X0077699Y0174904D01*
X0078450Y0174404D02*
X0078950Y0174904D01*
X0063950Y0174904D02*
X0063450Y0174404D01*
X0063450Y0174654D02*
X0063450Y0173903D01*
X0063950Y0173903D02*
X0062449Y0173903D01*
X0062449Y0174654D01*
X0062699Y0174904D01*
X0063199Y0174904D01*
X0063450Y0174654D01*
X0063199Y0175377D02*
X0063199Y0176378D01*
X0062449Y0176127D02*
X0063199Y0175377D01*
X0062449Y0176127D02*
X0063950Y0176127D01*
X0048950Y0176127D02*
X0048950Y0175627D01*
X0048700Y0175377D01*
X0048950Y0174904D02*
X0048450Y0174404D01*
X0048450Y0174654D02*
X0048450Y0173903D01*
X0048950Y0173903D02*
X0047449Y0173903D01*
X0047449Y0174654D01*
X0047699Y0174904D01*
X0048199Y0174904D01*
X0048450Y0174654D01*
X0047699Y0175377D02*
X0047449Y0175627D01*
X0047449Y0176127D01*
X0047699Y0176378D01*
X0047949Y0176378D01*
X0048199Y0176127D01*
X0048450Y0176378D01*
X0048700Y0176378D01*
X0048950Y0176127D01*
X0048199Y0176127D02*
X0048199Y0175877D01*
X0033950Y0175377D02*
X0032949Y0176378D01*
X0032699Y0176378D01*
X0032449Y0176127D01*
X0032449Y0175627D01*
X0032699Y0175377D01*
X0032699Y0174904D02*
X0033199Y0174904D01*
X0033450Y0174654D01*
X0033450Y0173903D01*
X0033950Y0173903D02*
X0032449Y0173903D01*
X0032449Y0174654D01*
X0032699Y0174904D01*
X0033450Y0174404D02*
X0033950Y0174904D01*
X0033950Y0175377D02*
X0033950Y0176378D01*
X0018950Y0176378D02*
X0018950Y0175377D01*
X0018950Y0174904D02*
X0018450Y0174404D01*
X0018450Y0174654D02*
X0018450Y0173903D01*
X0018950Y0173903D02*
X0017449Y0173903D01*
X0017449Y0174654D01*
X0017699Y0174904D01*
X0018199Y0174904D01*
X0018450Y0174654D01*
X0017949Y0175377D02*
X0017449Y0175877D01*
X0018950Y0175877D01*
D15*
X0018900Y0196800D02*
X0013900Y0196800D01*
X0011400Y0199300D01*
X0008900Y0196800D01*
X0003900Y0196800D01*
X0001400Y0199300D01*
X0001400Y0204300D01*
X0003900Y0206800D01*
X0008900Y0206800D01*
X0011400Y0204300D01*
X0013900Y0206800D01*
X0018900Y0206800D01*
X0021400Y0204300D01*
X0021400Y0199300D01*
X0018900Y0196800D01*
X0027900Y0199300D02*
X0027900Y0204300D01*
X0030400Y0206800D01*
X0035400Y0206800D01*
X0037900Y0204300D01*
X0040400Y0206800D01*
X0045400Y0206800D01*
X0047900Y0204300D01*
X0050400Y0206800D01*
X0055400Y0206800D01*
X0057900Y0204300D01*
X0060400Y0206800D01*
X0065400Y0206800D01*
X0067900Y0204300D01*
X0070400Y0206800D01*
X0075400Y0206800D01*
X0077900Y0204300D01*
X0080400Y0206800D01*
X0085400Y0206800D01*
X0087900Y0204300D01*
X0090400Y0206800D01*
X0095400Y0206800D01*
X0097900Y0204300D01*
X0100400Y0206800D01*
X0105400Y0206800D01*
X0107900Y0204300D01*
X0107900Y0199300D01*
X0105400Y0196800D01*
X0100400Y0196800D01*
X0097900Y0199300D01*
X0095400Y0196800D01*
X0090400Y0196800D01*
X0087900Y0199300D01*
X0085400Y0196800D01*
X0080400Y0196800D01*
X0077900Y0199300D01*
X0075400Y0196800D01*
X0070400Y0196800D01*
X0067900Y0199300D01*
X0065400Y0196800D01*
X0060400Y0196800D01*
X0057900Y0199300D01*
X0055400Y0196800D01*
X0050400Y0196800D01*
X0047900Y0199300D01*
X0045400Y0196800D01*
X0040400Y0196800D01*
X0037900Y0199300D01*
X0035400Y0196800D01*
X0030400Y0196800D01*
X0027900Y0199300D01*
X0217900Y0199300D02*
X0220400Y0196800D01*
X0225400Y0196800D01*
X0227900Y0199300D01*
X0230400Y0196800D01*
X0235400Y0196800D01*
X0237900Y0199300D01*
X0237900Y0204300D01*
X0235400Y0206800D01*
X0230400Y0206800D01*
X0227900Y0204300D01*
X0225400Y0206800D01*
X0220400Y0206800D01*
X0217900Y0204300D01*
X0217900Y0199300D01*
X0220400Y0036800D02*
X0217900Y0034300D01*
X0217900Y0029300D01*
X0220400Y0026800D01*
X0225400Y0026800D01*
X0227900Y0029300D01*
X0230400Y0026800D01*
X0235400Y0026800D01*
X0237900Y0029300D01*
X0237900Y0034300D01*
X0235400Y0036800D01*
X0230400Y0036800D01*
X0227900Y0034300D01*
X0225400Y0036800D01*
X0220400Y0036800D01*
X0215400Y0016800D02*
X0210400Y0016800D01*
X0207900Y0014300D01*
X0205400Y0016800D01*
X0200400Y0016800D01*
X0197900Y0014300D01*
X0195400Y0016800D01*
X0190400Y0016800D01*
X0187900Y0014300D01*
X0185400Y0016800D01*
X0180400Y0016800D01*
X0177900Y0014300D01*
X0175400Y0016800D01*
X0170400Y0016800D01*
X0167900Y0014300D01*
X0165400Y0016800D01*
X0160400Y0016800D01*
X0157900Y0014300D01*
X0155400Y0016800D01*
X0150400Y0016800D01*
X0147900Y0014300D01*
X0145400Y0016800D01*
X0140400Y0016800D01*
X0137900Y0014300D01*
X0137900Y0009300D01*
X0140400Y0006800D01*
X0145400Y0006800D01*
X0147900Y0009300D01*
X0150400Y0006800D01*
X0155400Y0006800D01*
X0157900Y0009300D01*
X0160400Y0006800D01*
X0165400Y0006800D01*
X0167900Y0009300D01*
X0170400Y0006800D01*
X0175400Y0006800D01*
X0177900Y0009300D01*
X0180400Y0006800D01*
X0185400Y0006800D01*
X0187900Y0009300D01*
X0190400Y0006800D01*
X0195400Y0006800D01*
X0197900Y0009300D01*
X0200400Y0006800D01*
X0205400Y0006800D01*
X0207900Y0009300D01*
X0210400Y0006800D01*
X0215400Y0006800D01*
X0217900Y0009300D01*
X0217900Y0014300D01*
X0215400Y0016800D01*
D16*
X0241245Y0020201D02*
X0242296Y0019150D01*
X0246499Y0019150D01*
X0247550Y0020201D01*
X0247550Y0022303D01*
X0246499Y0023354D01*
X0244397Y0023354D01*
X0244397Y0021252D01*
X0242296Y0023354D02*
X0241245Y0022303D01*
X0241245Y0020201D01*
X0241245Y0025595D02*
X0247550Y0029799D01*
X0241245Y0029799D01*
X0241245Y0032041D02*
X0241245Y0035194D01*
X0242296Y0036245D01*
X0246499Y0036245D01*
X0247550Y0035194D01*
X0247550Y0032041D01*
X0241245Y0032041D01*
X0241245Y0025595D02*
X0247550Y0025595D01*
X0246499Y0196850D02*
X0247550Y0197901D01*
X0247550Y0200003D01*
X0246499Y0201054D01*
X0244397Y0201054D01*
X0243346Y0200003D01*
X0243346Y0198952D01*
X0244397Y0196850D01*
X0241245Y0196850D01*
X0241245Y0201054D01*
X0241245Y0203295D02*
X0245448Y0203295D01*
X0247550Y0205397D01*
X0245448Y0207499D01*
X0241245Y0207499D01*
M02*
