G75*
%MOIN*%
%OFA0B0*%
%FSLAX25Y25*%
%IPPOS*%
%LPD*%
%AMOC8*
5,1,8,0,0,1.08239X$1,22.5*
%
%ADD10R,0.07400X0.07400*%
%ADD11C,0.07400*%
%ADD12R,0.07087X0.06299*%
%ADD13C,0.01000*%
%ADD14C,0.03100*%
%ADD15C,0.01600*%
D10*
X0172900Y0051800D03*
X0227900Y0051800D03*
X0282900Y0051800D03*
X0282900Y0101800D03*
X0227900Y0101800D03*
X0172900Y0101800D03*
X0227900Y0151800D03*
X0282900Y0151800D03*
D11*
X0282900Y0161800D03*
X0282900Y0171800D03*
X0282900Y0181800D03*
X0232900Y0201800D03*
X0222900Y0201800D03*
X0227900Y0181800D03*
X0227900Y0171800D03*
X0227900Y0161800D03*
X0227900Y0131800D03*
X0227900Y0121800D03*
X0227900Y0111800D03*
X0227900Y0081800D03*
X0227900Y0071800D03*
X0227900Y0061800D03*
X0222900Y0031800D03*
X0232900Y0031800D03*
X0212900Y0011800D03*
X0202900Y0011800D03*
X0192900Y0011800D03*
X0182900Y0011800D03*
X0172900Y0011800D03*
X0162900Y0011800D03*
X0152900Y0011800D03*
X0142900Y0011800D03*
X0172900Y0061800D03*
X0172900Y0071800D03*
X0172900Y0081800D03*
X0172900Y0111800D03*
X0172900Y0121800D03*
X0172900Y0131800D03*
X0102900Y0201800D03*
X0092900Y0201800D03*
X0082900Y0201800D03*
X0072900Y0201800D03*
X0062900Y0201800D03*
X0052900Y0201800D03*
X0042900Y0201800D03*
X0032900Y0201800D03*
X0016400Y0201800D03*
X0006400Y0201800D03*
X0282900Y0131800D03*
X0282900Y0121800D03*
X0282900Y0111800D03*
X0282900Y0081800D03*
X0282900Y0071800D03*
X0282900Y0061800D03*
D12*
X0117900Y0166288D03*
X0102900Y0166288D03*
X0087900Y0166288D03*
X0072900Y0166288D03*
X0057900Y0166288D03*
X0042900Y0166288D03*
X0027900Y0166288D03*
X0012900Y0166288D03*
X0012900Y0177312D03*
X0027900Y0177312D03*
X0042900Y0177312D03*
X0057900Y0177312D03*
X0072900Y0177312D03*
X0087900Y0177312D03*
X0102900Y0177312D03*
X0117900Y0177312D03*
D13*
X0117900Y0179300D01*
X0102900Y0194300D01*
X0092900Y0194300D01*
X0085400Y0201800D01*
X0082900Y0201800D01*
X0080400Y0194300D02*
X0072900Y0201800D01*
X0065400Y0201800D02*
X0062900Y0201800D01*
X0065400Y0201800D02*
X0087900Y0179300D01*
X0087900Y0177312D01*
X0072900Y0177312D02*
X0072900Y0179300D01*
X0052900Y0199300D01*
X0052900Y0201800D01*
X0042900Y0201800D02*
X0042900Y0194300D01*
X0057900Y0179300D01*
X0057900Y0177312D01*
X0050400Y0166800D02*
X0042900Y0166800D01*
X0042900Y0166288D01*
X0032900Y0171800D02*
X0210400Y0171800D01*
X0227900Y0189300D01*
X0282900Y0189300D01*
X0282900Y0194300D02*
X0290400Y0186800D01*
X0290400Y0161800D01*
X0282900Y0161800D01*
X0282900Y0151800D02*
X0227900Y0151800D01*
X0220400Y0154300D02*
X0227900Y0161800D01*
X0220400Y0154300D02*
X0097900Y0154300D01*
X0087900Y0164300D01*
X0087900Y0166288D01*
X0075400Y0156800D02*
X0085400Y0146800D01*
X0207900Y0146800D01*
X0217900Y0151800D02*
X0225400Y0144300D01*
X0232900Y0144300D01*
X0235400Y0146800D01*
X0217900Y0151800D02*
X0085400Y0151800D01*
X0072900Y0164300D01*
X0072900Y0166288D01*
X0075400Y0156800D02*
X0065400Y0156800D01*
X0057900Y0164300D01*
X0057900Y0166288D01*
X0042900Y0177312D02*
X0042900Y0189300D01*
X0032900Y0199300D01*
X0032900Y0201800D01*
X0027900Y0199300D02*
X0020400Y0199300D01*
X0017900Y0201800D01*
X0016400Y0201800D01*
X0012900Y0196800D02*
X0007900Y0201800D01*
X0006400Y0201800D01*
X0012900Y0196800D02*
X0012900Y0177312D01*
X0027900Y0177312D02*
X0027900Y0199300D01*
X0032900Y0171800D02*
X0027900Y0166800D01*
X0027900Y0166288D01*
X0012900Y0166288D02*
X0012900Y0164300D01*
X0032900Y0144300D01*
X0127900Y0144300D01*
X0165400Y0106800D01*
X0165400Y0044300D01*
X0285400Y0044300D01*
X0290400Y0049300D01*
X0290400Y0061800D01*
X0282900Y0061800D01*
X0282900Y0051800D02*
X0227900Y0051800D01*
X0172900Y0051800D01*
X0172900Y0041800D02*
X0287900Y0041800D01*
X0292900Y0046800D01*
X0292900Y0071800D01*
X0282900Y0071800D01*
X0282900Y0081800D02*
X0227900Y0081800D01*
X0172900Y0081800D01*
X0182900Y0086800D02*
X0190400Y0094300D01*
X0285400Y0094300D01*
X0290400Y0099300D01*
X0290400Y0121800D01*
X0282900Y0121800D01*
X0282900Y0131800D02*
X0227900Y0131800D01*
X0172900Y0131800D01*
X0172900Y0121800D02*
X0207900Y0121800D01*
X0202900Y0116800D02*
X0222900Y0116800D01*
X0227900Y0121800D01*
X0202900Y0116800D02*
X0192900Y0106800D01*
X0172900Y0101800D02*
X0227900Y0101800D01*
X0282900Y0101800D01*
X0227900Y0071800D02*
X0222900Y0066800D01*
X0197900Y0066800D01*
X0187900Y0056800D01*
X0172900Y0041800D02*
X0142900Y0011800D01*
X0162900Y0011800D02*
X0175400Y0024300D01*
X0232900Y0024300D01*
X0232900Y0031800D02*
X0222900Y0031800D01*
X0202900Y0071800D02*
X0172900Y0071800D01*
X0130400Y0159300D02*
X0107900Y0159300D01*
X0102900Y0164300D01*
X0102900Y0166288D01*
X0117900Y0166288D02*
X0117900Y0164300D01*
X0130400Y0164300D01*
X0127900Y0176800D02*
X0145400Y0194300D01*
X0282900Y0194300D01*
X0282900Y0181800D02*
X0227900Y0181800D01*
X0232900Y0201800D02*
X0222900Y0201800D01*
X0102900Y0179300D02*
X0102900Y0177312D01*
X0102900Y0179300D02*
X0087900Y0194300D01*
X0080400Y0194300D01*
D14*
X0050400Y0166800D03*
X0127900Y0176800D03*
X0130400Y0164300D03*
X0130400Y0159300D03*
X0192900Y0106800D03*
X0207900Y0121800D03*
X0207900Y0146800D03*
X0235400Y0146800D03*
X0282900Y0189300D03*
X0182900Y0086800D03*
X0202900Y0071800D03*
X0187900Y0056800D03*
X0232900Y0024300D03*
D15*
X0133500Y0007400D02*
X0133500Y0135447D01*
X0163100Y0105847D01*
X0163100Y0043347D01*
X0164447Y0042000D01*
X0169847Y0042000D01*
X0144810Y0016962D01*
X0143994Y0017300D01*
X0141806Y0017300D01*
X0139784Y0016463D01*
X0138237Y0014915D01*
X0137400Y0012894D01*
X0137400Y0010706D01*
X0138237Y0008684D01*
X0139522Y0007400D01*
X0133500Y0007400D01*
X0133500Y0008194D02*
X0138728Y0008194D01*
X0137778Y0009793D02*
X0133500Y0009793D01*
X0133500Y0011391D02*
X0137400Y0011391D01*
X0137440Y0012990D02*
X0133500Y0012990D01*
X0133500Y0014588D02*
X0138102Y0014588D01*
X0139508Y0016187D02*
X0133500Y0016187D01*
X0133500Y0017785D02*
X0145632Y0017785D01*
X0147231Y0019384D02*
X0133500Y0019384D01*
X0133500Y0020982D02*
X0148829Y0020982D01*
X0150428Y0022581D02*
X0133500Y0022581D01*
X0133500Y0024179D02*
X0152026Y0024179D01*
X0153625Y0025778D02*
X0133500Y0025778D01*
X0133500Y0027376D02*
X0155224Y0027376D01*
X0156822Y0028975D02*
X0133500Y0028975D01*
X0133500Y0030573D02*
X0158421Y0030573D01*
X0160019Y0032172D02*
X0133500Y0032172D01*
X0133500Y0033770D02*
X0161618Y0033770D01*
X0163216Y0035369D02*
X0133500Y0035369D01*
X0133500Y0036967D02*
X0164815Y0036967D01*
X0166413Y0038566D02*
X0133500Y0038566D01*
X0133500Y0040164D02*
X0168012Y0040164D01*
X0169610Y0041763D02*
X0133500Y0041763D01*
X0133500Y0043361D02*
X0163100Y0043361D01*
X0163100Y0044960D02*
X0133500Y0044960D01*
X0133500Y0046558D02*
X0163100Y0046558D01*
X0163100Y0048157D02*
X0133500Y0048157D01*
X0133500Y0049755D02*
X0163100Y0049755D01*
X0163100Y0051354D02*
X0133500Y0051354D01*
X0133500Y0052952D02*
X0163100Y0052952D01*
X0163100Y0054551D02*
X0133500Y0054551D01*
X0133500Y0056149D02*
X0163100Y0056149D01*
X0163100Y0057748D02*
X0133500Y0057748D01*
X0133500Y0059346D02*
X0163100Y0059346D01*
X0163100Y0060945D02*
X0133500Y0060945D01*
X0133500Y0062543D02*
X0163100Y0062543D01*
X0163100Y0064142D02*
X0133500Y0064142D01*
X0133500Y0065740D02*
X0163100Y0065740D01*
X0163100Y0067339D02*
X0133500Y0067339D01*
X0133500Y0068937D02*
X0163100Y0068937D01*
X0163100Y0070536D02*
X0133500Y0070536D01*
X0133500Y0072134D02*
X0163100Y0072134D01*
X0163100Y0073733D02*
X0133500Y0073733D01*
X0133500Y0075332D02*
X0163100Y0075332D01*
X0163100Y0076930D02*
X0133500Y0076930D01*
X0133500Y0078529D02*
X0163100Y0078529D01*
X0163100Y0080127D02*
X0133500Y0080127D01*
X0133500Y0081726D02*
X0163100Y0081726D01*
X0163100Y0083324D02*
X0133500Y0083324D01*
X0133500Y0084923D02*
X0163100Y0084923D01*
X0163100Y0086521D02*
X0133500Y0086521D01*
X0133500Y0088120D02*
X0163100Y0088120D01*
X0163100Y0089718D02*
X0133500Y0089718D01*
X0133500Y0091317D02*
X0163100Y0091317D01*
X0163100Y0092915D02*
X0133500Y0092915D01*
X0133500Y0094514D02*
X0163100Y0094514D01*
X0163100Y0096112D02*
X0133500Y0096112D01*
X0133500Y0097711D02*
X0163100Y0097711D01*
X0163100Y0099309D02*
X0133500Y0099309D01*
X0133500Y0100908D02*
X0163100Y0100908D01*
X0163100Y0102506D02*
X0133500Y0102506D01*
X0133500Y0104105D02*
X0163100Y0104105D01*
X0163100Y0105703D02*
X0133500Y0105703D01*
X0133500Y0107302D02*
X0161646Y0107302D01*
X0160047Y0108900D02*
X0133500Y0108900D01*
X0133500Y0110499D02*
X0158449Y0110499D01*
X0156850Y0112097D02*
X0133500Y0112097D01*
X0133500Y0113696D02*
X0155252Y0113696D01*
X0153653Y0115294D02*
X0133500Y0115294D01*
X0133500Y0116893D02*
X0152054Y0116893D01*
X0150456Y0118491D02*
X0133500Y0118491D01*
X0133500Y0120090D02*
X0148857Y0120090D01*
X0147259Y0121688D02*
X0133500Y0121688D01*
X0133500Y0123287D02*
X0145660Y0123287D01*
X0144062Y0124885D02*
X0133500Y0124885D01*
X0133500Y0126484D02*
X0142463Y0126484D01*
X0140865Y0128082D02*
X0133500Y0128082D01*
X0133500Y0129681D02*
X0139266Y0129681D01*
X0137668Y0131279D02*
X0133500Y0131279D01*
X0133500Y0132878D02*
X0136069Y0132878D01*
X0134471Y0134476D02*
X0133500Y0134476D01*
X0137779Y0137673D02*
X0297300Y0137673D01*
X0297300Y0136075D02*
X0286403Y0136075D01*
X0286015Y0136463D02*
X0283994Y0137300D01*
X0281806Y0137300D01*
X0279784Y0136463D01*
X0278237Y0134915D01*
X0277900Y0134100D01*
X0232900Y0134100D01*
X0232563Y0134915D01*
X0231015Y0136463D01*
X0228994Y0137300D01*
X0226806Y0137300D01*
X0224784Y0136463D01*
X0223237Y0134915D01*
X0222900Y0134100D01*
X0177900Y0134100D01*
X0177563Y0134915D01*
X0176015Y0136463D01*
X0173994Y0137300D01*
X0171806Y0137300D01*
X0169784Y0136463D01*
X0168237Y0134915D01*
X0167400Y0132894D01*
X0167400Y0130706D01*
X0168237Y0128684D01*
X0169784Y0127137D01*
X0170599Y0126800D01*
X0169784Y0126463D01*
X0168237Y0124915D01*
X0167400Y0122894D01*
X0167400Y0120706D01*
X0168237Y0118684D01*
X0169784Y0117137D01*
X0170599Y0116800D01*
X0169784Y0116463D01*
X0168237Y0114915D01*
X0167400Y0112894D01*
X0167400Y0110706D01*
X0168237Y0108684D01*
X0169622Y0107300D01*
X0168454Y0107300D01*
X0167700Y0106546D01*
X0167700Y0107753D01*
X0166353Y0109100D01*
X0130953Y0144500D01*
X0205462Y0144500D01*
X0206002Y0143960D01*
X0207234Y0143450D01*
X0208566Y0143450D01*
X0209798Y0143960D01*
X0210740Y0144902D01*
X0211250Y0146134D01*
X0211250Y0147466D01*
X0210740Y0148698D01*
X0209938Y0149500D01*
X0216947Y0149500D01*
X0223100Y0143347D01*
X0224447Y0142000D01*
X0233853Y0142000D01*
X0235303Y0143450D01*
X0236066Y0143450D01*
X0237298Y0143960D01*
X0238240Y0144902D01*
X0238750Y0146134D01*
X0238750Y0147466D01*
X0238240Y0148698D01*
X0237438Y0149500D01*
X0277400Y0149500D01*
X0277400Y0147354D01*
X0278454Y0146300D01*
X0287346Y0146300D01*
X0288400Y0147354D01*
X0288400Y0156246D01*
X0287346Y0157300D01*
X0286178Y0157300D01*
X0287563Y0158684D01*
X0287900Y0159500D01*
X0291353Y0159500D01*
X0292700Y0160847D01*
X0292700Y0187753D01*
X0291353Y0189100D01*
X0283853Y0196600D01*
X0234718Y0196600D01*
X0236015Y0197137D01*
X0237563Y0198684D01*
X0238400Y0200706D01*
X0238400Y0202894D01*
X0237563Y0204915D01*
X0236278Y0206200D01*
X0297300Y0206200D01*
X0297300Y0007400D01*
X0216278Y0007400D01*
X0217563Y0008684D01*
X0218400Y0010706D01*
X0218400Y0012894D01*
X0217563Y0014915D01*
X0216015Y0016463D01*
X0213994Y0017300D01*
X0211806Y0017300D01*
X0209784Y0016463D01*
X0208237Y0014915D01*
X0207900Y0014101D01*
X0207563Y0014915D01*
X0206015Y0016463D01*
X0203994Y0017300D01*
X0201806Y0017300D01*
X0199784Y0016463D01*
X0198237Y0014915D01*
X0197900Y0014101D01*
X0197563Y0014915D01*
X0196015Y0016463D01*
X0193994Y0017300D01*
X0191806Y0017300D01*
X0189784Y0016463D01*
X0188237Y0014915D01*
X0187900Y0014101D01*
X0187563Y0014915D01*
X0186015Y0016463D01*
X0183994Y0017300D01*
X0181806Y0017300D01*
X0179784Y0016463D01*
X0178237Y0014915D01*
X0177900Y0014101D01*
X0177563Y0014915D01*
X0176015Y0016463D01*
X0173994Y0017300D01*
X0171806Y0017300D01*
X0171544Y0017192D01*
X0176353Y0022000D01*
X0230462Y0022000D01*
X0231002Y0021460D01*
X0232234Y0020950D01*
X0233566Y0020950D01*
X0234798Y0021460D01*
X0235740Y0022402D01*
X0236250Y0023634D01*
X0236250Y0024966D01*
X0235740Y0026198D01*
X0235156Y0026781D01*
X0236015Y0027137D01*
X0237563Y0028684D01*
X0238400Y0030706D01*
X0238400Y0032894D01*
X0237563Y0034915D01*
X0236015Y0036463D01*
X0233994Y0037300D01*
X0231806Y0037300D01*
X0229784Y0036463D01*
X0228237Y0034915D01*
X0227900Y0034101D01*
X0227563Y0034915D01*
X0226015Y0036463D01*
X0223994Y0037300D01*
X0221806Y0037300D01*
X0219784Y0036463D01*
X0218237Y0034915D01*
X0217400Y0032894D01*
X0217400Y0030706D01*
X0218237Y0028684D01*
X0219784Y0027137D01*
X0221082Y0026600D01*
X0174447Y0026600D01*
X0173100Y0025253D01*
X0164810Y0016962D01*
X0163994Y0017300D01*
X0161806Y0017300D01*
X0159784Y0016463D01*
X0158237Y0014915D01*
X0157900Y0014101D01*
X0157563Y0014915D01*
X0156015Y0016463D01*
X0153994Y0017300D01*
X0151806Y0017300D01*
X0151544Y0017192D01*
X0173853Y0039500D01*
X0288853Y0039500D01*
X0293853Y0044500D01*
X0295200Y0045847D01*
X0295200Y0072753D01*
X0293853Y0074100D01*
X0287900Y0074100D01*
X0287563Y0074915D01*
X0286015Y0076463D01*
X0285201Y0076800D01*
X0286015Y0077137D01*
X0287563Y0078684D01*
X0288400Y0080706D01*
X0288400Y0082894D01*
X0287563Y0084915D01*
X0286015Y0086463D01*
X0283994Y0087300D01*
X0281806Y0087300D01*
X0279784Y0086463D01*
X0278237Y0084915D01*
X0277900Y0084100D01*
X0232900Y0084100D01*
X0232563Y0084915D01*
X0231015Y0086463D01*
X0228994Y0087300D01*
X0226806Y0087300D01*
X0224784Y0086463D01*
X0223237Y0084915D01*
X0222900Y0084100D01*
X0184938Y0084100D01*
X0185740Y0084902D01*
X0186250Y0086134D01*
X0186250Y0086897D01*
X0191353Y0092000D01*
X0286353Y0092000D01*
X0291353Y0097000D01*
X0292700Y0098347D01*
X0292700Y0122753D01*
X0291353Y0124100D01*
X0287900Y0124100D01*
X0287563Y0124915D01*
X0286015Y0126463D01*
X0285201Y0126800D01*
X0286015Y0127137D01*
X0287563Y0128684D01*
X0288400Y0130706D01*
X0288400Y0132894D01*
X0287563Y0134915D01*
X0286015Y0136463D01*
X0287745Y0134476D02*
X0297300Y0134476D01*
X0297300Y0132878D02*
X0288400Y0132878D01*
X0288400Y0131279D02*
X0297300Y0131279D01*
X0297300Y0129681D02*
X0287975Y0129681D01*
X0286961Y0128082D02*
X0297300Y0128082D01*
X0297300Y0126484D02*
X0285964Y0126484D01*
X0287575Y0124885D02*
X0297300Y0124885D01*
X0297300Y0123287D02*
X0292166Y0123287D01*
X0292700Y0121688D02*
X0297300Y0121688D01*
X0297300Y0120090D02*
X0292700Y0120090D01*
X0292700Y0118491D02*
X0297300Y0118491D01*
X0297300Y0116893D02*
X0292700Y0116893D01*
X0292700Y0115294D02*
X0297300Y0115294D01*
X0297300Y0113696D02*
X0292700Y0113696D01*
X0292700Y0112097D02*
X0297300Y0112097D01*
X0297300Y0110499D02*
X0292700Y0110499D01*
X0292700Y0108900D02*
X0297300Y0108900D01*
X0297300Y0107302D02*
X0292700Y0107302D01*
X0292700Y0105703D02*
X0297300Y0105703D01*
X0297300Y0104105D02*
X0292700Y0104105D01*
X0292700Y0102506D02*
X0297300Y0102506D01*
X0297300Y0100908D02*
X0292700Y0100908D01*
X0292700Y0099309D02*
X0297300Y0099309D01*
X0297300Y0097711D02*
X0292063Y0097711D01*
X0290465Y0096112D02*
X0297300Y0096112D01*
X0297300Y0094514D02*
X0288866Y0094514D01*
X0287268Y0092915D02*
X0297300Y0092915D01*
X0297300Y0091317D02*
X0190669Y0091317D01*
X0189071Y0089718D02*
X0297300Y0089718D01*
X0297300Y0088120D02*
X0187472Y0088120D01*
X0186250Y0086521D02*
X0224926Y0086521D01*
X0223244Y0084923D02*
X0185748Y0084923D01*
X0180862Y0084100D02*
X0177900Y0084100D01*
X0177563Y0084915D01*
X0176015Y0086463D01*
X0173994Y0087300D01*
X0171806Y0087300D01*
X0169784Y0086463D01*
X0168237Y0084915D01*
X0167700Y0083618D01*
X0167700Y0097054D01*
X0168454Y0096300D01*
X0177346Y0096300D01*
X0178400Y0097354D01*
X0178400Y0099500D01*
X0222400Y0099500D01*
X0222400Y0097354D01*
X0223154Y0096600D01*
X0189447Y0096600D01*
X0188100Y0095253D01*
X0182997Y0090150D01*
X0182234Y0090150D01*
X0181002Y0089640D01*
X0180060Y0088698D01*
X0179550Y0087466D01*
X0179550Y0086134D01*
X0180060Y0084902D01*
X0180862Y0084100D01*
X0180052Y0084923D02*
X0177556Y0084923D01*
X0175874Y0086521D02*
X0179550Y0086521D01*
X0179821Y0088120D02*
X0167700Y0088120D01*
X0167700Y0089718D02*
X0181191Y0089718D01*
X0184164Y0091317D02*
X0167700Y0091317D01*
X0167700Y0092915D02*
X0185762Y0092915D01*
X0187361Y0094514D02*
X0167700Y0094514D01*
X0167700Y0096112D02*
X0188959Y0096112D01*
X0190862Y0104100D02*
X0178400Y0104100D01*
X0178400Y0106246D01*
X0177346Y0107300D01*
X0176178Y0107300D01*
X0177563Y0108684D01*
X0178400Y0110706D01*
X0178400Y0112894D01*
X0177563Y0114915D01*
X0176015Y0116463D01*
X0175201Y0116800D01*
X0176015Y0117137D01*
X0177563Y0118684D01*
X0177900Y0119500D01*
X0205462Y0119500D01*
X0205862Y0119100D01*
X0201947Y0119100D01*
X0200600Y0117753D01*
X0192997Y0110150D01*
X0192234Y0110150D01*
X0191002Y0109640D01*
X0190060Y0108698D01*
X0189550Y0107466D01*
X0189550Y0106134D01*
X0190060Y0104902D01*
X0190862Y0104100D01*
X0190858Y0104105D02*
X0178400Y0104105D01*
X0178400Y0105703D02*
X0189728Y0105703D01*
X0189550Y0107302D02*
X0176180Y0107302D01*
X0177652Y0108900D02*
X0190263Y0108900D01*
X0193346Y0110499D02*
X0178314Y0110499D01*
X0178400Y0112097D02*
X0194945Y0112097D01*
X0196543Y0113696D02*
X0178068Y0113696D01*
X0177184Y0115294D02*
X0198142Y0115294D01*
X0199740Y0116893D02*
X0175425Y0116893D01*
X0177369Y0118491D02*
X0201339Y0118491D01*
X0203853Y0114500D02*
X0196250Y0106897D01*
X0196250Y0106134D01*
X0195740Y0104902D01*
X0194938Y0104100D01*
X0222400Y0104100D01*
X0222400Y0106246D01*
X0223454Y0107300D01*
X0224622Y0107300D01*
X0223237Y0108684D01*
X0222400Y0110706D01*
X0222400Y0112894D01*
X0223065Y0114500D01*
X0203853Y0114500D01*
X0203048Y0113696D02*
X0222732Y0113696D01*
X0222400Y0112097D02*
X0201450Y0112097D01*
X0199851Y0110499D02*
X0222486Y0110499D01*
X0223148Y0108900D02*
X0198253Y0108900D01*
X0196654Y0107302D02*
X0224620Y0107302D01*
X0222400Y0105703D02*
X0196072Y0105703D01*
X0194942Y0104105D02*
X0222400Y0104105D01*
X0222400Y0099309D02*
X0178400Y0099309D01*
X0178400Y0097711D02*
X0222400Y0097711D01*
X0232646Y0096600D02*
X0233400Y0097354D01*
X0233400Y0099500D01*
X0277400Y0099500D01*
X0277400Y0097354D01*
X0278154Y0096600D01*
X0232646Y0096600D01*
X0233400Y0097711D02*
X0277400Y0097711D01*
X0277400Y0099309D02*
X0233400Y0099309D01*
X0233400Y0104100D02*
X0233400Y0106246D01*
X0232346Y0107300D01*
X0231178Y0107300D01*
X0232563Y0108684D01*
X0233400Y0110706D01*
X0233400Y0112894D01*
X0232563Y0114915D01*
X0231015Y0116463D01*
X0230201Y0116800D01*
X0231015Y0117137D01*
X0232563Y0118684D01*
X0233400Y0120706D01*
X0233400Y0122894D01*
X0232563Y0124915D01*
X0231015Y0126463D01*
X0230201Y0126800D01*
X0231015Y0127137D01*
X0232563Y0128684D01*
X0232900Y0129500D01*
X0277900Y0129500D01*
X0278237Y0128684D01*
X0279784Y0127137D01*
X0280599Y0126800D01*
X0279784Y0126463D01*
X0278237Y0124915D01*
X0277400Y0122894D01*
X0277400Y0120706D01*
X0278237Y0118684D01*
X0279784Y0117137D01*
X0280599Y0116800D01*
X0279784Y0116463D01*
X0278237Y0114915D01*
X0277400Y0112894D01*
X0277400Y0110706D01*
X0278237Y0108684D01*
X0279622Y0107300D01*
X0278454Y0107300D01*
X0277400Y0106246D01*
X0277400Y0104100D01*
X0233400Y0104100D01*
X0233400Y0104105D02*
X0277400Y0104105D01*
X0277400Y0105703D02*
X0233400Y0105703D01*
X0231180Y0107302D02*
X0279620Y0107302D01*
X0278148Y0108900D02*
X0232652Y0108900D01*
X0233314Y0110499D02*
X0277486Y0110499D01*
X0277400Y0112097D02*
X0233400Y0112097D01*
X0233068Y0113696D02*
X0277732Y0113696D01*
X0278616Y0115294D02*
X0232184Y0115294D01*
X0230425Y0116893D02*
X0280375Y0116893D01*
X0278430Y0118491D02*
X0232369Y0118491D01*
X0233145Y0120090D02*
X0277655Y0120090D01*
X0277400Y0121688D02*
X0233400Y0121688D01*
X0233237Y0123287D02*
X0277563Y0123287D01*
X0278225Y0124885D02*
X0232575Y0124885D01*
X0230964Y0126484D02*
X0279836Y0126484D01*
X0278839Y0128082D02*
X0231961Y0128082D01*
X0225599Y0126800D02*
X0224784Y0126463D01*
X0223237Y0124915D01*
X0222400Y0122894D01*
X0222400Y0120706D01*
X0222738Y0119890D01*
X0221947Y0119100D01*
X0209938Y0119100D01*
X0210740Y0119902D01*
X0211250Y0121134D01*
X0211250Y0122466D01*
X0210740Y0123698D01*
X0209798Y0124640D01*
X0208566Y0125150D01*
X0207234Y0125150D01*
X0206002Y0124640D01*
X0205462Y0124100D01*
X0177900Y0124100D01*
X0177563Y0124915D01*
X0176015Y0126463D01*
X0175201Y0126800D01*
X0176015Y0127137D01*
X0177563Y0128684D01*
X0177900Y0129500D01*
X0222900Y0129500D01*
X0223237Y0128684D01*
X0224784Y0127137D01*
X0225599Y0126800D01*
X0224836Y0126484D02*
X0175964Y0126484D01*
X0176961Y0128082D02*
X0223839Y0128082D01*
X0223225Y0124885D02*
X0209205Y0124885D01*
X0210910Y0123287D02*
X0222563Y0123287D01*
X0222400Y0121688D02*
X0211250Y0121688D01*
X0210818Y0120090D02*
X0222655Y0120090D01*
X0223055Y0134476D02*
X0177745Y0134476D01*
X0176403Y0136075D02*
X0224397Y0136075D01*
X0231403Y0136075D02*
X0279397Y0136075D01*
X0278055Y0134476D02*
X0232745Y0134476D01*
X0234322Y0142469D02*
X0297300Y0142469D01*
X0297300Y0140870D02*
X0134582Y0140870D01*
X0136181Y0139272D02*
X0297300Y0139272D01*
X0297300Y0144068D02*
X0237405Y0144068D01*
X0238556Y0145666D02*
X0297300Y0145666D01*
X0297300Y0147265D02*
X0288310Y0147265D01*
X0288400Y0148863D02*
X0297300Y0148863D01*
X0297300Y0150462D02*
X0288400Y0150462D01*
X0288400Y0152060D02*
X0297300Y0152060D01*
X0297300Y0153659D02*
X0288400Y0153659D01*
X0288400Y0155257D02*
X0297300Y0155257D01*
X0297300Y0156856D02*
X0287790Y0156856D01*
X0287332Y0158454D02*
X0297300Y0158454D01*
X0297300Y0160053D02*
X0291905Y0160053D01*
X0292700Y0161651D02*
X0297300Y0161651D01*
X0297300Y0163250D02*
X0292700Y0163250D01*
X0292700Y0164848D02*
X0297300Y0164848D01*
X0297300Y0166447D02*
X0292700Y0166447D01*
X0292700Y0168045D02*
X0297300Y0168045D01*
X0297300Y0169644D02*
X0292700Y0169644D01*
X0292700Y0171242D02*
X0297300Y0171242D01*
X0297300Y0172841D02*
X0292700Y0172841D01*
X0292700Y0174439D02*
X0297300Y0174439D01*
X0297300Y0176038D02*
X0292700Y0176038D01*
X0292700Y0177636D02*
X0297300Y0177636D01*
X0297300Y0179235D02*
X0292700Y0179235D01*
X0292700Y0180833D02*
X0297300Y0180833D01*
X0297300Y0182432D02*
X0292700Y0182432D01*
X0292700Y0184030D02*
X0297300Y0184030D01*
X0297300Y0185629D02*
X0292700Y0185629D01*
X0292700Y0187227D02*
X0297300Y0187227D01*
X0297300Y0188826D02*
X0291627Y0188826D01*
X0290028Y0190424D02*
X0297300Y0190424D01*
X0297300Y0192023D02*
X0288430Y0192023D01*
X0286831Y0193621D02*
X0297300Y0193621D01*
X0297300Y0195220D02*
X0285233Y0195220D01*
X0280862Y0192000D02*
X0280462Y0191600D01*
X0226947Y0191600D01*
X0225600Y0190253D01*
X0209447Y0174100D01*
X0129938Y0174100D01*
X0130740Y0174902D01*
X0131250Y0176134D01*
X0131250Y0176897D01*
X0146353Y0192000D01*
X0280862Y0192000D01*
X0285976Y0187972D02*
X0288100Y0185847D01*
X0288100Y0183618D01*
X0287563Y0184915D01*
X0286015Y0186463D01*
X0285156Y0186819D01*
X0285740Y0187402D01*
X0285976Y0187972D01*
X0285565Y0187227D02*
X0286720Y0187227D01*
X0286849Y0185629D02*
X0288100Y0185629D01*
X0288100Y0184030D02*
X0287929Y0184030D01*
X0288100Y0179982D02*
X0288100Y0173618D01*
X0287563Y0174915D01*
X0286015Y0176463D01*
X0285201Y0176800D01*
X0286015Y0177137D01*
X0287563Y0178684D01*
X0288100Y0179982D01*
X0288100Y0179235D02*
X0287791Y0179235D01*
X0288100Y0177636D02*
X0286514Y0177636D01*
X0286440Y0176038D02*
X0288100Y0176038D01*
X0288100Y0174439D02*
X0287760Y0174439D01*
X0288100Y0169982D02*
X0288100Y0164100D01*
X0287900Y0164100D01*
X0287563Y0164915D01*
X0286015Y0166463D01*
X0285201Y0166800D01*
X0286015Y0167137D01*
X0287563Y0168684D01*
X0288100Y0169982D01*
X0288100Y0169644D02*
X0287960Y0169644D01*
X0288100Y0168045D02*
X0286923Y0168045D01*
X0286031Y0166447D02*
X0288100Y0166447D01*
X0288100Y0164848D02*
X0287591Y0164848D01*
X0280599Y0166800D02*
X0279784Y0166463D01*
X0278237Y0164915D01*
X0277400Y0162894D01*
X0277400Y0160706D01*
X0278237Y0158684D01*
X0279622Y0157300D01*
X0278454Y0157300D01*
X0277400Y0156246D01*
X0277400Y0154100D01*
X0233400Y0154100D01*
X0233400Y0156246D01*
X0232346Y0157300D01*
X0231178Y0157300D01*
X0232563Y0158684D01*
X0233400Y0160706D01*
X0233400Y0162894D01*
X0232563Y0164915D01*
X0231015Y0166463D01*
X0230201Y0166800D01*
X0231015Y0167137D01*
X0232563Y0168684D01*
X0233400Y0170706D01*
X0233400Y0172894D01*
X0232563Y0174915D01*
X0231015Y0176463D01*
X0230201Y0176800D01*
X0231015Y0177137D01*
X0232563Y0178684D01*
X0232900Y0179500D01*
X0277900Y0179500D01*
X0278237Y0178684D01*
X0279784Y0177137D01*
X0280599Y0176800D01*
X0279784Y0176463D01*
X0278237Y0174915D01*
X0277400Y0172894D01*
X0277400Y0170706D01*
X0278237Y0168684D01*
X0279784Y0167137D01*
X0280599Y0166800D01*
X0279769Y0166447D02*
X0231031Y0166447D01*
X0231923Y0168045D02*
X0278877Y0168045D01*
X0277840Y0169644D02*
X0232960Y0169644D01*
X0233400Y0171242D02*
X0277400Y0171242D01*
X0277400Y0172841D02*
X0233400Y0172841D01*
X0232760Y0174439D02*
X0278040Y0174439D01*
X0279360Y0176038D02*
X0231440Y0176038D01*
X0231514Y0177636D02*
X0279286Y0177636D01*
X0278009Y0179235D02*
X0232791Y0179235D01*
X0225599Y0176800D02*
X0224784Y0176463D01*
X0223237Y0174915D01*
X0222400Y0172894D01*
X0222400Y0170706D01*
X0223237Y0168684D01*
X0224784Y0167137D01*
X0225599Y0166800D01*
X0224784Y0166463D01*
X0223237Y0164915D01*
X0222400Y0162894D01*
X0222400Y0160706D01*
X0222738Y0159890D01*
X0219447Y0156600D01*
X0132438Y0156600D01*
X0133240Y0157402D01*
X0133750Y0158634D01*
X0133750Y0159966D01*
X0133240Y0161198D01*
X0132638Y0161800D01*
X0133240Y0162402D01*
X0133750Y0163634D01*
X0133750Y0164966D01*
X0133240Y0166198D01*
X0132298Y0167140D01*
X0131066Y0167650D01*
X0129734Y0167650D01*
X0128502Y0167140D01*
X0127962Y0166600D01*
X0123243Y0166600D01*
X0123243Y0169500D01*
X0211353Y0169500D01*
X0222446Y0180594D01*
X0223237Y0178684D01*
X0224784Y0177137D01*
X0225599Y0176800D01*
X0224360Y0176038D02*
X0217890Y0176038D01*
X0216292Y0174439D02*
X0223040Y0174439D01*
X0222400Y0172841D02*
X0214693Y0172841D01*
X0213095Y0171242D02*
X0222400Y0171242D01*
X0222840Y0169644D02*
X0211496Y0169644D01*
X0209787Y0174439D02*
X0130277Y0174439D01*
X0131210Y0176038D02*
X0211385Y0176038D01*
X0212984Y0177636D02*
X0131989Y0177636D01*
X0133587Y0179235D02*
X0214582Y0179235D01*
X0216181Y0180833D02*
X0135186Y0180833D01*
X0136784Y0182432D02*
X0217779Y0182432D01*
X0219378Y0184030D02*
X0138383Y0184030D01*
X0139981Y0185629D02*
X0220976Y0185629D01*
X0222575Y0187227D02*
X0141580Y0187227D01*
X0143179Y0188826D02*
X0224173Y0188826D01*
X0225772Y0190424D02*
X0144777Y0190424D01*
X0141469Y0193621D02*
X0106831Y0193621D01*
X0108430Y0192023D02*
X0139870Y0192023D01*
X0138272Y0190424D02*
X0110028Y0190424D01*
X0111627Y0188826D02*
X0136673Y0188826D01*
X0135075Y0187227D02*
X0113225Y0187227D01*
X0114824Y0185629D02*
X0133476Y0185629D01*
X0131878Y0184030D02*
X0116422Y0184030D01*
X0118021Y0182432D02*
X0130279Y0182432D01*
X0128681Y0180833D02*
X0123243Y0180833D01*
X0123243Y0181207D02*
X0122189Y0182261D01*
X0118191Y0182261D01*
X0105200Y0195253D01*
X0104106Y0196346D01*
X0106015Y0197137D01*
X0107563Y0198684D01*
X0108400Y0200706D01*
X0108400Y0202894D01*
X0107563Y0204915D01*
X0106278Y0206200D01*
X0219522Y0206200D01*
X0218237Y0204915D01*
X0217400Y0202894D01*
X0217400Y0200706D01*
X0218237Y0198684D01*
X0219784Y0197137D01*
X0221082Y0196600D01*
X0144447Y0196600D01*
X0143100Y0195253D01*
X0127997Y0180150D01*
X0127234Y0180150D01*
X0126002Y0179640D01*
X0125060Y0178698D01*
X0124550Y0177466D01*
X0124550Y0176134D01*
X0125060Y0174902D01*
X0125862Y0174100D01*
X0123243Y0174100D01*
X0123243Y0181207D01*
X0123243Y0179235D02*
X0125597Y0179235D01*
X0124620Y0177636D02*
X0123243Y0177636D01*
X0123243Y0176038D02*
X0124590Y0176038D01*
X0125523Y0174439D02*
X0123243Y0174439D01*
X0123243Y0168045D02*
X0223877Y0168045D01*
X0224769Y0166447D02*
X0132991Y0166447D01*
X0133750Y0164848D02*
X0223209Y0164848D01*
X0222547Y0163250D02*
X0133591Y0163250D01*
X0132786Y0161651D02*
X0222400Y0161651D01*
X0222671Y0160053D02*
X0133714Y0160053D01*
X0133676Y0158454D02*
X0221301Y0158454D01*
X0219703Y0156856D02*
X0132693Y0156856D01*
X0128362Y0156600D02*
X0098853Y0156600D01*
X0093151Y0162301D01*
X0093243Y0162393D01*
X0093243Y0169500D01*
X0097557Y0169500D01*
X0097557Y0162393D01*
X0098611Y0161339D01*
X0102609Y0161339D01*
X0105600Y0158347D01*
X0106947Y0157000D01*
X0127962Y0157000D01*
X0128362Y0156600D01*
X0128107Y0156856D02*
X0098597Y0156856D01*
X0096999Y0158454D02*
X0105493Y0158454D01*
X0103895Y0160053D02*
X0095400Y0160053D01*
X0093802Y0161651D02*
X0098299Y0161651D01*
X0097557Y0163250D02*
X0093243Y0163250D01*
X0093243Y0164848D02*
X0097557Y0164848D01*
X0097557Y0166447D02*
X0093243Y0166447D01*
X0093243Y0168045D02*
X0097557Y0168045D01*
X0097557Y0174100D02*
X0093243Y0174100D01*
X0093243Y0181207D01*
X0092189Y0182261D01*
X0088191Y0182261D01*
X0074106Y0196346D01*
X0074810Y0196638D01*
X0079447Y0192000D01*
X0081353Y0192000D01*
X0086947Y0192000D01*
X0097649Y0181299D01*
X0097557Y0181207D01*
X0097557Y0174100D01*
X0097557Y0174439D02*
X0093243Y0174439D01*
X0093243Y0176038D02*
X0097557Y0176038D01*
X0097557Y0177636D02*
X0093243Y0177636D01*
X0093243Y0179235D02*
X0097557Y0179235D01*
X0097557Y0180833D02*
X0093243Y0180833D01*
X0096516Y0182432D02*
X0088021Y0182432D01*
X0086422Y0184030D02*
X0094917Y0184030D01*
X0093319Y0185629D02*
X0084824Y0185629D01*
X0083225Y0187227D02*
X0091720Y0187227D01*
X0090121Y0188826D02*
X0081627Y0188826D01*
X0080028Y0190424D02*
X0088523Y0190424D01*
X0093453Y0192000D02*
X0101947Y0192000D01*
X0112649Y0181299D01*
X0112557Y0181207D01*
X0112557Y0174100D01*
X0108243Y0174100D01*
X0108243Y0181207D01*
X0107189Y0182261D01*
X0103191Y0182261D01*
X0093453Y0192000D01*
X0095028Y0190424D02*
X0103523Y0190424D01*
X0105121Y0188826D02*
X0096627Y0188826D01*
X0098225Y0187227D02*
X0106720Y0187227D01*
X0108319Y0185629D02*
X0099824Y0185629D01*
X0101422Y0184030D02*
X0109917Y0184030D01*
X0111516Y0182432D02*
X0103021Y0182432D01*
X0108243Y0180833D02*
X0112557Y0180833D01*
X0112557Y0179235D02*
X0108243Y0179235D01*
X0108243Y0177636D02*
X0112557Y0177636D01*
X0112557Y0176038D02*
X0108243Y0176038D01*
X0108243Y0174439D02*
X0112557Y0174439D01*
X0112557Y0169500D02*
X0108243Y0169500D01*
X0108243Y0162393D01*
X0108151Y0162301D01*
X0108853Y0161600D01*
X0113350Y0161600D01*
X0112557Y0162393D01*
X0112557Y0169500D01*
X0112557Y0168045D02*
X0108243Y0168045D01*
X0108243Y0166447D02*
X0112557Y0166447D01*
X0112557Y0164848D02*
X0108243Y0164848D01*
X0108243Y0163250D02*
X0112557Y0163250D01*
X0113299Y0161651D02*
X0108802Y0161651D01*
X0094847Y0154100D02*
X0086353Y0154100D01*
X0078151Y0162301D01*
X0078243Y0162393D01*
X0078243Y0169500D01*
X0082557Y0169500D01*
X0082557Y0162393D01*
X0083611Y0161339D01*
X0087609Y0161339D01*
X0094847Y0154100D01*
X0093690Y0155257D02*
X0085196Y0155257D01*
X0083597Y0156856D02*
X0092092Y0156856D01*
X0090493Y0158454D02*
X0081999Y0158454D01*
X0080400Y0160053D02*
X0088895Y0160053D01*
X0083299Y0161651D02*
X0078802Y0161651D01*
X0078243Y0163250D02*
X0082557Y0163250D01*
X0082557Y0164848D02*
X0078243Y0164848D01*
X0078243Y0166447D02*
X0082557Y0166447D01*
X0082557Y0168045D02*
X0078243Y0168045D01*
X0078243Y0174100D02*
X0078243Y0181207D01*
X0077189Y0182261D01*
X0073191Y0182261D01*
X0057165Y0198287D01*
X0057563Y0198684D01*
X0057900Y0199499D01*
X0058237Y0198684D01*
X0059784Y0197137D01*
X0061806Y0196300D01*
X0063994Y0196300D01*
X0066015Y0197137D01*
X0066413Y0197535D01*
X0082649Y0181299D01*
X0082557Y0181207D01*
X0082557Y0174100D01*
X0078243Y0174100D01*
X0078243Y0174439D02*
X0082557Y0174439D01*
X0082557Y0176038D02*
X0078243Y0176038D01*
X0078243Y0177636D02*
X0082557Y0177636D01*
X0082557Y0179235D02*
X0078243Y0179235D01*
X0078243Y0180833D02*
X0082557Y0180833D01*
X0081516Y0182432D02*
X0073021Y0182432D01*
X0071422Y0184030D02*
X0079917Y0184030D01*
X0078319Y0185629D02*
X0069824Y0185629D01*
X0068225Y0187227D02*
X0076720Y0187227D01*
X0075121Y0188826D02*
X0066627Y0188826D01*
X0065028Y0190424D02*
X0073523Y0190424D01*
X0071924Y0192023D02*
X0063430Y0192023D01*
X0061831Y0193621D02*
X0070326Y0193621D01*
X0068727Y0195220D02*
X0060233Y0195220D01*
X0060554Y0196818D02*
X0058634Y0196818D01*
X0058505Y0198417D02*
X0057295Y0198417D01*
X0053727Y0195220D02*
X0045233Y0195220D01*
X0045200Y0195253D02*
X0045200Y0196800D01*
X0046015Y0197137D01*
X0047563Y0198684D01*
X0047900Y0199499D01*
X0048237Y0198684D01*
X0049784Y0197137D01*
X0051806Y0196300D01*
X0052647Y0196300D01*
X0067649Y0181299D01*
X0067557Y0181207D01*
X0067557Y0174100D01*
X0063243Y0174100D01*
X0063243Y0181207D01*
X0062189Y0182261D01*
X0058191Y0182261D01*
X0045200Y0195253D01*
X0045245Y0196818D02*
X0050554Y0196818D01*
X0048505Y0198417D02*
X0047295Y0198417D01*
X0046831Y0193621D02*
X0055326Y0193621D01*
X0056924Y0192023D02*
X0048430Y0192023D01*
X0050028Y0190424D02*
X0058523Y0190424D01*
X0060121Y0188826D02*
X0051627Y0188826D01*
X0053225Y0187227D02*
X0061720Y0187227D01*
X0063319Y0185629D02*
X0054824Y0185629D01*
X0056422Y0184030D02*
X0064917Y0184030D01*
X0066516Y0182432D02*
X0058021Y0182432D01*
X0063243Y0180833D02*
X0067557Y0180833D01*
X0067557Y0179235D02*
X0063243Y0179235D01*
X0063243Y0177636D02*
X0067557Y0177636D01*
X0067557Y0176038D02*
X0063243Y0176038D01*
X0063243Y0174439D02*
X0067557Y0174439D01*
X0067557Y0169500D02*
X0063243Y0169500D01*
X0063243Y0162393D01*
X0063151Y0162301D01*
X0066353Y0159100D01*
X0074447Y0159100D01*
X0074847Y0159100D01*
X0072609Y0161339D01*
X0068611Y0161339D01*
X0067557Y0162393D01*
X0067557Y0169500D01*
X0067557Y0168045D02*
X0063243Y0168045D01*
X0063243Y0166447D02*
X0067557Y0166447D01*
X0067557Y0164848D02*
X0063243Y0164848D01*
X0063243Y0163250D02*
X0067557Y0163250D01*
X0068299Y0161651D02*
X0063802Y0161651D01*
X0065400Y0160053D02*
X0073895Y0160053D01*
X0074447Y0154500D02*
X0082347Y0146600D01*
X0033853Y0146600D01*
X0018151Y0162301D01*
X0018243Y0162393D01*
X0018243Y0170183D01*
X0017189Y0171238D01*
X0008611Y0171238D01*
X0007557Y0170183D01*
X0007557Y0162393D01*
X0008611Y0161339D01*
X0012609Y0161339D01*
X0030600Y0143347D01*
X0031547Y0142400D01*
X0007500Y0142400D01*
X0007500Y0196302D01*
X0009370Y0197077D01*
X0010600Y0195847D01*
X0010600Y0182261D01*
X0008611Y0182261D01*
X0007557Y0181207D01*
X0007557Y0173417D01*
X0008611Y0172362D01*
X0017189Y0172362D01*
X0018243Y0173417D01*
X0018243Y0181207D01*
X0017189Y0182261D01*
X0015200Y0182261D01*
X0015200Y0196344D01*
X0015306Y0196300D01*
X0017494Y0196300D01*
X0019370Y0197077D01*
X0019447Y0197000D01*
X0025600Y0197000D01*
X0025600Y0182261D01*
X0023611Y0182261D01*
X0022557Y0181207D01*
X0022557Y0173417D01*
X0023611Y0172362D01*
X0030210Y0172362D01*
X0029085Y0171238D01*
X0023611Y0171238D01*
X0022557Y0170183D01*
X0022557Y0162393D01*
X0023611Y0161339D01*
X0032189Y0161339D01*
X0033243Y0162393D01*
X0033243Y0168891D01*
X0033853Y0169500D01*
X0037557Y0169500D01*
X0037557Y0162393D01*
X0038611Y0161339D01*
X0047189Y0161339D01*
X0048243Y0162393D01*
X0048243Y0164219D01*
X0048502Y0163960D01*
X0049734Y0163450D01*
X0051066Y0163450D01*
X0052298Y0163960D01*
X0052557Y0164219D01*
X0052557Y0162393D01*
X0053611Y0161339D01*
X0057609Y0161339D01*
X0063100Y0155847D01*
X0064447Y0154500D01*
X0074447Y0154500D01*
X0075289Y0153659D02*
X0026794Y0153659D01*
X0025196Y0155257D02*
X0063690Y0155257D01*
X0062092Y0156856D02*
X0023597Y0156856D01*
X0021999Y0158454D02*
X0060493Y0158454D01*
X0058895Y0160053D02*
X0020400Y0160053D01*
X0018802Y0161651D02*
X0023299Y0161651D01*
X0022557Y0163250D02*
X0018243Y0163250D01*
X0018243Y0164848D02*
X0022557Y0164848D01*
X0022557Y0166447D02*
X0018243Y0166447D01*
X0018243Y0168045D02*
X0022557Y0168045D01*
X0022557Y0169644D02*
X0018243Y0169644D01*
X0017667Y0172841D02*
X0023133Y0172841D01*
X0022557Y0174439D02*
X0018243Y0174439D01*
X0018243Y0176038D02*
X0022557Y0176038D01*
X0022557Y0177636D02*
X0018243Y0177636D01*
X0018243Y0179235D02*
X0022557Y0179235D01*
X0022557Y0180833D02*
X0018243Y0180833D01*
X0015200Y0182432D02*
X0025600Y0182432D01*
X0025600Y0184030D02*
X0015200Y0184030D01*
X0015200Y0185629D02*
X0025600Y0185629D01*
X0025600Y0187227D02*
X0015200Y0187227D01*
X0015200Y0188826D02*
X0025600Y0188826D01*
X0025600Y0190424D02*
X0015200Y0190424D01*
X0015200Y0192023D02*
X0025600Y0192023D01*
X0025600Y0193621D02*
X0015200Y0193621D01*
X0015200Y0195220D02*
X0025600Y0195220D01*
X0025600Y0196818D02*
X0018745Y0196818D01*
X0021900Y0201600D02*
X0021900Y0202894D01*
X0021063Y0204915D01*
X0019778Y0206200D01*
X0029522Y0206200D01*
X0028237Y0204915D01*
X0027400Y0202894D01*
X0027400Y0201600D01*
X0021900Y0201600D01*
X0021900Y0201614D02*
X0027400Y0201614D01*
X0027532Y0203212D02*
X0021768Y0203212D01*
X0021106Y0204811D02*
X0028194Y0204811D01*
X0036278Y0206200D02*
X0039522Y0206200D01*
X0038237Y0204915D01*
X0037900Y0204101D01*
X0037563Y0204915D01*
X0036278Y0206200D01*
X0037606Y0204811D02*
X0038194Y0204811D01*
X0037900Y0199499D02*
X0038237Y0198684D01*
X0039784Y0197137D01*
X0040600Y0196800D01*
X0040600Y0194853D01*
X0037165Y0198287D01*
X0037563Y0198684D01*
X0037900Y0199499D01*
X0037295Y0198417D02*
X0038505Y0198417D01*
X0038634Y0196818D02*
X0040554Y0196818D01*
X0040600Y0195220D02*
X0040233Y0195220D01*
X0036924Y0192023D02*
X0030200Y0192023D01*
X0030200Y0193621D02*
X0035326Y0193621D01*
X0033727Y0195220D02*
X0030200Y0195220D01*
X0030200Y0196818D02*
X0030555Y0196818D01*
X0030200Y0196965D02*
X0031806Y0196300D01*
X0032647Y0196300D01*
X0040600Y0188347D01*
X0040600Y0182261D01*
X0038611Y0182261D01*
X0037557Y0181207D01*
X0037557Y0174100D01*
X0033243Y0174100D01*
X0033243Y0181207D01*
X0032189Y0182261D01*
X0030200Y0182261D01*
X0030200Y0196965D01*
X0030200Y0190424D02*
X0038523Y0190424D01*
X0040121Y0188826D02*
X0030200Y0188826D01*
X0030200Y0187227D02*
X0040600Y0187227D01*
X0040600Y0185629D02*
X0030200Y0185629D01*
X0030200Y0184030D02*
X0040600Y0184030D01*
X0040600Y0182432D02*
X0030200Y0182432D01*
X0033243Y0180833D02*
X0037557Y0180833D01*
X0037557Y0179235D02*
X0033243Y0179235D01*
X0033243Y0177636D02*
X0037557Y0177636D01*
X0037557Y0176038D02*
X0033243Y0176038D01*
X0033243Y0174439D02*
X0037557Y0174439D01*
X0037557Y0168045D02*
X0033243Y0168045D01*
X0033243Y0166447D02*
X0037557Y0166447D01*
X0037557Y0164848D02*
X0033243Y0164848D01*
X0033243Y0163250D02*
X0037557Y0163250D01*
X0038299Y0161651D02*
X0032501Y0161651D01*
X0028393Y0152060D02*
X0076887Y0152060D01*
X0078486Y0150462D02*
X0029991Y0150462D01*
X0031590Y0148863D02*
X0080084Y0148863D01*
X0081683Y0147265D02*
X0033188Y0147265D01*
X0029880Y0144068D02*
X0007500Y0144068D01*
X0007500Y0145666D02*
X0028281Y0145666D01*
X0026683Y0147265D02*
X0007500Y0147265D01*
X0007500Y0148863D02*
X0025084Y0148863D01*
X0023486Y0150462D02*
X0007500Y0150462D01*
X0007500Y0152060D02*
X0021887Y0152060D01*
X0020289Y0153659D02*
X0007500Y0153659D01*
X0007500Y0155257D02*
X0018690Y0155257D01*
X0017092Y0156856D02*
X0007500Y0156856D01*
X0007500Y0158454D02*
X0015493Y0158454D01*
X0013895Y0160053D02*
X0007500Y0160053D01*
X0007500Y0161651D02*
X0008299Y0161651D01*
X0007557Y0163250D02*
X0007500Y0163250D01*
X0007500Y0164848D02*
X0007557Y0164848D01*
X0007557Y0166447D02*
X0007500Y0166447D01*
X0007500Y0168045D02*
X0007557Y0168045D01*
X0007557Y0169644D02*
X0007500Y0169644D01*
X0007500Y0171242D02*
X0029090Y0171242D01*
X0045200Y0182261D02*
X0045200Y0188747D01*
X0052649Y0181299D01*
X0052557Y0181207D01*
X0052557Y0174100D01*
X0048243Y0174100D01*
X0048243Y0181207D01*
X0047189Y0182261D01*
X0045200Y0182261D01*
X0045200Y0182432D02*
X0051516Y0182432D01*
X0052557Y0180833D02*
X0048243Y0180833D01*
X0048243Y0179235D02*
X0052557Y0179235D01*
X0052557Y0177636D02*
X0048243Y0177636D01*
X0048243Y0176038D02*
X0052557Y0176038D01*
X0052557Y0174439D02*
X0048243Y0174439D01*
X0048243Y0169500D02*
X0048243Y0169381D01*
X0048362Y0169500D01*
X0048243Y0169500D01*
X0052438Y0169500D02*
X0052557Y0169500D01*
X0052557Y0169381D01*
X0052438Y0169500D01*
X0052557Y0163250D02*
X0048243Y0163250D01*
X0047501Y0161651D02*
X0053299Y0161651D01*
X0031478Y0142469D02*
X0007500Y0142469D01*
X0007500Y0172841D02*
X0008133Y0172841D01*
X0007557Y0174439D02*
X0007500Y0174439D01*
X0007500Y0176038D02*
X0007557Y0176038D01*
X0007557Y0177636D02*
X0007500Y0177636D01*
X0007500Y0179235D02*
X0007557Y0179235D01*
X0007557Y0180833D02*
X0007500Y0180833D01*
X0007500Y0182432D02*
X0010600Y0182432D01*
X0010600Y0184030D02*
X0007500Y0184030D01*
X0007500Y0185629D02*
X0010600Y0185629D01*
X0010600Y0187227D02*
X0007500Y0187227D01*
X0007500Y0188826D02*
X0010600Y0188826D01*
X0010600Y0190424D02*
X0007500Y0190424D01*
X0007500Y0192023D02*
X0010600Y0192023D01*
X0010600Y0193621D02*
X0007500Y0193621D01*
X0007500Y0195220D02*
X0010600Y0195220D01*
X0009629Y0196818D02*
X0008745Y0196818D01*
X0011400Y0204101D02*
X0011063Y0204915D01*
X0009778Y0206200D01*
X0013022Y0206200D01*
X0011737Y0204915D01*
X0011400Y0204101D01*
X0011106Y0204811D02*
X0011694Y0204811D01*
X0045200Y0187227D02*
X0046720Y0187227D01*
X0045200Y0185629D02*
X0048319Y0185629D01*
X0049917Y0184030D02*
X0045200Y0184030D01*
X0065245Y0196818D02*
X0067129Y0196818D01*
X0075233Y0195220D02*
X0076227Y0195220D01*
X0076831Y0193621D02*
X0077826Y0193621D01*
X0078430Y0192023D02*
X0079424Y0192023D01*
X0084718Y0196600D02*
X0086015Y0197137D01*
X0086413Y0197535D01*
X0087347Y0196600D01*
X0084718Y0196600D01*
X0085245Y0196818D02*
X0087129Y0196818D01*
X0087900Y0204101D02*
X0087563Y0204915D01*
X0086278Y0206200D01*
X0089522Y0206200D01*
X0088237Y0204915D01*
X0087900Y0204101D01*
X0087606Y0204811D02*
X0088194Y0204811D01*
X0079522Y0206200D02*
X0076278Y0206200D01*
X0077563Y0204915D01*
X0077900Y0204101D01*
X0078237Y0204915D01*
X0079522Y0206200D01*
X0078194Y0204811D02*
X0077606Y0204811D01*
X0069522Y0206200D02*
X0068237Y0204915D01*
X0067900Y0204101D01*
X0067563Y0204915D01*
X0066278Y0206200D01*
X0069522Y0206200D01*
X0068194Y0204811D02*
X0067606Y0204811D01*
X0059522Y0206200D02*
X0058237Y0204915D01*
X0057900Y0204101D01*
X0057563Y0204915D01*
X0056278Y0206200D01*
X0059522Y0206200D01*
X0058194Y0204811D02*
X0057606Y0204811D01*
X0049522Y0206200D02*
X0046278Y0206200D01*
X0047563Y0204915D01*
X0047900Y0204101D01*
X0048237Y0204915D01*
X0049522Y0206200D01*
X0048194Y0204811D02*
X0047606Y0204811D01*
X0094718Y0196600D02*
X0096015Y0197137D01*
X0097563Y0198684D01*
X0097900Y0199499D01*
X0098237Y0198684D01*
X0099784Y0197137D01*
X0101082Y0196600D01*
X0094718Y0196600D01*
X0095245Y0196818D02*
X0100555Y0196818D01*
X0098505Y0198417D02*
X0097295Y0198417D01*
X0097900Y0204101D02*
X0097563Y0204915D01*
X0096278Y0206200D01*
X0099522Y0206200D01*
X0098237Y0204915D01*
X0097900Y0204101D01*
X0097606Y0204811D02*
X0098194Y0204811D01*
X0107606Y0204811D02*
X0218194Y0204811D01*
X0217532Y0203212D02*
X0108268Y0203212D01*
X0108400Y0201614D02*
X0217400Y0201614D01*
X0217686Y0200015D02*
X0108114Y0200015D01*
X0107295Y0198417D02*
X0218505Y0198417D01*
X0220555Y0196818D02*
X0105245Y0196818D01*
X0105233Y0195220D02*
X0143067Y0195220D01*
X0127962Y0162000D02*
X0122850Y0162000D01*
X0122450Y0161600D01*
X0127962Y0161600D01*
X0128162Y0161800D01*
X0127962Y0162000D01*
X0128014Y0161651D02*
X0122501Y0161651D01*
X0131385Y0144068D02*
X0205895Y0144068D01*
X0209905Y0144068D02*
X0222380Y0144068D01*
X0220781Y0145666D02*
X0211056Y0145666D01*
X0211250Y0147265D02*
X0219183Y0147265D01*
X0217584Y0148863D02*
X0210575Y0148863D01*
X0205862Y0149500D02*
X0205462Y0149100D01*
X0086353Y0149100D01*
X0085953Y0149500D01*
X0205862Y0149500D01*
X0220953Y0152000D02*
X0222400Y0150553D01*
X0222400Y0153047D01*
X0221353Y0152000D01*
X0220953Y0152000D01*
X0221413Y0152060D02*
X0222400Y0152060D01*
X0232790Y0156856D02*
X0278010Y0156856D01*
X0278468Y0158454D02*
X0232332Y0158454D01*
X0233129Y0160053D02*
X0277671Y0160053D01*
X0277400Y0161651D02*
X0233400Y0161651D01*
X0233253Y0163250D02*
X0277547Y0163250D01*
X0278209Y0164848D02*
X0232591Y0164848D01*
X0233400Y0155257D02*
X0277400Y0155257D01*
X0277400Y0148863D02*
X0238075Y0148863D01*
X0238750Y0147265D02*
X0277490Y0147265D01*
X0287900Y0119500D02*
X0288100Y0119500D01*
X0288100Y0113618D01*
X0287563Y0114915D01*
X0286015Y0116463D01*
X0285201Y0116800D01*
X0286015Y0117137D01*
X0287563Y0118684D01*
X0287900Y0119500D01*
X0288100Y0118491D02*
X0287369Y0118491D01*
X0288100Y0116893D02*
X0285425Y0116893D01*
X0287184Y0115294D02*
X0288100Y0115294D01*
X0288068Y0113696D02*
X0288100Y0113696D01*
X0288100Y0109982D02*
X0288100Y0106546D01*
X0287346Y0107300D01*
X0286178Y0107300D01*
X0287563Y0108684D01*
X0288100Y0109982D01*
X0288100Y0108900D02*
X0287652Y0108900D01*
X0288100Y0107302D02*
X0286180Y0107302D01*
X0285874Y0086521D02*
X0297300Y0086521D01*
X0297300Y0084923D02*
X0287556Y0084923D01*
X0288222Y0083324D02*
X0297300Y0083324D01*
X0297300Y0081726D02*
X0288400Y0081726D01*
X0288160Y0080127D02*
X0297300Y0080127D01*
X0297300Y0078529D02*
X0287407Y0078529D01*
X0285515Y0076930D02*
X0297300Y0076930D01*
X0297300Y0075332D02*
X0287147Y0075332D01*
X0280599Y0076800D02*
X0279784Y0076463D01*
X0278237Y0074915D01*
X0277400Y0072894D01*
X0277400Y0070706D01*
X0278237Y0068684D01*
X0279784Y0067137D01*
X0280599Y0066800D01*
X0279784Y0066463D01*
X0278237Y0064915D01*
X0277400Y0062894D01*
X0277400Y0060706D01*
X0278237Y0058684D01*
X0279622Y0057300D01*
X0278454Y0057300D01*
X0277400Y0056246D01*
X0277400Y0054100D01*
X0233400Y0054100D01*
X0233400Y0056246D01*
X0232346Y0057300D01*
X0231178Y0057300D01*
X0232563Y0058684D01*
X0233400Y0060706D01*
X0233400Y0062894D01*
X0232563Y0064915D01*
X0231015Y0066463D01*
X0230201Y0066800D01*
X0231015Y0067137D01*
X0232563Y0068684D01*
X0233400Y0070706D01*
X0233400Y0072894D01*
X0232563Y0074915D01*
X0231015Y0076463D01*
X0230201Y0076800D01*
X0231015Y0077137D01*
X0232563Y0078684D01*
X0232900Y0079500D01*
X0277900Y0079500D01*
X0278237Y0078684D01*
X0279784Y0077137D01*
X0280599Y0076800D01*
X0280285Y0076930D02*
X0230515Y0076930D01*
X0232147Y0075332D02*
X0278653Y0075332D01*
X0277748Y0073733D02*
X0233052Y0073733D01*
X0233400Y0072134D02*
X0277400Y0072134D01*
X0277470Y0070536D02*
X0233330Y0070536D01*
X0232667Y0068937D02*
X0278133Y0068937D01*
X0279583Y0067339D02*
X0231217Y0067339D01*
X0231738Y0065740D02*
X0279062Y0065740D01*
X0277917Y0064142D02*
X0232883Y0064142D01*
X0233400Y0062543D02*
X0277400Y0062543D01*
X0277400Y0060945D02*
X0233400Y0060945D01*
X0232837Y0059346D02*
X0277963Y0059346D01*
X0279174Y0057748D02*
X0231626Y0057748D01*
X0233400Y0056149D02*
X0277400Y0056149D01*
X0277400Y0054551D02*
X0233400Y0054551D01*
X0233400Y0049500D02*
X0277400Y0049500D01*
X0277400Y0047354D01*
X0278154Y0046600D01*
X0232646Y0046600D01*
X0233400Y0047354D01*
X0233400Y0049500D01*
X0233400Y0048157D02*
X0277400Y0048157D01*
X0286178Y0057300D02*
X0287563Y0058684D01*
X0287900Y0059500D01*
X0288100Y0059500D01*
X0288100Y0056546D01*
X0287346Y0057300D01*
X0286178Y0057300D01*
X0286626Y0057748D02*
X0288100Y0057748D01*
X0288100Y0059346D02*
X0287837Y0059346D01*
X0295200Y0059346D02*
X0297300Y0059346D01*
X0297300Y0057748D02*
X0295200Y0057748D01*
X0295200Y0056149D02*
X0297300Y0056149D01*
X0297300Y0054551D02*
X0295200Y0054551D01*
X0295200Y0052952D02*
X0297300Y0052952D01*
X0297300Y0051354D02*
X0295200Y0051354D01*
X0295200Y0049755D02*
X0297300Y0049755D01*
X0297300Y0048157D02*
X0295200Y0048157D01*
X0295200Y0046558D02*
X0297300Y0046558D01*
X0297300Y0044960D02*
X0294312Y0044960D01*
X0292714Y0043361D02*
X0297300Y0043361D01*
X0297300Y0041763D02*
X0291115Y0041763D01*
X0289517Y0040164D02*
X0297300Y0040164D01*
X0297300Y0038566D02*
X0172918Y0038566D01*
X0171320Y0036967D02*
X0221003Y0036967D01*
X0218691Y0035369D02*
X0169721Y0035369D01*
X0168123Y0033770D02*
X0217763Y0033770D01*
X0217400Y0032172D02*
X0166524Y0032172D01*
X0164926Y0030573D02*
X0217455Y0030573D01*
X0218117Y0028975D02*
X0163327Y0028975D01*
X0161729Y0027376D02*
X0219546Y0027376D01*
X0224718Y0026600D02*
X0226015Y0027137D01*
X0227563Y0028684D01*
X0227900Y0029499D01*
X0228237Y0028684D01*
X0229784Y0027137D01*
X0230644Y0026781D01*
X0230462Y0026600D01*
X0224718Y0026600D01*
X0226254Y0027376D02*
X0229546Y0027376D01*
X0228117Y0028975D02*
X0227683Y0028975D01*
X0227109Y0035369D02*
X0228691Y0035369D01*
X0231003Y0036967D02*
X0224797Y0036967D01*
X0223154Y0046600D02*
X0177646Y0046600D01*
X0178400Y0047354D01*
X0178400Y0049500D01*
X0222400Y0049500D01*
X0222400Y0047354D01*
X0223154Y0046600D01*
X0222400Y0048157D02*
X0178400Y0048157D01*
X0178400Y0054100D02*
X0185862Y0054100D01*
X0185060Y0054902D01*
X0184550Y0056134D01*
X0184550Y0057466D01*
X0185060Y0058698D01*
X0186002Y0059640D01*
X0187234Y0060150D01*
X0187997Y0060150D01*
X0195600Y0067753D01*
X0196947Y0069100D01*
X0200862Y0069100D01*
X0200462Y0069500D01*
X0177900Y0069500D01*
X0177563Y0068684D01*
X0176015Y0067137D01*
X0175201Y0066800D01*
X0176015Y0066463D01*
X0177563Y0064915D01*
X0178400Y0062894D01*
X0178400Y0060706D01*
X0177563Y0058684D01*
X0176178Y0057300D01*
X0177346Y0057300D01*
X0178400Y0056246D01*
X0178400Y0054100D01*
X0178400Y0054551D02*
X0185412Y0054551D01*
X0184550Y0056149D02*
X0178400Y0056149D01*
X0176626Y0057748D02*
X0184667Y0057748D01*
X0185709Y0059346D02*
X0177837Y0059346D01*
X0178400Y0060945D02*
X0188792Y0060945D01*
X0190391Y0062543D02*
X0178400Y0062543D01*
X0177883Y0064142D02*
X0191989Y0064142D01*
X0193588Y0065740D02*
X0176738Y0065740D01*
X0176217Y0067339D02*
X0195186Y0067339D01*
X0196785Y0068937D02*
X0177667Y0068937D01*
X0177900Y0074100D02*
X0200462Y0074100D01*
X0201002Y0074640D01*
X0202234Y0075150D01*
X0203566Y0075150D01*
X0204798Y0074640D01*
X0205740Y0073698D01*
X0206250Y0072466D01*
X0206250Y0071134D01*
X0205740Y0069902D01*
X0204938Y0069100D01*
X0221947Y0069100D01*
X0222738Y0069890D01*
X0222400Y0070706D01*
X0222400Y0072894D01*
X0223237Y0074915D01*
X0224784Y0076463D01*
X0225599Y0076800D01*
X0224784Y0077137D01*
X0223237Y0078684D01*
X0222900Y0079500D01*
X0177900Y0079500D01*
X0177563Y0078684D01*
X0176015Y0077137D01*
X0175201Y0076800D01*
X0176015Y0076463D01*
X0177563Y0074915D01*
X0177900Y0074100D01*
X0177147Y0075332D02*
X0223653Y0075332D01*
X0222748Y0073733D02*
X0205705Y0073733D01*
X0206250Y0072134D02*
X0222400Y0072134D01*
X0222470Y0070536D02*
X0206002Y0070536D01*
X0198853Y0064500D02*
X0191250Y0056897D01*
X0191250Y0056134D01*
X0190740Y0054902D01*
X0189938Y0054100D01*
X0222400Y0054100D01*
X0222400Y0056246D01*
X0223454Y0057300D01*
X0224622Y0057300D01*
X0223237Y0058684D01*
X0222400Y0060706D01*
X0222400Y0062894D01*
X0223065Y0064500D01*
X0198853Y0064500D01*
X0198495Y0064142D02*
X0222917Y0064142D01*
X0222400Y0062543D02*
X0196896Y0062543D01*
X0195298Y0060945D02*
X0222400Y0060945D01*
X0222963Y0059346D02*
X0193699Y0059346D01*
X0192101Y0057748D02*
X0224174Y0057748D01*
X0222400Y0056149D02*
X0191250Y0056149D01*
X0190388Y0054551D02*
X0222400Y0054551D01*
X0234797Y0036967D02*
X0297300Y0036967D01*
X0297300Y0035369D02*
X0237109Y0035369D01*
X0238037Y0033770D02*
X0297300Y0033770D01*
X0297300Y0032172D02*
X0238400Y0032172D01*
X0238345Y0030573D02*
X0297300Y0030573D01*
X0297300Y0028975D02*
X0237683Y0028975D01*
X0236254Y0027376D02*
X0297300Y0027376D01*
X0297300Y0025778D02*
X0235914Y0025778D01*
X0236250Y0024179D02*
X0297300Y0024179D01*
X0297300Y0022581D02*
X0235814Y0022581D01*
X0233644Y0020982D02*
X0297300Y0020982D01*
X0297300Y0019384D02*
X0173736Y0019384D01*
X0175335Y0020982D02*
X0232156Y0020982D01*
X0217698Y0014588D02*
X0297300Y0014588D01*
X0297300Y0012990D02*
X0218360Y0012990D01*
X0218400Y0011391D02*
X0297300Y0011391D01*
X0297300Y0009793D02*
X0218022Y0009793D01*
X0217072Y0008194D02*
X0297300Y0008194D01*
X0297300Y0016187D02*
X0216292Y0016187D01*
X0209508Y0016187D02*
X0206292Y0016187D01*
X0207698Y0014588D02*
X0208102Y0014588D01*
X0207900Y0009499D02*
X0208237Y0008684D01*
X0209522Y0007400D01*
X0206278Y0007400D01*
X0207563Y0008684D01*
X0207900Y0009499D01*
X0207072Y0008194D02*
X0208728Y0008194D01*
X0199522Y0007400D02*
X0196278Y0007400D01*
X0197563Y0008684D01*
X0197900Y0009499D01*
X0198237Y0008684D01*
X0199522Y0007400D01*
X0198728Y0008194D02*
X0197072Y0008194D01*
X0189522Y0007400D02*
X0186278Y0007400D01*
X0187563Y0008684D01*
X0187900Y0009499D01*
X0188237Y0008684D01*
X0189522Y0007400D01*
X0188728Y0008194D02*
X0187072Y0008194D01*
X0187698Y0014588D02*
X0188102Y0014588D01*
X0189508Y0016187D02*
X0186292Y0016187D01*
X0179508Y0016187D02*
X0176292Y0016187D01*
X0177698Y0014588D02*
X0178102Y0014588D01*
X0177900Y0009499D02*
X0178237Y0008684D01*
X0179522Y0007400D01*
X0176278Y0007400D01*
X0177563Y0008684D01*
X0177900Y0009499D01*
X0177072Y0008194D02*
X0178728Y0008194D01*
X0169522Y0007400D02*
X0166278Y0007400D01*
X0167563Y0008684D01*
X0167900Y0009499D01*
X0168237Y0008684D01*
X0169522Y0007400D01*
X0168728Y0008194D02*
X0167072Y0008194D01*
X0159522Y0007400D02*
X0156278Y0007400D01*
X0157563Y0008684D01*
X0157900Y0009499D01*
X0158237Y0008684D01*
X0159522Y0007400D01*
X0158728Y0008194D02*
X0157072Y0008194D01*
X0149522Y0007400D02*
X0146278Y0007400D01*
X0147563Y0008684D01*
X0147900Y0009499D01*
X0148237Y0008684D01*
X0149522Y0007400D01*
X0148728Y0008194D02*
X0147072Y0008194D01*
X0157698Y0014588D02*
X0158102Y0014588D01*
X0159508Y0016187D02*
X0156292Y0016187D01*
X0153736Y0019384D02*
X0167231Y0019384D01*
X0168829Y0020982D02*
X0155335Y0020982D01*
X0156933Y0022581D02*
X0170428Y0022581D01*
X0172026Y0024179D02*
X0158532Y0024179D01*
X0160130Y0025778D02*
X0173625Y0025778D01*
X0172138Y0017785D02*
X0297300Y0017785D01*
X0297300Y0060945D02*
X0295200Y0060945D01*
X0295200Y0062543D02*
X0297300Y0062543D01*
X0297300Y0064142D02*
X0295200Y0064142D01*
X0295200Y0065740D02*
X0297300Y0065740D01*
X0297300Y0067339D02*
X0295200Y0067339D01*
X0295200Y0068937D02*
X0297300Y0068937D01*
X0297300Y0070536D02*
X0295200Y0070536D01*
X0295200Y0072134D02*
X0297300Y0072134D01*
X0297300Y0073733D02*
X0294220Y0073733D01*
X0290600Y0069500D02*
X0287900Y0069500D01*
X0287563Y0068684D01*
X0286015Y0067137D01*
X0285201Y0066800D01*
X0286015Y0066463D01*
X0287563Y0064915D01*
X0287900Y0064100D01*
X0290600Y0064100D01*
X0290600Y0069500D01*
X0290600Y0068937D02*
X0287667Y0068937D01*
X0286217Y0067339D02*
X0290600Y0067339D01*
X0290600Y0065740D02*
X0286738Y0065740D01*
X0287883Y0064142D02*
X0290600Y0064142D01*
X0278393Y0078529D02*
X0232407Y0078529D01*
X0232556Y0084923D02*
X0278244Y0084923D01*
X0279926Y0086521D02*
X0230874Y0086521D01*
X0223393Y0078529D02*
X0177407Y0078529D01*
X0175515Y0076930D02*
X0225285Y0076930D01*
X0170599Y0076800D02*
X0169784Y0076463D01*
X0168237Y0074915D01*
X0167700Y0073618D01*
X0167700Y0079982D01*
X0168237Y0078684D01*
X0169784Y0077137D01*
X0170599Y0076800D01*
X0170285Y0076930D02*
X0167700Y0076930D01*
X0167700Y0075332D02*
X0168653Y0075332D01*
X0167748Y0073733D02*
X0167700Y0073733D01*
X0167700Y0069982D02*
X0168237Y0068684D01*
X0169784Y0067137D01*
X0170599Y0066800D01*
X0169784Y0066463D01*
X0168237Y0064915D01*
X0167700Y0063618D01*
X0167700Y0069982D01*
X0167700Y0068937D02*
X0168133Y0068937D01*
X0167700Y0067339D02*
X0169583Y0067339D01*
X0169062Y0065740D02*
X0167700Y0065740D01*
X0167700Y0064142D02*
X0167917Y0064142D01*
X0167700Y0059982D02*
X0168237Y0058684D01*
X0169622Y0057300D01*
X0168454Y0057300D01*
X0167700Y0056546D01*
X0167700Y0059982D01*
X0167700Y0059346D02*
X0167963Y0059346D01*
X0167700Y0057748D02*
X0169174Y0057748D01*
X0167700Y0047054D02*
X0167700Y0046600D01*
X0168154Y0046600D01*
X0167700Y0047054D01*
X0165632Y0017785D02*
X0152138Y0017785D01*
X0196292Y0016187D02*
X0199508Y0016187D01*
X0198102Y0014588D02*
X0197698Y0014588D01*
X0168393Y0078529D02*
X0167700Y0078529D01*
X0167700Y0084923D02*
X0168244Y0084923D01*
X0167700Y0086521D02*
X0169926Y0086521D01*
X0169620Y0107302D02*
X0167700Y0107302D01*
X0168148Y0108900D02*
X0166552Y0108900D01*
X0167486Y0110499D02*
X0164954Y0110499D01*
X0163355Y0112097D02*
X0167400Y0112097D01*
X0167732Y0113696D02*
X0161757Y0113696D01*
X0160158Y0115294D02*
X0168616Y0115294D01*
X0170375Y0116893D02*
X0158560Y0116893D01*
X0156961Y0118491D02*
X0168430Y0118491D01*
X0167655Y0120090D02*
X0155363Y0120090D01*
X0153764Y0121688D02*
X0167400Y0121688D01*
X0167563Y0123287D02*
X0152166Y0123287D01*
X0150567Y0124885D02*
X0168225Y0124885D01*
X0169836Y0126484D02*
X0148969Y0126484D01*
X0147370Y0128082D02*
X0168839Y0128082D01*
X0167825Y0129681D02*
X0145772Y0129681D01*
X0144173Y0131279D02*
X0167400Y0131279D01*
X0167400Y0132878D02*
X0142575Y0132878D01*
X0140976Y0134476D02*
X0168055Y0134476D01*
X0169397Y0136075D02*
X0139378Y0136075D01*
X0132984Y0142469D02*
X0223978Y0142469D01*
X0206595Y0124885D02*
X0177575Y0124885D01*
X0219489Y0177636D02*
X0224286Y0177636D01*
X0223009Y0179235D02*
X0221087Y0179235D01*
X0229718Y0187000D02*
X0280462Y0187000D01*
X0280644Y0186819D01*
X0279784Y0186463D01*
X0278237Y0184915D01*
X0277900Y0184100D01*
X0232900Y0184100D01*
X0232563Y0184915D01*
X0231015Y0186463D01*
X0229718Y0187000D01*
X0231849Y0185629D02*
X0278951Y0185629D01*
X0297300Y0196818D02*
X0235245Y0196818D01*
X0237295Y0198417D02*
X0297300Y0198417D01*
X0297300Y0200015D02*
X0238114Y0200015D01*
X0238400Y0201614D02*
X0297300Y0201614D01*
X0297300Y0203212D02*
X0238268Y0203212D01*
X0237606Y0204811D02*
X0297300Y0204811D01*
X0231082Y0196600D02*
X0224718Y0196600D01*
X0226015Y0197137D01*
X0227563Y0198684D01*
X0227900Y0199499D01*
X0228237Y0198684D01*
X0229784Y0197137D01*
X0231082Y0196600D01*
X0230555Y0196818D02*
X0225245Y0196818D01*
X0227295Y0198417D02*
X0228505Y0198417D01*
X0227900Y0204101D02*
X0227563Y0204915D01*
X0226278Y0206200D01*
X0229522Y0206200D01*
X0228237Y0204915D01*
X0227900Y0204101D01*
X0227606Y0204811D02*
X0228194Y0204811D01*
M02*
