G75*
%MOIN*%
%OFA0B0*%
%FSLAX25Y25*%
%IPPOS*%
%LPD*%
%AMOC8*
5,1,8,0,0,1.08239X$1,22.5*
%
%ADD10R,0.07400X0.07400*%
%ADD11C,0.07400*%
%ADD12C,0.01000*%
%ADD13C,0.03100*%
%ADD14C,0.01600*%
D10*
X0172900Y0051800D03*
X0227900Y0051800D03*
X0282900Y0051800D03*
X0282900Y0101800D03*
X0227900Y0101800D03*
X0172900Y0101800D03*
X0227900Y0151800D03*
X0282900Y0151800D03*
D11*
X0282900Y0161800D03*
X0282900Y0171800D03*
X0282900Y0181800D03*
X0232900Y0201800D03*
X0222900Y0201800D03*
X0227900Y0181800D03*
X0227900Y0171800D03*
X0227900Y0161800D03*
X0227900Y0131800D03*
X0227900Y0121800D03*
X0227900Y0111800D03*
X0227900Y0081800D03*
X0227900Y0071800D03*
X0227900Y0061800D03*
X0222900Y0031800D03*
X0232900Y0031800D03*
X0212900Y0011800D03*
X0202900Y0011800D03*
X0192900Y0011800D03*
X0182900Y0011800D03*
X0172900Y0011800D03*
X0162900Y0011800D03*
X0152900Y0011800D03*
X0142900Y0011800D03*
X0172900Y0061800D03*
X0172900Y0071800D03*
X0172900Y0081800D03*
X0172900Y0111800D03*
X0172900Y0121800D03*
X0172900Y0131800D03*
X0102900Y0201800D03*
X0092900Y0201800D03*
X0082900Y0201800D03*
X0072900Y0201800D03*
X0062900Y0201800D03*
X0052900Y0201800D03*
X0042900Y0201800D03*
X0032900Y0201800D03*
X0016400Y0201800D03*
X0006400Y0201800D03*
X0282900Y0131800D03*
X0282900Y0121800D03*
X0282900Y0111800D03*
X0282900Y0081800D03*
X0282900Y0071800D03*
X0282900Y0061800D03*
D12*
X0275400Y0066800D02*
X0275400Y0164300D01*
X0282900Y0171800D01*
X0292900Y0179300D02*
X0292900Y0121800D01*
X0282900Y0111800D01*
X0235400Y0119300D02*
X0227900Y0111800D01*
X0220400Y0109300D02*
X0227900Y0101800D01*
X0235400Y0094300D01*
X0235400Y0059300D01*
X0227900Y0051800D01*
X0227900Y0036800D01*
X0222900Y0031800D01*
X0232900Y0024300D02*
X0275400Y0066800D01*
X0227900Y0061800D02*
X0217900Y0071800D01*
X0217900Y0136800D01*
X0207900Y0146800D01*
X0197900Y0141800D02*
X0227900Y0171800D01*
X0227900Y0181800D02*
X0225400Y0184300D01*
X0180400Y0139300D01*
X0180400Y0089300D01*
X0172900Y0081800D01*
X0182900Y0086800D02*
X0182900Y0041800D01*
X0152900Y0011800D01*
X0172900Y0011800D02*
X0187900Y0026800D01*
X0187900Y0056800D01*
X0172900Y0061800D02*
X0162900Y0071800D01*
X0162900Y0126800D01*
X0130400Y0159300D01*
X0130400Y0164300D02*
X0165400Y0129300D01*
X0165400Y0119300D01*
X0172900Y0111800D01*
X0192900Y0106800D02*
X0192900Y0021800D01*
X0182900Y0011800D01*
X0192900Y0011800D02*
X0197900Y0016800D01*
X0197900Y0141800D01*
X0180400Y0139300D02*
X0172900Y0131800D01*
X0207900Y0121800D02*
X0207900Y0016800D01*
X0212900Y0011800D01*
X0202900Y0011800D02*
X0202900Y0071800D01*
X0220400Y0109300D02*
X0220400Y0144300D01*
X0227900Y0151800D01*
X0235400Y0146800D02*
X0235400Y0119300D01*
X0292900Y0179300D02*
X0282900Y0189300D01*
X0225400Y0184300D02*
X0222900Y0186800D01*
X0222900Y0201800D01*
X0127900Y0176800D02*
X0127900Y0166800D01*
X0050400Y0166800D01*
D13*
X0050400Y0166800D03*
X0127900Y0176800D03*
X0130400Y0164300D03*
X0130400Y0159300D03*
X0192900Y0106800D03*
X0207900Y0121800D03*
X0207900Y0146800D03*
X0235400Y0146800D03*
X0282900Y0189300D03*
X0182900Y0086800D03*
X0202900Y0071800D03*
X0187900Y0056800D03*
X0232900Y0024300D03*
D14*
X0133500Y0007400D02*
X0133500Y0137914D01*
X0132647Y0139972D01*
X0131072Y0141547D01*
X0129014Y0142400D01*
X0007500Y0142400D01*
X0007500Y0196302D01*
X0009515Y0197137D01*
X0011063Y0198684D01*
X0011400Y0199499D01*
X0011737Y0198684D01*
X0013284Y0197137D01*
X0015306Y0196300D01*
X0017494Y0196300D01*
X0019515Y0197137D01*
X0021063Y0198684D01*
X0021900Y0200706D01*
X0021900Y0202894D01*
X0021063Y0204915D01*
X0019778Y0206200D01*
X0029522Y0206200D01*
X0028237Y0204915D01*
X0027400Y0202894D01*
X0027400Y0200706D01*
X0028237Y0198684D01*
X0029784Y0197137D01*
X0031806Y0196300D01*
X0033994Y0196300D01*
X0036015Y0197137D01*
X0037563Y0198684D01*
X0037900Y0199499D01*
X0038237Y0198684D01*
X0039784Y0197137D01*
X0041806Y0196300D01*
X0043994Y0196300D01*
X0046015Y0197137D01*
X0047563Y0198684D01*
X0047900Y0199499D01*
X0048237Y0198684D01*
X0049784Y0197137D01*
X0051806Y0196300D01*
X0053994Y0196300D01*
X0056015Y0197137D01*
X0057563Y0198684D01*
X0057900Y0199499D01*
X0058237Y0198684D01*
X0059784Y0197137D01*
X0061806Y0196300D01*
X0063994Y0196300D01*
X0066015Y0197137D01*
X0067563Y0198684D01*
X0067900Y0199499D01*
X0068237Y0198684D01*
X0069784Y0197137D01*
X0071806Y0196300D01*
X0073994Y0196300D01*
X0076015Y0197137D01*
X0077563Y0198684D01*
X0077900Y0199499D01*
X0078237Y0198684D01*
X0079784Y0197137D01*
X0081806Y0196300D01*
X0083994Y0196300D01*
X0086015Y0197137D01*
X0087563Y0198684D01*
X0087900Y0199499D01*
X0088237Y0198684D01*
X0089784Y0197137D01*
X0091806Y0196300D01*
X0093994Y0196300D01*
X0096015Y0197137D01*
X0097563Y0198684D01*
X0097900Y0199499D01*
X0098237Y0198684D01*
X0099784Y0197137D01*
X0101806Y0196300D01*
X0103994Y0196300D01*
X0106015Y0197137D01*
X0107563Y0198684D01*
X0108400Y0200706D01*
X0108400Y0202894D01*
X0107563Y0204915D01*
X0106278Y0206200D01*
X0219522Y0206200D01*
X0218237Y0204915D01*
X0217400Y0202894D01*
X0217400Y0200706D01*
X0218237Y0198684D01*
X0219784Y0197137D01*
X0220600Y0196800D01*
X0220600Y0185847D01*
X0221947Y0184500D01*
X0222147Y0184300D01*
X0179447Y0141600D01*
X0178100Y0140253D01*
X0174810Y0136962D01*
X0173994Y0137300D01*
X0171806Y0137300D01*
X0169784Y0136463D01*
X0168237Y0134915D01*
X0167400Y0132894D01*
X0167400Y0130706D01*
X0167508Y0130444D01*
X0166353Y0131600D01*
X0133750Y0164203D01*
X0133750Y0164966D01*
X0133240Y0166198D01*
X0132298Y0167140D01*
X0131066Y0167650D01*
X0130200Y0167650D01*
X0130200Y0174362D01*
X0130740Y0174902D01*
X0131250Y0176134D01*
X0131250Y0177466D01*
X0130740Y0178698D01*
X0129798Y0179640D01*
X0128566Y0180150D01*
X0127234Y0180150D01*
X0126002Y0179640D01*
X0125060Y0178698D01*
X0124550Y0177466D01*
X0124550Y0176134D01*
X0125060Y0174902D01*
X0125600Y0174362D01*
X0125600Y0169100D01*
X0052838Y0169100D01*
X0052298Y0169640D01*
X0051066Y0170150D01*
X0049734Y0170150D01*
X0048502Y0169640D01*
X0047560Y0168698D01*
X0047050Y0167466D01*
X0047050Y0166134D01*
X0047560Y0164902D01*
X0048502Y0163960D01*
X0049734Y0163450D01*
X0051066Y0163450D01*
X0052298Y0163960D01*
X0052838Y0164500D01*
X0126947Y0164500D01*
X0127050Y0164500D01*
X0127050Y0163634D01*
X0127560Y0162402D01*
X0128162Y0161800D01*
X0127560Y0161198D01*
X0127050Y0159966D01*
X0127050Y0158634D01*
X0127560Y0157402D01*
X0128502Y0156460D01*
X0129734Y0155950D01*
X0130497Y0155950D01*
X0160600Y0125847D01*
X0160600Y0070847D01*
X0167738Y0063710D01*
X0167400Y0062894D01*
X0167400Y0060706D01*
X0168237Y0058684D01*
X0169622Y0057300D01*
X0168454Y0057300D01*
X0167400Y0056246D01*
X0167400Y0047354D01*
X0168454Y0046300D01*
X0177346Y0046300D01*
X0178400Y0047354D01*
X0178400Y0056246D01*
X0177346Y0057300D01*
X0176178Y0057300D01*
X0177563Y0058684D01*
X0178400Y0060706D01*
X0178400Y0062894D01*
X0177563Y0064915D01*
X0176015Y0066463D01*
X0175201Y0066800D01*
X0176015Y0067137D01*
X0177563Y0068684D01*
X0178400Y0070706D01*
X0178400Y0072894D01*
X0177563Y0074915D01*
X0176015Y0076463D01*
X0175201Y0076800D01*
X0176015Y0077137D01*
X0177563Y0078684D01*
X0178400Y0080706D01*
X0178400Y0082894D01*
X0178062Y0083710D01*
X0179824Y0085472D01*
X0180060Y0084902D01*
X0180600Y0084362D01*
X0180600Y0042753D01*
X0154810Y0016962D01*
X0153994Y0017300D01*
X0151806Y0017300D01*
X0149784Y0016463D01*
X0148237Y0014915D01*
X0147900Y0014101D01*
X0147563Y0014915D01*
X0146015Y0016463D01*
X0143994Y0017300D01*
X0141806Y0017300D01*
X0139784Y0016463D01*
X0138237Y0014915D01*
X0137400Y0012894D01*
X0137400Y0010706D01*
X0138237Y0008684D01*
X0139522Y0007400D01*
X0133500Y0007400D01*
X0133500Y0008194D02*
X0138728Y0008194D01*
X0137778Y0009793D02*
X0133500Y0009793D01*
X0133500Y0011391D02*
X0137400Y0011391D01*
X0137440Y0012990D02*
X0133500Y0012990D01*
X0133500Y0014588D02*
X0138102Y0014588D01*
X0139508Y0016187D02*
X0133500Y0016187D01*
X0133500Y0017785D02*
X0155632Y0017785D01*
X0157231Y0019384D02*
X0133500Y0019384D01*
X0133500Y0020982D02*
X0158829Y0020982D01*
X0160428Y0022581D02*
X0133500Y0022581D01*
X0133500Y0024179D02*
X0162026Y0024179D01*
X0163625Y0025778D02*
X0133500Y0025778D01*
X0133500Y0027376D02*
X0165223Y0027376D01*
X0166822Y0028975D02*
X0133500Y0028975D01*
X0133500Y0030573D02*
X0168421Y0030573D01*
X0170019Y0032172D02*
X0133500Y0032172D01*
X0133500Y0033770D02*
X0171618Y0033770D01*
X0173216Y0035369D02*
X0133500Y0035369D01*
X0133500Y0036967D02*
X0174815Y0036967D01*
X0176413Y0038566D02*
X0133500Y0038566D01*
X0133500Y0040164D02*
X0178012Y0040164D01*
X0179610Y0041763D02*
X0133500Y0041763D01*
X0133500Y0043361D02*
X0180600Y0043361D01*
X0180600Y0044960D02*
X0133500Y0044960D01*
X0133500Y0046558D02*
X0168196Y0046558D01*
X0167400Y0048157D02*
X0133500Y0048157D01*
X0133500Y0049755D02*
X0167400Y0049755D01*
X0167400Y0051354D02*
X0133500Y0051354D01*
X0133500Y0052952D02*
X0167400Y0052952D01*
X0167400Y0054551D02*
X0133500Y0054551D01*
X0133500Y0056149D02*
X0167400Y0056149D01*
X0169174Y0057748D02*
X0133500Y0057748D01*
X0133500Y0059346D02*
X0167963Y0059346D01*
X0167400Y0060945D02*
X0133500Y0060945D01*
X0133500Y0062543D02*
X0167400Y0062543D01*
X0167305Y0064142D02*
X0133500Y0064142D01*
X0133500Y0065740D02*
X0165707Y0065740D01*
X0164108Y0067339D02*
X0133500Y0067339D01*
X0133500Y0068937D02*
X0162510Y0068937D01*
X0160911Y0070536D02*
X0133500Y0070536D01*
X0133500Y0072134D02*
X0160600Y0072134D01*
X0160600Y0073733D02*
X0133500Y0073733D01*
X0133500Y0075332D02*
X0160600Y0075332D01*
X0160600Y0076930D02*
X0133500Y0076930D01*
X0133500Y0078529D02*
X0160600Y0078529D01*
X0160600Y0080127D02*
X0133500Y0080127D01*
X0133500Y0081726D02*
X0160600Y0081726D01*
X0160600Y0083324D02*
X0133500Y0083324D01*
X0133500Y0084923D02*
X0160600Y0084923D01*
X0160600Y0086521D02*
X0133500Y0086521D01*
X0133500Y0088120D02*
X0160600Y0088120D01*
X0160600Y0089718D02*
X0133500Y0089718D01*
X0133500Y0091317D02*
X0160600Y0091317D01*
X0160600Y0092915D02*
X0133500Y0092915D01*
X0133500Y0094514D02*
X0160600Y0094514D01*
X0160600Y0096112D02*
X0133500Y0096112D01*
X0133500Y0097711D02*
X0160600Y0097711D01*
X0160600Y0099309D02*
X0133500Y0099309D01*
X0133500Y0100908D02*
X0160600Y0100908D01*
X0160600Y0102506D02*
X0133500Y0102506D01*
X0133500Y0104105D02*
X0160600Y0104105D01*
X0160600Y0105703D02*
X0133500Y0105703D01*
X0133500Y0107302D02*
X0160600Y0107302D01*
X0160600Y0108900D02*
X0133500Y0108900D01*
X0133500Y0110499D02*
X0160600Y0110499D01*
X0160600Y0112097D02*
X0133500Y0112097D01*
X0133500Y0113696D02*
X0160600Y0113696D01*
X0160600Y0115294D02*
X0133500Y0115294D01*
X0133500Y0116893D02*
X0160600Y0116893D01*
X0160600Y0118491D02*
X0133500Y0118491D01*
X0133500Y0120090D02*
X0160600Y0120090D01*
X0160600Y0121688D02*
X0133500Y0121688D01*
X0133500Y0123287D02*
X0160600Y0123287D01*
X0160600Y0124885D02*
X0133500Y0124885D01*
X0133500Y0126484D02*
X0159963Y0126484D01*
X0158365Y0128082D02*
X0133500Y0128082D01*
X0133500Y0129681D02*
X0156766Y0129681D01*
X0155168Y0131279D02*
X0133500Y0131279D01*
X0133500Y0132878D02*
X0153569Y0132878D01*
X0151971Y0134476D02*
X0133500Y0134476D01*
X0133500Y0136075D02*
X0150372Y0136075D01*
X0148774Y0137673D02*
X0133500Y0137673D01*
X0132937Y0139272D02*
X0147175Y0139272D01*
X0145577Y0140870D02*
X0131749Y0140870D01*
X0139183Y0147265D02*
X0007500Y0147265D01*
X0007500Y0148863D02*
X0137584Y0148863D01*
X0135986Y0150462D02*
X0007500Y0150462D01*
X0007500Y0152060D02*
X0134387Y0152060D01*
X0132789Y0153659D02*
X0007500Y0153659D01*
X0007500Y0155257D02*
X0131190Y0155257D01*
X0128107Y0156856D02*
X0007500Y0156856D01*
X0007500Y0158454D02*
X0127124Y0158454D01*
X0127086Y0160053D02*
X0007500Y0160053D01*
X0007500Y0161651D02*
X0128014Y0161651D01*
X0127209Y0163250D02*
X0007500Y0163250D01*
X0007500Y0164848D02*
X0047614Y0164848D01*
X0047050Y0166447D02*
X0007500Y0166447D01*
X0007500Y0168045D02*
X0047290Y0168045D01*
X0048511Y0169644D02*
X0007500Y0169644D01*
X0007500Y0171242D02*
X0125600Y0171242D01*
X0125600Y0169644D02*
X0052289Y0169644D01*
X0050554Y0196818D02*
X0045245Y0196818D01*
X0047295Y0198417D02*
X0048505Y0198417D01*
X0040554Y0196818D02*
X0035245Y0196818D01*
X0037295Y0198417D02*
X0038505Y0198417D01*
X0030554Y0196818D02*
X0018745Y0196818D01*
X0020795Y0198417D02*
X0028505Y0198417D01*
X0027686Y0200015D02*
X0021614Y0200015D01*
X0021900Y0201614D02*
X0027400Y0201614D01*
X0027532Y0203212D02*
X0021768Y0203212D01*
X0021106Y0204811D02*
X0028194Y0204811D01*
X0036278Y0206200D02*
X0039522Y0206200D01*
X0038237Y0204915D01*
X0037900Y0204101D01*
X0037563Y0204915D01*
X0036278Y0206200D01*
X0037606Y0204811D02*
X0038194Y0204811D01*
X0046278Y0206200D02*
X0047563Y0204915D01*
X0047900Y0204101D01*
X0048237Y0204915D01*
X0049522Y0206200D01*
X0046278Y0206200D01*
X0047606Y0204811D02*
X0048194Y0204811D01*
X0056278Y0206200D02*
X0057563Y0204915D01*
X0057900Y0204101D01*
X0058237Y0204915D01*
X0059522Y0206200D01*
X0056278Y0206200D01*
X0057606Y0204811D02*
X0058194Y0204811D01*
X0066278Y0206200D02*
X0069522Y0206200D01*
X0068237Y0204915D01*
X0067900Y0204101D01*
X0067563Y0204915D01*
X0066278Y0206200D01*
X0067606Y0204811D02*
X0068194Y0204811D01*
X0068505Y0198417D02*
X0067295Y0198417D01*
X0065245Y0196818D02*
X0070554Y0196818D01*
X0075245Y0196818D02*
X0080554Y0196818D01*
X0078505Y0198417D02*
X0077295Y0198417D01*
X0085245Y0196818D02*
X0090554Y0196818D01*
X0088505Y0198417D02*
X0087295Y0198417D01*
X0087900Y0204101D02*
X0087563Y0204915D01*
X0086278Y0206200D01*
X0089522Y0206200D01*
X0088237Y0204915D01*
X0087900Y0204101D01*
X0087606Y0204811D02*
X0088194Y0204811D01*
X0079522Y0206200D02*
X0076278Y0206200D01*
X0077563Y0204915D01*
X0077900Y0204101D01*
X0078237Y0204915D01*
X0079522Y0206200D01*
X0078194Y0204811D02*
X0077606Y0204811D01*
X0096278Y0206200D02*
X0099522Y0206200D01*
X0098237Y0204915D01*
X0097900Y0204101D01*
X0097563Y0204915D01*
X0096278Y0206200D01*
X0097606Y0204811D02*
X0098194Y0204811D01*
X0098505Y0198417D02*
X0097295Y0198417D01*
X0095245Y0196818D02*
X0100554Y0196818D01*
X0105245Y0196818D02*
X0220554Y0196818D01*
X0220600Y0195220D02*
X0007500Y0195220D01*
X0007500Y0193621D02*
X0220600Y0193621D01*
X0220600Y0192023D02*
X0007500Y0192023D01*
X0007500Y0190424D02*
X0220600Y0190424D01*
X0220600Y0188826D02*
X0007500Y0188826D01*
X0007500Y0187227D02*
X0220600Y0187227D01*
X0220819Y0185629D02*
X0007500Y0185629D01*
X0007500Y0184030D02*
X0221878Y0184030D01*
X0220279Y0182432D02*
X0007500Y0182432D01*
X0007500Y0180833D02*
X0218681Y0180833D01*
X0217082Y0179235D02*
X0130203Y0179235D01*
X0131180Y0177636D02*
X0215484Y0177636D01*
X0213885Y0176038D02*
X0131210Y0176038D01*
X0130277Y0174439D02*
X0212287Y0174439D01*
X0210688Y0172841D02*
X0130200Y0172841D01*
X0130200Y0171242D02*
X0209090Y0171242D01*
X0207491Y0169644D02*
X0130200Y0169644D01*
X0130200Y0168045D02*
X0205892Y0168045D01*
X0204294Y0166447D02*
X0132991Y0166447D01*
X0133750Y0164848D02*
X0202695Y0164848D01*
X0201097Y0163250D02*
X0134703Y0163250D01*
X0136302Y0161651D02*
X0199498Y0161651D01*
X0197900Y0160053D02*
X0137900Y0160053D01*
X0139499Y0158454D02*
X0196301Y0158454D01*
X0194703Y0156856D02*
X0141097Y0156856D01*
X0142696Y0155257D02*
X0193104Y0155257D01*
X0191506Y0153659D02*
X0144294Y0153659D01*
X0145893Y0152060D02*
X0189907Y0152060D01*
X0188309Y0150462D02*
X0147491Y0150462D01*
X0149090Y0148863D02*
X0186710Y0148863D01*
X0185112Y0147265D02*
X0150688Y0147265D01*
X0152287Y0145666D02*
X0183513Y0145666D01*
X0181915Y0144068D02*
X0153885Y0144068D01*
X0155484Y0142469D02*
X0180316Y0142469D01*
X0178718Y0140870D02*
X0157082Y0140870D01*
X0158681Y0139272D02*
X0177119Y0139272D01*
X0175521Y0137673D02*
X0160279Y0137673D01*
X0161878Y0136075D02*
X0169397Y0136075D01*
X0168055Y0134476D02*
X0163476Y0134476D01*
X0165075Y0132878D02*
X0167400Y0132878D01*
X0167400Y0131279D02*
X0166673Y0131279D01*
X0167700Y0129982D02*
X0168237Y0128684D01*
X0169784Y0127137D01*
X0170599Y0126800D01*
X0169784Y0126463D01*
X0168237Y0124915D01*
X0167700Y0123618D01*
X0167700Y0129982D01*
X0167700Y0129681D02*
X0167825Y0129681D01*
X0167700Y0128082D02*
X0168839Y0128082D01*
X0169836Y0126484D02*
X0167700Y0126484D01*
X0167700Y0124885D02*
X0168225Y0124885D01*
X0175201Y0126800D02*
X0176015Y0127137D01*
X0177563Y0128684D01*
X0178100Y0129982D01*
X0178100Y0123618D01*
X0177563Y0124915D01*
X0176015Y0126463D01*
X0175201Y0126800D01*
X0175964Y0126484D02*
X0178100Y0126484D01*
X0178100Y0128082D02*
X0176961Y0128082D01*
X0177975Y0129681D02*
X0178100Y0129681D01*
X0182700Y0129681D02*
X0195600Y0129681D01*
X0195600Y0131279D02*
X0182700Y0131279D01*
X0182700Y0132878D02*
X0195600Y0132878D01*
X0195600Y0134476D02*
X0182700Y0134476D01*
X0182700Y0136075D02*
X0195600Y0136075D01*
X0195600Y0137673D02*
X0182700Y0137673D01*
X0182700Y0138347D02*
X0182700Y0090150D01*
X0183566Y0090150D01*
X0184798Y0089640D01*
X0185740Y0088698D01*
X0186250Y0087466D01*
X0186250Y0086134D01*
X0185740Y0084902D01*
X0185200Y0084362D01*
X0185200Y0058838D01*
X0186002Y0059640D01*
X0187234Y0060150D01*
X0188566Y0060150D01*
X0189798Y0059640D01*
X0190600Y0058838D01*
X0190600Y0104362D01*
X0190060Y0104902D01*
X0189550Y0106134D01*
X0189550Y0107466D01*
X0190060Y0108698D01*
X0191002Y0109640D01*
X0192234Y0110150D01*
X0193566Y0110150D01*
X0194798Y0109640D01*
X0195600Y0108838D01*
X0195600Y0142753D01*
X0222738Y0169890D01*
X0222400Y0170706D01*
X0222400Y0172894D01*
X0223237Y0174915D01*
X0224784Y0176463D01*
X0225599Y0176800D01*
X0224784Y0177137D01*
X0223237Y0178684D01*
X0223179Y0178826D01*
X0182700Y0138347D01*
X0183625Y0139272D02*
X0195600Y0139272D01*
X0195600Y0140870D02*
X0185223Y0140870D01*
X0186822Y0142469D02*
X0195600Y0142469D01*
X0196915Y0144068D02*
X0188420Y0144068D01*
X0190019Y0145666D02*
X0198513Y0145666D01*
X0200112Y0147265D02*
X0191617Y0147265D01*
X0193216Y0148863D02*
X0201710Y0148863D01*
X0203309Y0150462D02*
X0194814Y0150462D01*
X0196413Y0152060D02*
X0204907Y0152060D01*
X0206506Y0153659D02*
X0198011Y0153659D01*
X0199610Y0155257D02*
X0208104Y0155257D01*
X0209703Y0156856D02*
X0201208Y0156856D01*
X0202807Y0158454D02*
X0211301Y0158454D01*
X0212900Y0160053D02*
X0204405Y0160053D01*
X0206004Y0161651D02*
X0214498Y0161651D01*
X0216097Y0163250D02*
X0207602Y0163250D01*
X0209201Y0164848D02*
X0217695Y0164848D01*
X0219294Y0166447D02*
X0210799Y0166447D01*
X0212398Y0168045D02*
X0220893Y0168045D01*
X0222491Y0169644D02*
X0213996Y0169644D01*
X0215595Y0171242D02*
X0222400Y0171242D01*
X0222400Y0172841D02*
X0217193Y0172841D01*
X0218792Y0174439D02*
X0223040Y0174439D01*
X0224360Y0176038D02*
X0220390Y0176038D01*
X0221989Y0177636D02*
X0224286Y0177636D01*
X0230201Y0176800D02*
X0231015Y0177137D01*
X0232563Y0178684D01*
X0233400Y0180706D01*
X0233400Y0182894D01*
X0232563Y0184915D01*
X0231015Y0186463D01*
X0228994Y0187300D01*
X0226806Y0187300D01*
X0225990Y0186962D01*
X0225200Y0187753D01*
X0225200Y0196800D01*
X0226015Y0197137D01*
X0227563Y0198684D01*
X0227900Y0199499D01*
X0228237Y0198684D01*
X0229784Y0197137D01*
X0231806Y0196300D01*
X0233994Y0196300D01*
X0236015Y0197137D01*
X0237563Y0198684D01*
X0238400Y0200706D01*
X0238400Y0202894D01*
X0237563Y0204915D01*
X0236278Y0206200D01*
X0297300Y0206200D01*
X0297300Y0007400D01*
X0216278Y0007400D01*
X0217563Y0008684D01*
X0218400Y0010706D01*
X0218400Y0012894D01*
X0217563Y0014915D01*
X0216015Y0016463D01*
X0213994Y0017300D01*
X0211806Y0017300D01*
X0210990Y0016962D01*
X0210200Y0017753D01*
X0210200Y0119362D01*
X0210740Y0119902D01*
X0211250Y0121134D01*
X0211250Y0122466D01*
X0210740Y0123698D01*
X0209798Y0124640D01*
X0208566Y0125150D01*
X0207234Y0125150D01*
X0206002Y0124640D01*
X0205060Y0123698D01*
X0204550Y0122466D01*
X0204550Y0121134D01*
X0205060Y0119902D01*
X0205600Y0119362D01*
X0205600Y0073838D01*
X0204798Y0074640D01*
X0203566Y0075150D01*
X0202234Y0075150D01*
X0201002Y0074640D01*
X0200200Y0073838D01*
X0200200Y0140847D01*
X0204824Y0145472D01*
X0205060Y0144902D01*
X0206002Y0143960D01*
X0207234Y0143450D01*
X0207997Y0143450D01*
X0215600Y0135847D01*
X0215600Y0070847D01*
X0222738Y0063710D01*
X0222400Y0062894D01*
X0222400Y0060706D01*
X0223237Y0058684D01*
X0224622Y0057300D01*
X0223454Y0057300D01*
X0222400Y0056246D01*
X0222400Y0047354D01*
X0223454Y0046300D01*
X0225600Y0046300D01*
X0225600Y0037753D01*
X0224810Y0036962D01*
X0223994Y0037300D01*
X0221806Y0037300D01*
X0219784Y0036463D01*
X0218237Y0034915D01*
X0217400Y0032894D01*
X0217400Y0030706D01*
X0218237Y0028684D01*
X0219784Y0027137D01*
X0221806Y0026300D01*
X0223994Y0026300D01*
X0226015Y0027137D01*
X0227563Y0028684D01*
X0227900Y0029499D01*
X0228237Y0028684D01*
X0229784Y0027137D01*
X0230644Y0026781D01*
X0230060Y0026198D01*
X0229550Y0024966D01*
X0229550Y0023634D01*
X0230060Y0022402D01*
X0231002Y0021460D01*
X0232234Y0020950D01*
X0233566Y0020950D01*
X0234798Y0021460D01*
X0235740Y0022402D01*
X0236250Y0023634D01*
X0236250Y0024397D01*
X0276353Y0064500D01*
X0277700Y0065847D01*
X0277700Y0069982D01*
X0278237Y0068684D01*
X0279784Y0067137D01*
X0280599Y0066800D01*
X0279784Y0066463D01*
X0278237Y0064915D01*
X0277400Y0062894D01*
X0277400Y0060706D01*
X0278237Y0058684D01*
X0279622Y0057300D01*
X0278454Y0057300D01*
X0277400Y0056246D01*
X0277400Y0047354D01*
X0278454Y0046300D01*
X0287346Y0046300D01*
X0288400Y0047354D01*
X0288400Y0056246D01*
X0287346Y0057300D01*
X0286178Y0057300D01*
X0287563Y0058684D01*
X0288400Y0060706D01*
X0288400Y0062894D01*
X0287563Y0064915D01*
X0286015Y0066463D01*
X0285201Y0066800D01*
X0286015Y0067137D01*
X0287563Y0068684D01*
X0288400Y0070706D01*
X0288400Y0072894D01*
X0287563Y0074915D01*
X0286015Y0076463D01*
X0285201Y0076800D01*
X0286015Y0077137D01*
X0287563Y0078684D01*
X0288400Y0080706D01*
X0288400Y0082894D01*
X0287563Y0084915D01*
X0286015Y0086463D01*
X0283994Y0087300D01*
X0281806Y0087300D01*
X0279784Y0086463D01*
X0278237Y0084915D01*
X0277700Y0083618D01*
X0277700Y0097054D01*
X0278454Y0096300D01*
X0287346Y0096300D01*
X0288400Y0097354D01*
X0288400Y0106246D01*
X0287346Y0107300D01*
X0286178Y0107300D01*
X0287563Y0108684D01*
X0288400Y0110706D01*
X0288400Y0112894D01*
X0288062Y0113710D01*
X0295200Y0120847D01*
X0295200Y0180253D01*
X0293853Y0181600D01*
X0286250Y0189203D01*
X0286250Y0189966D01*
X0285740Y0191198D01*
X0284798Y0192140D01*
X0283566Y0192650D01*
X0282234Y0192650D01*
X0281002Y0192140D01*
X0280060Y0191198D01*
X0279550Y0189966D01*
X0279550Y0188634D01*
X0280060Y0187402D01*
X0280644Y0186819D01*
X0279784Y0186463D01*
X0278237Y0184915D01*
X0277400Y0182894D01*
X0277400Y0180706D01*
X0278237Y0178684D01*
X0279784Y0177137D01*
X0280599Y0176800D01*
X0279784Y0176463D01*
X0278237Y0174915D01*
X0277400Y0172894D01*
X0277400Y0170706D01*
X0277738Y0169890D01*
X0273100Y0165253D01*
X0273100Y0067753D01*
X0238354Y0033006D01*
X0237563Y0034915D01*
X0236015Y0036463D01*
X0233994Y0037300D01*
X0231806Y0037300D01*
X0230200Y0036635D01*
X0230200Y0046300D01*
X0232346Y0046300D01*
X0233400Y0047354D01*
X0233400Y0054047D01*
X0237700Y0058347D01*
X0237700Y0095253D01*
X0233400Y0099553D01*
X0233400Y0106246D01*
X0232346Y0107300D01*
X0231178Y0107300D01*
X0232563Y0108684D01*
X0233400Y0110706D01*
X0233400Y0112894D01*
X0233062Y0113710D01*
X0237700Y0118347D01*
X0237700Y0144362D01*
X0238240Y0144902D01*
X0238750Y0146134D01*
X0238750Y0147466D01*
X0238240Y0148698D01*
X0237298Y0149640D01*
X0236066Y0150150D01*
X0234734Y0150150D01*
X0233502Y0149640D01*
X0233400Y0149538D01*
X0233400Y0156246D01*
X0232346Y0157300D01*
X0231178Y0157300D01*
X0232563Y0158684D01*
X0233400Y0160706D01*
X0233400Y0162894D01*
X0232563Y0164915D01*
X0231015Y0166463D01*
X0230201Y0166800D01*
X0231015Y0167137D01*
X0232563Y0168684D01*
X0233400Y0170706D01*
X0233400Y0172894D01*
X0232563Y0174915D01*
X0231015Y0176463D01*
X0230201Y0176800D01*
X0231440Y0176038D02*
X0279360Y0176038D01*
X0279286Y0177636D02*
X0231514Y0177636D01*
X0232791Y0179235D02*
X0278009Y0179235D01*
X0277400Y0180833D02*
X0233400Y0180833D01*
X0233400Y0182432D02*
X0277400Y0182432D01*
X0277871Y0184030D02*
X0232929Y0184030D01*
X0231849Y0185629D02*
X0278951Y0185629D01*
X0280235Y0187227D02*
X0229169Y0187227D01*
X0226631Y0187227D02*
X0225725Y0187227D01*
X0225200Y0188826D02*
X0279550Y0188826D01*
X0279740Y0190424D02*
X0225200Y0190424D01*
X0225200Y0192023D02*
X0280885Y0192023D01*
X0284915Y0192023D02*
X0297300Y0192023D01*
X0297300Y0193621D02*
X0225200Y0193621D01*
X0225200Y0195220D02*
X0297300Y0195220D01*
X0297300Y0196818D02*
X0235245Y0196818D01*
X0237295Y0198417D02*
X0297300Y0198417D01*
X0297300Y0200015D02*
X0238114Y0200015D01*
X0238400Y0201614D02*
X0297300Y0201614D01*
X0297300Y0203212D02*
X0238268Y0203212D01*
X0237606Y0204811D02*
X0297300Y0204811D01*
X0297300Y0190424D02*
X0286060Y0190424D01*
X0286627Y0188826D02*
X0297300Y0188826D01*
X0297300Y0187227D02*
X0288225Y0187227D01*
X0289824Y0185629D02*
X0297300Y0185629D01*
X0297300Y0184030D02*
X0291422Y0184030D01*
X0293021Y0182432D02*
X0297300Y0182432D01*
X0297300Y0180833D02*
X0294619Y0180833D01*
X0295200Y0179235D02*
X0297300Y0179235D01*
X0297300Y0177636D02*
X0295200Y0177636D01*
X0295200Y0176038D02*
X0297300Y0176038D01*
X0297300Y0174439D02*
X0295200Y0174439D01*
X0295200Y0172841D02*
X0297300Y0172841D01*
X0297300Y0171242D02*
X0295200Y0171242D01*
X0295200Y0169644D02*
X0297300Y0169644D01*
X0297300Y0168045D02*
X0295200Y0168045D01*
X0295200Y0166447D02*
X0297300Y0166447D01*
X0297300Y0164848D02*
X0295200Y0164848D01*
X0295200Y0163250D02*
X0297300Y0163250D01*
X0297300Y0161651D02*
X0295200Y0161651D01*
X0295200Y0160053D02*
X0297300Y0160053D01*
X0297300Y0158454D02*
X0295200Y0158454D01*
X0295200Y0156856D02*
X0297300Y0156856D01*
X0297300Y0155257D02*
X0295200Y0155257D01*
X0295200Y0153659D02*
X0297300Y0153659D01*
X0297300Y0152060D02*
X0295200Y0152060D01*
X0295200Y0150462D02*
X0297300Y0150462D01*
X0297300Y0148863D02*
X0295200Y0148863D01*
X0295200Y0147265D02*
X0297300Y0147265D01*
X0297300Y0145666D02*
X0295200Y0145666D01*
X0295200Y0144068D02*
X0297300Y0144068D01*
X0297300Y0142469D02*
X0295200Y0142469D01*
X0295200Y0140870D02*
X0297300Y0140870D01*
X0297300Y0139272D02*
X0295200Y0139272D01*
X0295200Y0137673D02*
X0297300Y0137673D01*
X0297300Y0136075D02*
X0295200Y0136075D01*
X0295200Y0134476D02*
X0297300Y0134476D01*
X0297300Y0132878D02*
X0295200Y0132878D01*
X0295200Y0131279D02*
X0297300Y0131279D01*
X0297300Y0129681D02*
X0295200Y0129681D01*
X0295200Y0128082D02*
X0297300Y0128082D01*
X0297300Y0126484D02*
X0295200Y0126484D01*
X0295200Y0124885D02*
X0297300Y0124885D01*
X0297300Y0123287D02*
X0295200Y0123287D01*
X0295200Y0121688D02*
X0297300Y0121688D01*
X0297300Y0120090D02*
X0294443Y0120090D01*
X0292844Y0118491D02*
X0297300Y0118491D01*
X0297300Y0116893D02*
X0291245Y0116893D01*
X0289647Y0115294D02*
X0297300Y0115294D01*
X0297300Y0113696D02*
X0288068Y0113696D01*
X0288400Y0112097D02*
X0297300Y0112097D01*
X0297300Y0110499D02*
X0288314Y0110499D01*
X0287652Y0108900D02*
X0297300Y0108900D01*
X0297300Y0107302D02*
X0286180Y0107302D01*
X0288400Y0105703D02*
X0297300Y0105703D01*
X0297300Y0104105D02*
X0288400Y0104105D01*
X0288400Y0102506D02*
X0297300Y0102506D01*
X0297300Y0100908D02*
X0288400Y0100908D01*
X0288400Y0099309D02*
X0297300Y0099309D01*
X0297300Y0097711D02*
X0288400Y0097711D01*
X0297300Y0096112D02*
X0277700Y0096112D01*
X0277700Y0094514D02*
X0297300Y0094514D01*
X0297300Y0092915D02*
X0277700Y0092915D01*
X0277700Y0091317D02*
X0297300Y0091317D01*
X0297300Y0089718D02*
X0277700Y0089718D01*
X0277700Y0088120D02*
X0297300Y0088120D01*
X0297300Y0086521D02*
X0285874Y0086521D01*
X0287556Y0084923D02*
X0297300Y0084923D01*
X0297300Y0083324D02*
X0288222Y0083324D01*
X0288400Y0081726D02*
X0297300Y0081726D01*
X0297300Y0080127D02*
X0288160Y0080127D01*
X0287407Y0078529D02*
X0297300Y0078529D01*
X0297300Y0076930D02*
X0285515Y0076930D01*
X0287147Y0075332D02*
X0297300Y0075332D01*
X0297300Y0073733D02*
X0288052Y0073733D01*
X0288400Y0072134D02*
X0297300Y0072134D01*
X0297300Y0070536D02*
X0288330Y0070536D01*
X0287667Y0068937D02*
X0297300Y0068937D01*
X0297300Y0067339D02*
X0286217Y0067339D01*
X0286738Y0065740D02*
X0297300Y0065740D01*
X0297300Y0064142D02*
X0287883Y0064142D01*
X0288400Y0062543D02*
X0297300Y0062543D01*
X0297300Y0060945D02*
X0288400Y0060945D01*
X0287837Y0059346D02*
X0297300Y0059346D01*
X0297300Y0057748D02*
X0286626Y0057748D01*
X0288400Y0056149D02*
X0297300Y0056149D01*
X0297300Y0054551D02*
X0288400Y0054551D01*
X0288400Y0052952D02*
X0297300Y0052952D01*
X0297300Y0051354D02*
X0288400Y0051354D01*
X0288400Y0049755D02*
X0297300Y0049755D01*
X0297300Y0048157D02*
X0288400Y0048157D01*
X0287604Y0046558D02*
X0297300Y0046558D01*
X0297300Y0044960D02*
X0256812Y0044960D01*
X0255214Y0043361D02*
X0297300Y0043361D01*
X0297300Y0041763D02*
X0253615Y0041763D01*
X0252017Y0040164D02*
X0297300Y0040164D01*
X0297300Y0038566D02*
X0250418Y0038566D01*
X0248820Y0036967D02*
X0297300Y0036967D01*
X0297300Y0035369D02*
X0247221Y0035369D01*
X0245623Y0033770D02*
X0297300Y0033770D01*
X0297300Y0032172D02*
X0244024Y0032172D01*
X0242426Y0030573D02*
X0297300Y0030573D01*
X0297300Y0028975D02*
X0240827Y0028975D01*
X0239229Y0027376D02*
X0297300Y0027376D01*
X0297300Y0025778D02*
X0237630Y0025778D01*
X0236250Y0024179D02*
X0297300Y0024179D01*
X0297300Y0022581D02*
X0235814Y0022581D01*
X0233644Y0020982D02*
X0297300Y0020982D01*
X0297300Y0019384D02*
X0210200Y0019384D01*
X0210200Y0020982D02*
X0232156Y0020982D01*
X0229986Y0022581D02*
X0210200Y0022581D01*
X0210200Y0024179D02*
X0229550Y0024179D01*
X0229886Y0025778D02*
X0210200Y0025778D01*
X0210200Y0027376D02*
X0219546Y0027376D01*
X0218117Y0028975D02*
X0210200Y0028975D01*
X0210200Y0030573D02*
X0217455Y0030573D01*
X0217400Y0032172D02*
X0210200Y0032172D01*
X0210200Y0033770D02*
X0217763Y0033770D01*
X0218691Y0035369D02*
X0210200Y0035369D01*
X0210200Y0036967D02*
X0221003Y0036967D01*
X0224797Y0036967D02*
X0224815Y0036967D01*
X0225600Y0038566D02*
X0210200Y0038566D01*
X0210200Y0040164D02*
X0225600Y0040164D01*
X0225600Y0041763D02*
X0210200Y0041763D01*
X0210200Y0043361D02*
X0225600Y0043361D01*
X0225600Y0044960D02*
X0210200Y0044960D01*
X0210200Y0046558D02*
X0223196Y0046558D01*
X0222400Y0048157D02*
X0210200Y0048157D01*
X0210200Y0049755D02*
X0222400Y0049755D01*
X0222400Y0051354D02*
X0210200Y0051354D01*
X0210200Y0052952D02*
X0222400Y0052952D01*
X0222400Y0054551D02*
X0210200Y0054551D01*
X0210200Y0056149D02*
X0222400Y0056149D01*
X0224174Y0057748D02*
X0210200Y0057748D01*
X0210200Y0059346D02*
X0222963Y0059346D01*
X0222400Y0060945D02*
X0210200Y0060945D01*
X0210200Y0062543D02*
X0222400Y0062543D01*
X0222305Y0064142D02*
X0210200Y0064142D01*
X0210200Y0065740D02*
X0220707Y0065740D01*
X0219108Y0067339D02*
X0210200Y0067339D01*
X0210200Y0068937D02*
X0217510Y0068937D01*
X0215911Y0070536D02*
X0210200Y0070536D01*
X0210200Y0072134D02*
X0215600Y0072134D01*
X0215600Y0073733D02*
X0210200Y0073733D01*
X0210200Y0075332D02*
X0215600Y0075332D01*
X0215600Y0076930D02*
X0210200Y0076930D01*
X0210200Y0078529D02*
X0215600Y0078529D01*
X0215600Y0080127D02*
X0210200Y0080127D01*
X0210200Y0081726D02*
X0215600Y0081726D01*
X0215600Y0083324D02*
X0210200Y0083324D01*
X0210200Y0084923D02*
X0215600Y0084923D01*
X0215600Y0086521D02*
X0210200Y0086521D01*
X0210200Y0088120D02*
X0215600Y0088120D01*
X0215600Y0089718D02*
X0210200Y0089718D01*
X0210200Y0091317D02*
X0215600Y0091317D01*
X0215600Y0092915D02*
X0210200Y0092915D01*
X0210200Y0094514D02*
X0215600Y0094514D01*
X0215600Y0096112D02*
X0210200Y0096112D01*
X0210200Y0097711D02*
X0215600Y0097711D01*
X0215600Y0099309D02*
X0210200Y0099309D01*
X0210200Y0100908D02*
X0215600Y0100908D01*
X0215600Y0102506D02*
X0210200Y0102506D01*
X0210200Y0104105D02*
X0215600Y0104105D01*
X0215600Y0105703D02*
X0210200Y0105703D01*
X0210200Y0107302D02*
X0215600Y0107302D01*
X0215600Y0108900D02*
X0210200Y0108900D01*
X0210200Y0110499D02*
X0215600Y0110499D01*
X0215600Y0112097D02*
X0210200Y0112097D01*
X0210200Y0113696D02*
X0215600Y0113696D01*
X0215600Y0115294D02*
X0210200Y0115294D01*
X0210200Y0116893D02*
X0215600Y0116893D01*
X0215600Y0118491D02*
X0210200Y0118491D01*
X0210818Y0120090D02*
X0215600Y0120090D01*
X0215600Y0121688D02*
X0211250Y0121688D01*
X0210910Y0123287D02*
X0215600Y0123287D01*
X0215600Y0124885D02*
X0209205Y0124885D01*
X0206595Y0124885D02*
X0200200Y0124885D01*
X0200200Y0123287D02*
X0204890Y0123287D01*
X0204550Y0121688D02*
X0200200Y0121688D01*
X0200200Y0120090D02*
X0204982Y0120090D01*
X0205600Y0118491D02*
X0200200Y0118491D01*
X0200200Y0116893D02*
X0205600Y0116893D01*
X0205600Y0115294D02*
X0200200Y0115294D01*
X0200200Y0113696D02*
X0205600Y0113696D01*
X0205600Y0112097D02*
X0200200Y0112097D01*
X0200200Y0110499D02*
X0205600Y0110499D01*
X0205600Y0108900D02*
X0200200Y0108900D01*
X0200200Y0107302D02*
X0205600Y0107302D01*
X0205600Y0105703D02*
X0200200Y0105703D01*
X0200200Y0104105D02*
X0205600Y0104105D01*
X0205600Y0102506D02*
X0200200Y0102506D01*
X0200200Y0100908D02*
X0205600Y0100908D01*
X0205600Y0099309D02*
X0200200Y0099309D01*
X0200200Y0097711D02*
X0205600Y0097711D01*
X0205600Y0096112D02*
X0200200Y0096112D01*
X0200200Y0094514D02*
X0205600Y0094514D01*
X0205600Y0092915D02*
X0200200Y0092915D01*
X0200200Y0091317D02*
X0205600Y0091317D01*
X0205600Y0089718D02*
X0200200Y0089718D01*
X0200200Y0088120D02*
X0205600Y0088120D01*
X0205600Y0086521D02*
X0200200Y0086521D01*
X0200200Y0084923D02*
X0205600Y0084923D01*
X0205600Y0083324D02*
X0200200Y0083324D01*
X0200200Y0081726D02*
X0205600Y0081726D01*
X0205600Y0080127D02*
X0200200Y0080127D01*
X0200200Y0078529D02*
X0205600Y0078529D01*
X0205600Y0076930D02*
X0200200Y0076930D01*
X0200200Y0075332D02*
X0205600Y0075332D01*
X0205600Y0069762D02*
X0205600Y0016635D01*
X0205200Y0016800D01*
X0205200Y0069362D01*
X0205600Y0069762D01*
X0205600Y0068937D02*
X0205200Y0068937D01*
X0205200Y0067339D02*
X0205600Y0067339D01*
X0205600Y0065740D02*
X0205200Y0065740D01*
X0205200Y0064142D02*
X0205600Y0064142D01*
X0205600Y0062543D02*
X0205200Y0062543D01*
X0205200Y0060945D02*
X0205600Y0060945D01*
X0205600Y0059346D02*
X0205200Y0059346D01*
X0205200Y0057748D02*
X0205600Y0057748D01*
X0205600Y0056149D02*
X0205200Y0056149D01*
X0205200Y0054551D02*
X0205600Y0054551D01*
X0205600Y0052952D02*
X0205200Y0052952D01*
X0205200Y0051354D02*
X0205600Y0051354D01*
X0205600Y0049755D02*
X0205200Y0049755D01*
X0205200Y0048157D02*
X0205600Y0048157D01*
X0205600Y0046558D02*
X0205200Y0046558D01*
X0205200Y0044960D02*
X0205600Y0044960D01*
X0205600Y0043361D02*
X0205200Y0043361D01*
X0205200Y0041763D02*
X0205600Y0041763D01*
X0205600Y0040164D02*
X0205200Y0040164D01*
X0205200Y0038566D02*
X0205600Y0038566D01*
X0205600Y0036967D02*
X0205200Y0036967D01*
X0205200Y0035369D02*
X0205600Y0035369D01*
X0205600Y0033770D02*
X0205200Y0033770D01*
X0205200Y0032172D02*
X0205600Y0032172D01*
X0205600Y0030573D02*
X0205200Y0030573D01*
X0205200Y0028975D02*
X0205600Y0028975D01*
X0205600Y0027376D02*
X0205200Y0027376D01*
X0205200Y0025778D02*
X0205600Y0025778D01*
X0205600Y0024179D02*
X0205200Y0024179D01*
X0205200Y0022581D02*
X0205600Y0022581D01*
X0205600Y0020982D02*
X0205200Y0020982D01*
X0205200Y0019384D02*
X0205600Y0019384D01*
X0205600Y0017785D02*
X0205200Y0017785D01*
X0210200Y0017785D02*
X0297300Y0017785D01*
X0297300Y0016187D02*
X0216292Y0016187D01*
X0217698Y0014588D02*
X0297300Y0014588D01*
X0297300Y0012990D02*
X0218360Y0012990D01*
X0218400Y0011391D02*
X0297300Y0011391D01*
X0297300Y0009793D02*
X0218022Y0009793D01*
X0217072Y0008194D02*
X0297300Y0008194D01*
X0247110Y0041763D02*
X0230200Y0041763D01*
X0230200Y0043361D02*
X0248709Y0043361D01*
X0250307Y0044960D02*
X0230200Y0044960D01*
X0232604Y0046558D02*
X0251906Y0046558D01*
X0253504Y0048157D02*
X0233400Y0048157D01*
X0233400Y0049755D02*
X0255103Y0049755D01*
X0256701Y0051354D02*
X0233400Y0051354D01*
X0233400Y0052952D02*
X0258300Y0052952D01*
X0259898Y0054551D02*
X0233904Y0054551D01*
X0235502Y0056149D02*
X0261497Y0056149D01*
X0263095Y0057748D02*
X0237101Y0057748D01*
X0237700Y0059346D02*
X0264694Y0059346D01*
X0266292Y0060945D02*
X0237700Y0060945D01*
X0237700Y0062543D02*
X0267891Y0062543D01*
X0269489Y0064142D02*
X0237700Y0064142D01*
X0237700Y0065740D02*
X0271088Y0065740D01*
X0272686Y0067339D02*
X0237700Y0067339D01*
X0237700Y0068937D02*
X0273100Y0068937D01*
X0273100Y0070536D02*
X0237700Y0070536D01*
X0237700Y0072134D02*
X0273100Y0072134D01*
X0273100Y0073733D02*
X0237700Y0073733D01*
X0237700Y0075332D02*
X0273100Y0075332D01*
X0273100Y0076930D02*
X0237700Y0076930D01*
X0237700Y0078529D02*
X0273100Y0078529D01*
X0273100Y0080127D02*
X0237700Y0080127D01*
X0237700Y0081726D02*
X0273100Y0081726D01*
X0273100Y0083324D02*
X0237700Y0083324D01*
X0237700Y0084923D02*
X0273100Y0084923D01*
X0273100Y0086521D02*
X0237700Y0086521D01*
X0237700Y0088120D02*
X0273100Y0088120D01*
X0273100Y0089718D02*
X0237700Y0089718D01*
X0237700Y0091317D02*
X0273100Y0091317D01*
X0273100Y0092915D02*
X0237700Y0092915D01*
X0237700Y0094514D02*
X0273100Y0094514D01*
X0273100Y0096112D02*
X0236841Y0096112D01*
X0235242Y0097711D02*
X0273100Y0097711D01*
X0273100Y0099309D02*
X0233643Y0099309D01*
X0233400Y0100908D02*
X0273100Y0100908D01*
X0273100Y0102506D02*
X0233400Y0102506D01*
X0233400Y0104105D02*
X0273100Y0104105D01*
X0273100Y0105703D02*
X0233400Y0105703D01*
X0231180Y0107302D02*
X0273100Y0107302D01*
X0273100Y0108900D02*
X0232652Y0108900D01*
X0233314Y0110499D02*
X0273100Y0110499D01*
X0273100Y0112097D02*
X0233400Y0112097D01*
X0233068Y0113696D02*
X0273100Y0113696D01*
X0273100Y0115294D02*
X0234647Y0115294D01*
X0236245Y0116893D02*
X0273100Y0116893D01*
X0273100Y0118491D02*
X0237700Y0118491D01*
X0237700Y0120090D02*
X0273100Y0120090D01*
X0273100Y0121688D02*
X0237700Y0121688D01*
X0237700Y0123287D02*
X0273100Y0123287D01*
X0273100Y0124885D02*
X0237700Y0124885D01*
X0237700Y0126484D02*
X0273100Y0126484D01*
X0273100Y0128082D02*
X0237700Y0128082D01*
X0237700Y0129681D02*
X0273100Y0129681D01*
X0273100Y0131279D02*
X0237700Y0131279D01*
X0237700Y0132878D02*
X0273100Y0132878D01*
X0273100Y0134476D02*
X0237700Y0134476D01*
X0237700Y0136075D02*
X0273100Y0136075D01*
X0273100Y0137673D02*
X0237700Y0137673D01*
X0237700Y0139272D02*
X0273100Y0139272D01*
X0273100Y0140870D02*
X0237700Y0140870D01*
X0237700Y0142469D02*
X0273100Y0142469D01*
X0273100Y0144068D02*
X0237700Y0144068D01*
X0238556Y0145666D02*
X0273100Y0145666D01*
X0273100Y0147265D02*
X0238750Y0147265D01*
X0238075Y0148863D02*
X0273100Y0148863D01*
X0273100Y0150462D02*
X0233400Y0150462D01*
X0233400Y0152060D02*
X0273100Y0152060D01*
X0273100Y0153659D02*
X0233400Y0153659D01*
X0233400Y0155257D02*
X0273100Y0155257D01*
X0273100Y0156856D02*
X0232790Y0156856D01*
X0232332Y0158454D02*
X0273100Y0158454D01*
X0273100Y0160053D02*
X0233129Y0160053D01*
X0233400Y0161651D02*
X0273100Y0161651D01*
X0273100Y0163250D02*
X0233253Y0163250D01*
X0232591Y0164848D02*
X0273100Y0164848D01*
X0274294Y0166447D02*
X0231031Y0166447D01*
X0231923Y0168045D02*
X0275892Y0168045D01*
X0277491Y0169644D02*
X0232960Y0169644D01*
X0233400Y0171242D02*
X0277400Y0171242D01*
X0277400Y0172841D02*
X0233400Y0172841D01*
X0232760Y0174439D02*
X0278040Y0174439D01*
X0285201Y0176800D02*
X0286015Y0177137D01*
X0287563Y0178684D01*
X0288354Y0180594D01*
X0290600Y0178347D01*
X0290600Y0122753D01*
X0288292Y0120444D01*
X0288400Y0120706D01*
X0288400Y0122894D01*
X0287563Y0124915D01*
X0286015Y0126463D01*
X0285201Y0126800D01*
X0286015Y0127137D01*
X0287563Y0128684D01*
X0288400Y0130706D01*
X0288400Y0132894D01*
X0287563Y0134915D01*
X0286015Y0136463D01*
X0283994Y0137300D01*
X0281806Y0137300D01*
X0279784Y0136463D01*
X0278237Y0134915D01*
X0277700Y0133618D01*
X0277700Y0147054D01*
X0278454Y0146300D01*
X0287346Y0146300D01*
X0288400Y0147354D01*
X0288400Y0156246D01*
X0287346Y0157300D01*
X0286178Y0157300D01*
X0287563Y0158684D01*
X0288400Y0160706D01*
X0288400Y0162894D01*
X0287563Y0164915D01*
X0286015Y0166463D01*
X0285201Y0166800D01*
X0286015Y0167137D01*
X0287563Y0168684D01*
X0288400Y0170706D01*
X0288400Y0172894D01*
X0287563Y0174915D01*
X0286015Y0176463D01*
X0285201Y0176800D01*
X0286440Y0176038D02*
X0290600Y0176038D01*
X0290600Y0177636D02*
X0286514Y0177636D01*
X0287791Y0179235D02*
X0289713Y0179235D01*
X0290600Y0174439D02*
X0287760Y0174439D01*
X0288400Y0172841D02*
X0290600Y0172841D01*
X0290600Y0171242D02*
X0288400Y0171242D01*
X0287960Y0169644D02*
X0290600Y0169644D01*
X0290600Y0168045D02*
X0286923Y0168045D01*
X0286031Y0166447D02*
X0290600Y0166447D01*
X0290600Y0164848D02*
X0287591Y0164848D01*
X0288253Y0163250D02*
X0290600Y0163250D01*
X0290600Y0161651D02*
X0288400Y0161651D01*
X0288129Y0160053D02*
X0290600Y0160053D01*
X0290600Y0158454D02*
X0287332Y0158454D01*
X0287790Y0156856D02*
X0290600Y0156856D01*
X0290600Y0155257D02*
X0288400Y0155257D01*
X0288400Y0153659D02*
X0290600Y0153659D01*
X0290600Y0152060D02*
X0288400Y0152060D01*
X0288400Y0150462D02*
X0290600Y0150462D01*
X0290600Y0148863D02*
X0288400Y0148863D01*
X0288310Y0147265D02*
X0290600Y0147265D01*
X0290600Y0145666D02*
X0277700Y0145666D01*
X0277700Y0144068D02*
X0290600Y0144068D01*
X0290600Y0142469D02*
X0277700Y0142469D01*
X0277700Y0140870D02*
X0290600Y0140870D01*
X0290600Y0139272D02*
X0277700Y0139272D01*
X0277700Y0137673D02*
X0290600Y0137673D01*
X0290600Y0136075D02*
X0286403Y0136075D01*
X0287745Y0134476D02*
X0290600Y0134476D01*
X0290600Y0132878D02*
X0288400Y0132878D01*
X0288400Y0131279D02*
X0290600Y0131279D01*
X0290600Y0129681D02*
X0287975Y0129681D01*
X0286961Y0128082D02*
X0290600Y0128082D01*
X0290600Y0126484D02*
X0285964Y0126484D01*
X0287575Y0124885D02*
X0290600Y0124885D01*
X0290600Y0123287D02*
X0288237Y0123287D01*
X0288400Y0121688D02*
X0289536Y0121688D01*
X0280599Y0116800D02*
X0279784Y0116463D01*
X0278237Y0114915D01*
X0277700Y0113618D01*
X0277700Y0119982D01*
X0278237Y0118684D01*
X0279784Y0117137D01*
X0280599Y0116800D01*
X0280375Y0116893D02*
X0277700Y0116893D01*
X0277700Y0118491D02*
X0278430Y0118491D01*
X0278616Y0115294D02*
X0277700Y0115294D01*
X0277700Y0113696D02*
X0277732Y0113696D01*
X0277700Y0109982D02*
X0278237Y0108684D01*
X0279622Y0107300D01*
X0278454Y0107300D01*
X0277700Y0106546D01*
X0277700Y0109982D01*
X0277700Y0108900D02*
X0278148Y0108900D01*
X0277700Y0107302D02*
X0279620Y0107302D01*
X0277700Y0123618D02*
X0277700Y0129982D01*
X0278237Y0128684D01*
X0279784Y0127137D01*
X0280599Y0126800D01*
X0279784Y0126463D01*
X0278237Y0124915D01*
X0277700Y0123618D01*
X0277700Y0124885D02*
X0278225Y0124885D01*
X0277700Y0126484D02*
X0279836Y0126484D01*
X0278839Y0128082D02*
X0277700Y0128082D01*
X0277700Y0129681D02*
X0277825Y0129681D01*
X0277700Y0134476D02*
X0278055Y0134476D01*
X0277700Y0136075D02*
X0279397Y0136075D01*
X0277700Y0156546D02*
X0277700Y0159982D01*
X0278237Y0158684D01*
X0279622Y0157300D01*
X0278454Y0157300D01*
X0277700Y0156546D01*
X0277700Y0156856D02*
X0278010Y0156856D01*
X0277700Y0158454D02*
X0278468Y0158454D01*
X0233100Y0144362D02*
X0233100Y0133618D01*
X0232563Y0134915D01*
X0231015Y0136463D01*
X0228994Y0137300D01*
X0226806Y0137300D01*
X0224784Y0136463D01*
X0223237Y0134915D01*
X0222700Y0133618D01*
X0222700Y0143347D01*
X0225653Y0146300D01*
X0232050Y0146300D01*
X0232050Y0146134D01*
X0232560Y0144902D01*
X0233100Y0144362D01*
X0233100Y0144068D02*
X0223420Y0144068D01*
X0222700Y0142469D02*
X0233100Y0142469D01*
X0233100Y0140870D02*
X0222700Y0140870D01*
X0222700Y0139272D02*
X0233100Y0139272D01*
X0233100Y0137673D02*
X0222700Y0137673D01*
X0222700Y0136075D02*
X0224397Y0136075D01*
X0223055Y0134476D02*
X0222700Y0134476D01*
X0222700Y0129982D02*
X0223237Y0128684D01*
X0224784Y0127137D01*
X0225599Y0126800D01*
X0224784Y0126463D01*
X0223237Y0124915D01*
X0222700Y0123618D01*
X0222700Y0129982D01*
X0222700Y0129681D02*
X0222825Y0129681D01*
X0222700Y0128082D02*
X0223839Y0128082D01*
X0224836Y0126484D02*
X0222700Y0126484D01*
X0222700Y0124885D02*
X0223225Y0124885D01*
X0222700Y0119982D02*
X0223237Y0118684D01*
X0224784Y0117137D01*
X0225599Y0116800D01*
X0224784Y0116463D01*
X0223237Y0114915D01*
X0222700Y0113618D01*
X0222700Y0119982D01*
X0222700Y0118491D02*
X0223430Y0118491D01*
X0222700Y0116893D02*
X0225375Y0116893D01*
X0223616Y0115294D02*
X0222700Y0115294D01*
X0222700Y0113696D02*
X0222732Y0113696D01*
X0220200Y0106247D02*
X0222400Y0104047D01*
X0222400Y0097354D01*
X0223454Y0096300D01*
X0230147Y0096300D01*
X0233100Y0093347D01*
X0233100Y0083618D01*
X0232563Y0084915D01*
X0231015Y0086463D01*
X0228994Y0087300D01*
X0226806Y0087300D01*
X0224784Y0086463D01*
X0223237Y0084915D01*
X0222400Y0082894D01*
X0222400Y0080706D01*
X0223237Y0078684D01*
X0224784Y0077137D01*
X0225599Y0076800D01*
X0224784Y0076463D01*
X0223237Y0074915D01*
X0222400Y0072894D01*
X0222400Y0070706D01*
X0222508Y0070444D01*
X0220200Y0072753D01*
X0220200Y0106247D01*
X0220200Y0105703D02*
X0220744Y0105703D01*
X0220200Y0104105D02*
X0222343Y0104105D01*
X0222400Y0102506D02*
X0220200Y0102506D01*
X0220200Y0100908D02*
X0222400Y0100908D01*
X0222400Y0099309D02*
X0220200Y0099309D01*
X0220200Y0097711D02*
X0222400Y0097711D01*
X0220200Y0096112D02*
X0230335Y0096112D01*
X0231934Y0094514D02*
X0220200Y0094514D01*
X0220200Y0092915D02*
X0233100Y0092915D01*
X0233100Y0091317D02*
X0220200Y0091317D01*
X0220200Y0089718D02*
X0233100Y0089718D01*
X0233100Y0088120D02*
X0220200Y0088120D01*
X0220200Y0086521D02*
X0224926Y0086521D01*
X0223244Y0084923D02*
X0220200Y0084923D01*
X0220200Y0083324D02*
X0222578Y0083324D01*
X0222400Y0081726D02*
X0220200Y0081726D01*
X0220200Y0080127D02*
X0222640Y0080127D01*
X0223393Y0078529D02*
X0220200Y0078529D01*
X0220200Y0076930D02*
X0225285Y0076930D01*
X0223653Y0075332D02*
X0220200Y0075332D01*
X0220200Y0073733D02*
X0222748Y0073733D01*
X0222400Y0072134D02*
X0220818Y0072134D01*
X0222417Y0070536D02*
X0222470Y0070536D01*
X0230201Y0066800D02*
X0231015Y0067137D01*
X0232563Y0068684D01*
X0233100Y0069982D01*
X0233100Y0063618D01*
X0232563Y0064915D01*
X0231015Y0066463D01*
X0230201Y0066800D01*
X0231217Y0067339D02*
X0233100Y0067339D01*
X0233100Y0068937D02*
X0232667Y0068937D01*
X0233100Y0065740D02*
X0231738Y0065740D01*
X0232883Y0064142D02*
X0233100Y0064142D01*
X0233100Y0073618D02*
X0232563Y0074915D01*
X0231015Y0076463D01*
X0230201Y0076800D01*
X0231015Y0077137D01*
X0232563Y0078684D01*
X0233100Y0079982D01*
X0233100Y0073618D01*
X0233100Y0073733D02*
X0233052Y0073733D01*
X0233100Y0075332D02*
X0232147Y0075332D01*
X0233100Y0076930D02*
X0230515Y0076930D01*
X0232407Y0078529D02*
X0233100Y0078529D01*
X0233100Y0084923D02*
X0232556Y0084923D01*
X0233100Y0086521D02*
X0230874Y0086521D01*
X0200600Y0069362D02*
X0200600Y0016800D01*
X0200200Y0016635D01*
X0200200Y0069762D01*
X0200600Y0069362D01*
X0200600Y0068937D02*
X0200200Y0068937D01*
X0200200Y0067339D02*
X0200600Y0067339D01*
X0200600Y0065740D02*
X0200200Y0065740D01*
X0200200Y0064142D02*
X0200600Y0064142D01*
X0200600Y0062543D02*
X0200200Y0062543D01*
X0200200Y0060945D02*
X0200600Y0060945D01*
X0200600Y0059346D02*
X0200200Y0059346D01*
X0200200Y0057748D02*
X0200600Y0057748D01*
X0200600Y0056149D02*
X0200200Y0056149D01*
X0200200Y0054551D02*
X0200600Y0054551D01*
X0200600Y0052952D02*
X0200200Y0052952D01*
X0200200Y0051354D02*
X0200600Y0051354D01*
X0200600Y0049755D02*
X0200200Y0049755D01*
X0200200Y0048157D02*
X0200600Y0048157D01*
X0200600Y0046558D02*
X0200200Y0046558D01*
X0200200Y0044960D02*
X0200600Y0044960D01*
X0200600Y0043361D02*
X0200200Y0043361D01*
X0200200Y0041763D02*
X0200600Y0041763D01*
X0200600Y0040164D02*
X0200200Y0040164D01*
X0200200Y0038566D02*
X0200600Y0038566D01*
X0200600Y0036967D02*
X0200200Y0036967D01*
X0200200Y0035369D02*
X0200600Y0035369D01*
X0200600Y0033770D02*
X0200200Y0033770D01*
X0200200Y0032172D02*
X0200600Y0032172D01*
X0200600Y0030573D02*
X0200200Y0030573D01*
X0200200Y0028975D02*
X0200600Y0028975D01*
X0200600Y0027376D02*
X0200200Y0027376D01*
X0200200Y0025778D02*
X0200600Y0025778D01*
X0200600Y0024179D02*
X0200200Y0024179D01*
X0200200Y0022581D02*
X0200600Y0022581D01*
X0200600Y0020982D02*
X0200200Y0020982D01*
X0200200Y0019384D02*
X0200600Y0019384D01*
X0200600Y0017785D02*
X0200200Y0017785D01*
X0195600Y0017785D02*
X0192138Y0017785D01*
X0191806Y0017300D02*
X0193994Y0017300D01*
X0194810Y0016962D01*
X0195600Y0017753D01*
X0195600Y0104762D01*
X0195200Y0104362D01*
X0195200Y0020847D01*
X0191544Y0017192D01*
X0191806Y0017300D01*
X0193736Y0019384D02*
X0195600Y0019384D01*
X0195600Y0020982D02*
X0195200Y0020982D01*
X0195200Y0022581D02*
X0195600Y0022581D01*
X0195600Y0024179D02*
X0195200Y0024179D01*
X0195200Y0025778D02*
X0195600Y0025778D01*
X0195600Y0027376D02*
X0195200Y0027376D01*
X0195200Y0028975D02*
X0195600Y0028975D01*
X0195600Y0030573D02*
X0195200Y0030573D01*
X0195200Y0032172D02*
X0195600Y0032172D01*
X0195600Y0033770D02*
X0195200Y0033770D01*
X0195200Y0035369D02*
X0195600Y0035369D01*
X0195600Y0036967D02*
X0195200Y0036967D01*
X0195200Y0038566D02*
X0195600Y0038566D01*
X0195600Y0040164D02*
X0195200Y0040164D01*
X0195200Y0041763D02*
X0195600Y0041763D01*
X0195600Y0043361D02*
X0195200Y0043361D01*
X0195200Y0044960D02*
X0195600Y0044960D01*
X0195600Y0046558D02*
X0195200Y0046558D01*
X0195200Y0048157D02*
X0195600Y0048157D01*
X0195600Y0049755D02*
X0195200Y0049755D01*
X0195200Y0051354D02*
X0195600Y0051354D01*
X0195600Y0052952D02*
X0195200Y0052952D01*
X0195200Y0054551D02*
X0195600Y0054551D01*
X0195600Y0056149D02*
X0195200Y0056149D01*
X0195200Y0057748D02*
X0195600Y0057748D01*
X0195600Y0059346D02*
X0195200Y0059346D01*
X0195200Y0060945D02*
X0195600Y0060945D01*
X0195600Y0062543D02*
X0195200Y0062543D01*
X0195200Y0064142D02*
X0195600Y0064142D01*
X0195600Y0065740D02*
X0195200Y0065740D01*
X0195200Y0067339D02*
X0195600Y0067339D01*
X0195600Y0068937D02*
X0195200Y0068937D01*
X0195200Y0070536D02*
X0195600Y0070536D01*
X0195600Y0072134D02*
X0195200Y0072134D01*
X0195200Y0073733D02*
X0195600Y0073733D01*
X0195600Y0075332D02*
X0195200Y0075332D01*
X0195200Y0076930D02*
X0195600Y0076930D01*
X0195600Y0078529D02*
X0195200Y0078529D01*
X0195200Y0080127D02*
X0195600Y0080127D01*
X0195600Y0081726D02*
X0195200Y0081726D01*
X0195200Y0083324D02*
X0195600Y0083324D01*
X0195600Y0084923D02*
X0195200Y0084923D01*
X0195200Y0086521D02*
X0195600Y0086521D01*
X0195600Y0088120D02*
X0195200Y0088120D01*
X0195200Y0089718D02*
X0195600Y0089718D01*
X0195600Y0091317D02*
X0195200Y0091317D01*
X0195200Y0092915D02*
X0195600Y0092915D01*
X0195600Y0094514D02*
X0195200Y0094514D01*
X0195200Y0096112D02*
X0195600Y0096112D01*
X0195600Y0097711D02*
X0195200Y0097711D01*
X0195200Y0099309D02*
X0195600Y0099309D01*
X0195600Y0100908D02*
X0195200Y0100908D01*
X0195200Y0102506D02*
X0195600Y0102506D01*
X0195600Y0104105D02*
X0195200Y0104105D01*
X0190600Y0104105D02*
X0182700Y0104105D01*
X0182700Y0105703D02*
X0189728Y0105703D01*
X0189550Y0107302D02*
X0182700Y0107302D01*
X0182700Y0108900D02*
X0190263Y0108900D01*
X0195537Y0108900D02*
X0195600Y0108900D01*
X0195600Y0110499D02*
X0182700Y0110499D01*
X0182700Y0112097D02*
X0195600Y0112097D01*
X0195600Y0113696D02*
X0182700Y0113696D01*
X0182700Y0115294D02*
X0195600Y0115294D01*
X0195600Y0116893D02*
X0182700Y0116893D01*
X0182700Y0118491D02*
X0195600Y0118491D01*
X0195600Y0120090D02*
X0182700Y0120090D01*
X0182700Y0121688D02*
X0195600Y0121688D01*
X0195600Y0123287D02*
X0182700Y0123287D01*
X0182700Y0124885D02*
X0195600Y0124885D01*
X0195600Y0126484D02*
X0182700Y0126484D01*
X0182700Y0128082D02*
X0195600Y0128082D01*
X0200200Y0128082D02*
X0215600Y0128082D01*
X0215600Y0126484D02*
X0200200Y0126484D01*
X0200200Y0129681D02*
X0215600Y0129681D01*
X0215600Y0131279D02*
X0200200Y0131279D01*
X0200200Y0132878D02*
X0215600Y0132878D01*
X0215600Y0134476D02*
X0200200Y0134476D01*
X0200200Y0136075D02*
X0215372Y0136075D01*
X0213774Y0137673D02*
X0200200Y0137673D01*
X0200200Y0139272D02*
X0212175Y0139272D01*
X0210577Y0140870D02*
X0200223Y0140870D01*
X0201822Y0142469D02*
X0208978Y0142469D01*
X0205895Y0144068D02*
X0203420Y0144068D01*
X0209228Y0149876D02*
X0222508Y0163156D01*
X0222400Y0162894D01*
X0222400Y0160706D01*
X0223237Y0158684D01*
X0224622Y0157300D01*
X0223454Y0157300D01*
X0222400Y0156246D01*
X0222400Y0149553D01*
X0219447Y0146600D01*
X0218100Y0145253D01*
X0218100Y0139853D01*
X0211250Y0146703D01*
X0211250Y0147466D01*
X0210740Y0148698D01*
X0209798Y0149640D01*
X0209228Y0149876D01*
X0209814Y0150462D02*
X0222400Y0150462D01*
X0222400Y0152060D02*
X0211413Y0152060D01*
X0213011Y0153659D02*
X0222400Y0153659D01*
X0222400Y0155257D02*
X0214610Y0155257D01*
X0216208Y0156856D02*
X0223010Y0156856D01*
X0223468Y0158454D02*
X0217807Y0158454D01*
X0219405Y0160053D02*
X0222671Y0160053D01*
X0222400Y0161651D02*
X0221004Y0161651D01*
X0221710Y0148863D02*
X0210575Y0148863D01*
X0211250Y0147265D02*
X0220112Y0147265D01*
X0218513Y0145666D02*
X0212287Y0145666D01*
X0213885Y0144068D02*
X0218100Y0144068D01*
X0218100Y0142469D02*
X0215484Y0142469D01*
X0217082Y0140870D02*
X0218100Y0140870D01*
X0225019Y0145666D02*
X0232244Y0145666D01*
X0231403Y0136075D02*
X0233100Y0136075D01*
X0233100Y0134476D02*
X0232745Y0134476D01*
X0233100Y0129982D02*
X0233100Y0123618D01*
X0232563Y0124915D01*
X0231015Y0126463D01*
X0230201Y0126800D01*
X0231015Y0127137D01*
X0232563Y0128684D01*
X0233100Y0129982D01*
X0233100Y0129681D02*
X0232975Y0129681D01*
X0233100Y0128082D02*
X0231961Y0128082D01*
X0230964Y0126484D02*
X0233100Y0126484D01*
X0233100Y0124885D02*
X0232575Y0124885D01*
X0190600Y0102506D02*
X0182700Y0102506D01*
X0182700Y0100908D02*
X0190600Y0100908D01*
X0190600Y0099309D02*
X0182700Y0099309D01*
X0182700Y0097711D02*
X0190600Y0097711D01*
X0190600Y0096112D02*
X0182700Y0096112D01*
X0182700Y0094514D02*
X0190600Y0094514D01*
X0190600Y0092915D02*
X0182700Y0092915D01*
X0182700Y0091317D02*
X0190600Y0091317D01*
X0190600Y0089718D02*
X0184609Y0089718D01*
X0185979Y0088120D02*
X0190600Y0088120D01*
X0190600Y0086521D02*
X0186250Y0086521D01*
X0185748Y0084923D02*
X0190600Y0084923D01*
X0190600Y0083324D02*
X0185200Y0083324D01*
X0185200Y0081726D02*
X0190600Y0081726D01*
X0190600Y0080127D02*
X0185200Y0080127D01*
X0185200Y0078529D02*
X0190600Y0078529D01*
X0190600Y0076930D02*
X0185200Y0076930D01*
X0185200Y0075332D02*
X0190600Y0075332D01*
X0190600Y0073733D02*
X0185200Y0073733D01*
X0185200Y0072134D02*
X0190600Y0072134D01*
X0190600Y0070536D02*
X0185200Y0070536D01*
X0185200Y0068937D02*
X0190600Y0068937D01*
X0190600Y0067339D02*
X0185200Y0067339D01*
X0185200Y0065740D02*
X0190600Y0065740D01*
X0190600Y0064142D02*
X0185200Y0064142D01*
X0185200Y0062543D02*
X0190600Y0062543D01*
X0190600Y0060945D02*
X0185200Y0060945D01*
X0185200Y0059346D02*
X0185709Y0059346D01*
X0180600Y0059346D02*
X0177837Y0059346D01*
X0178400Y0060945D02*
X0180600Y0060945D01*
X0180600Y0062543D02*
X0178400Y0062543D01*
X0177883Y0064142D02*
X0180600Y0064142D01*
X0180600Y0065740D02*
X0176738Y0065740D01*
X0176217Y0067339D02*
X0180600Y0067339D01*
X0180600Y0068937D02*
X0177667Y0068937D01*
X0178330Y0070536D02*
X0180600Y0070536D01*
X0180600Y0072134D02*
X0178400Y0072134D01*
X0178052Y0073733D02*
X0180600Y0073733D01*
X0180600Y0075332D02*
X0177147Y0075332D01*
X0175515Y0076930D02*
X0180600Y0076930D01*
X0180600Y0078529D02*
X0177407Y0078529D01*
X0178160Y0080127D02*
X0180600Y0080127D01*
X0180600Y0081726D02*
X0178400Y0081726D01*
X0178222Y0083324D02*
X0180600Y0083324D01*
X0180052Y0084923D02*
X0179275Y0084923D01*
X0174810Y0086962D02*
X0173994Y0087300D01*
X0171806Y0087300D01*
X0169784Y0086463D01*
X0168237Y0084915D01*
X0167400Y0082894D01*
X0167400Y0080706D01*
X0168237Y0078684D01*
X0169784Y0077137D01*
X0170599Y0076800D01*
X0169784Y0076463D01*
X0168237Y0074915D01*
X0167400Y0072894D01*
X0167400Y0070706D01*
X0167508Y0070444D01*
X0165200Y0072753D01*
X0165200Y0116247D01*
X0167738Y0113710D01*
X0167400Y0112894D01*
X0167400Y0110706D01*
X0168237Y0108684D01*
X0169622Y0107300D01*
X0168454Y0107300D01*
X0167400Y0106246D01*
X0167400Y0097354D01*
X0168454Y0096300D01*
X0177346Y0096300D01*
X0178100Y0097054D01*
X0178100Y0090253D01*
X0174810Y0086962D01*
X0175967Y0088120D02*
X0165200Y0088120D01*
X0165200Y0089718D02*
X0177565Y0089718D01*
X0178100Y0091317D02*
X0165200Y0091317D01*
X0165200Y0092915D02*
X0178100Y0092915D01*
X0178100Y0094514D02*
X0165200Y0094514D01*
X0165200Y0096112D02*
X0178100Y0096112D01*
X0167400Y0097711D02*
X0165200Y0097711D01*
X0165200Y0099309D02*
X0167400Y0099309D01*
X0167400Y0100908D02*
X0165200Y0100908D01*
X0165200Y0102506D02*
X0167400Y0102506D01*
X0167400Y0104105D02*
X0165200Y0104105D01*
X0165200Y0105703D02*
X0167400Y0105703D01*
X0165200Y0107302D02*
X0169620Y0107302D01*
X0168148Y0108900D02*
X0165200Y0108900D01*
X0165200Y0110499D02*
X0167486Y0110499D01*
X0167400Y0112097D02*
X0165200Y0112097D01*
X0165200Y0113696D02*
X0167732Y0113696D01*
X0166153Y0115294D02*
X0165200Y0115294D01*
X0175201Y0116800D02*
X0176015Y0117137D01*
X0177563Y0118684D01*
X0178100Y0119982D01*
X0178100Y0113618D01*
X0177563Y0114915D01*
X0176015Y0116463D01*
X0175201Y0116800D01*
X0175425Y0116893D02*
X0178100Y0116893D01*
X0178100Y0118491D02*
X0177369Y0118491D01*
X0177184Y0115294D02*
X0178100Y0115294D01*
X0178068Y0113696D02*
X0178100Y0113696D01*
X0178100Y0109982D02*
X0178100Y0106546D01*
X0177346Y0107300D01*
X0176178Y0107300D01*
X0177563Y0108684D01*
X0178100Y0109982D01*
X0178100Y0108900D02*
X0177652Y0108900D01*
X0178100Y0107302D02*
X0176180Y0107302D01*
X0177575Y0124885D02*
X0178100Y0124885D01*
X0178100Y0133618D02*
X0178062Y0133710D01*
X0178100Y0133747D01*
X0178100Y0133618D01*
X0143978Y0142469D02*
X0007500Y0142469D01*
X0007500Y0144068D02*
X0142380Y0144068D01*
X0140781Y0145666D02*
X0007500Y0145666D01*
X0007500Y0172841D02*
X0125600Y0172841D01*
X0125523Y0174439D02*
X0007500Y0174439D01*
X0007500Y0176038D02*
X0124590Y0176038D01*
X0124620Y0177636D02*
X0007500Y0177636D01*
X0007500Y0179235D02*
X0125597Y0179235D01*
X0107295Y0198417D02*
X0218505Y0198417D01*
X0217686Y0200015D02*
X0108114Y0200015D01*
X0108400Y0201614D02*
X0217400Y0201614D01*
X0217532Y0203212D02*
X0108268Y0203212D01*
X0107606Y0204811D02*
X0218194Y0204811D01*
X0226278Y0206200D02*
X0227563Y0204915D01*
X0227900Y0204101D01*
X0228237Y0204915D01*
X0229522Y0206200D01*
X0226278Y0206200D01*
X0227606Y0204811D02*
X0228194Y0204811D01*
X0228505Y0198417D02*
X0227295Y0198417D01*
X0225245Y0196818D02*
X0230554Y0196818D01*
X0277700Y0086521D02*
X0279926Y0086521D01*
X0278244Y0084923D02*
X0277700Y0084923D01*
X0277700Y0079982D02*
X0278237Y0078684D01*
X0279784Y0077137D01*
X0280599Y0076800D01*
X0279784Y0076463D01*
X0278237Y0074915D01*
X0277700Y0073618D01*
X0277700Y0079982D01*
X0277700Y0078529D02*
X0278393Y0078529D01*
X0277700Y0076930D02*
X0280285Y0076930D01*
X0278653Y0075332D02*
X0277700Y0075332D01*
X0277700Y0073733D02*
X0277748Y0073733D01*
X0277700Y0068937D02*
X0278133Y0068937D01*
X0277700Y0067339D02*
X0279583Y0067339D01*
X0279062Y0065740D02*
X0277593Y0065740D01*
X0277917Y0064142D02*
X0275995Y0064142D01*
X0277400Y0062543D02*
X0274396Y0062543D01*
X0272798Y0060945D02*
X0277400Y0060945D01*
X0277963Y0059346D02*
X0271199Y0059346D01*
X0269601Y0057748D02*
X0279174Y0057748D01*
X0277400Y0056149D02*
X0268002Y0056149D01*
X0266404Y0054551D02*
X0277400Y0054551D01*
X0277400Y0052952D02*
X0264805Y0052952D01*
X0263207Y0051354D02*
X0277400Y0051354D01*
X0277400Y0049755D02*
X0261608Y0049755D01*
X0260010Y0048157D02*
X0277400Y0048157D01*
X0278196Y0046558D02*
X0258411Y0046558D01*
X0245512Y0040164D02*
X0230200Y0040164D01*
X0230200Y0038566D02*
X0243913Y0038566D01*
X0242315Y0036967D02*
X0234797Y0036967D01*
X0237109Y0035369D02*
X0240716Y0035369D01*
X0239118Y0033770D02*
X0238037Y0033770D01*
X0231003Y0036967D02*
X0230200Y0036967D01*
X0228117Y0028975D02*
X0227683Y0028975D01*
X0226254Y0027376D02*
X0229546Y0027376D01*
X0207900Y0009499D02*
X0208237Y0008684D01*
X0209522Y0007400D01*
X0206278Y0007400D01*
X0207563Y0008684D01*
X0207900Y0009499D01*
X0207072Y0008194D02*
X0208728Y0008194D01*
X0199522Y0007400D02*
X0196278Y0007400D01*
X0197563Y0008684D01*
X0197900Y0009499D01*
X0198237Y0008684D01*
X0199522Y0007400D01*
X0198728Y0008194D02*
X0197072Y0008194D01*
X0189522Y0007400D02*
X0186278Y0007400D01*
X0187563Y0008684D01*
X0187900Y0009499D01*
X0188237Y0008684D01*
X0189522Y0007400D01*
X0188728Y0008194D02*
X0187072Y0008194D01*
X0179522Y0007400D02*
X0176278Y0007400D01*
X0177563Y0008684D01*
X0177900Y0009499D01*
X0178237Y0008684D01*
X0179522Y0007400D01*
X0178728Y0008194D02*
X0177072Y0008194D01*
X0169522Y0007400D02*
X0166278Y0007400D01*
X0167563Y0008684D01*
X0167900Y0009499D01*
X0168237Y0008684D01*
X0169522Y0007400D01*
X0168728Y0008194D02*
X0167072Y0008194D01*
X0159522Y0007400D02*
X0156278Y0007400D01*
X0157563Y0008684D01*
X0157900Y0009499D01*
X0158237Y0008684D01*
X0159522Y0007400D01*
X0158728Y0008194D02*
X0157072Y0008194D01*
X0149522Y0007400D02*
X0146278Y0007400D01*
X0147563Y0008684D01*
X0147900Y0009499D01*
X0148237Y0008684D01*
X0149522Y0007400D01*
X0148728Y0008194D02*
X0147072Y0008194D01*
X0147698Y0014588D02*
X0148102Y0014588D01*
X0149508Y0016187D02*
X0146292Y0016187D01*
X0161544Y0017192D02*
X0183853Y0039500D01*
X0185200Y0040847D01*
X0185200Y0054762D01*
X0185600Y0054362D01*
X0185600Y0027753D01*
X0174810Y0016962D01*
X0173994Y0017300D01*
X0171806Y0017300D01*
X0169784Y0016463D01*
X0168237Y0014915D01*
X0167900Y0014101D01*
X0167563Y0014915D01*
X0166015Y0016463D01*
X0163994Y0017300D01*
X0161806Y0017300D01*
X0161544Y0017192D01*
X0162138Y0017785D02*
X0175632Y0017785D01*
X0177231Y0019384D02*
X0163736Y0019384D01*
X0165335Y0020982D02*
X0178829Y0020982D01*
X0180428Y0022581D02*
X0166933Y0022581D01*
X0168532Y0024179D02*
X0182026Y0024179D01*
X0183625Y0025778D02*
X0170130Y0025778D01*
X0171729Y0027376D02*
X0185223Y0027376D01*
X0185600Y0028975D02*
X0173327Y0028975D01*
X0174926Y0030573D02*
X0185600Y0030573D01*
X0185600Y0032172D02*
X0176524Y0032172D01*
X0178123Y0033770D02*
X0185600Y0033770D01*
X0185600Y0035369D02*
X0179721Y0035369D01*
X0181320Y0036967D02*
X0185600Y0036967D01*
X0185600Y0038566D02*
X0182918Y0038566D01*
X0184517Y0040164D02*
X0185600Y0040164D01*
X0185600Y0041763D02*
X0185200Y0041763D01*
X0185200Y0043361D02*
X0185600Y0043361D01*
X0185600Y0044960D02*
X0185200Y0044960D01*
X0185200Y0046558D02*
X0185600Y0046558D01*
X0185600Y0048157D02*
X0185200Y0048157D01*
X0185200Y0049755D02*
X0185600Y0049755D01*
X0185600Y0051354D02*
X0185200Y0051354D01*
X0185200Y0052952D02*
X0185600Y0052952D01*
X0185412Y0054551D02*
X0185200Y0054551D01*
X0180600Y0054551D02*
X0178400Y0054551D01*
X0178400Y0056149D02*
X0180600Y0056149D01*
X0180600Y0057748D02*
X0176626Y0057748D01*
X0178400Y0052952D02*
X0180600Y0052952D01*
X0180600Y0051354D02*
X0178400Y0051354D01*
X0178400Y0049755D02*
X0180600Y0049755D01*
X0180600Y0048157D02*
X0178400Y0048157D01*
X0177604Y0046558D02*
X0180600Y0046558D01*
X0190200Y0046558D02*
X0190600Y0046558D01*
X0190600Y0044960D02*
X0190200Y0044960D01*
X0190200Y0043361D02*
X0190600Y0043361D01*
X0190600Y0041763D02*
X0190200Y0041763D01*
X0190200Y0040164D02*
X0190600Y0040164D01*
X0190600Y0038566D02*
X0190200Y0038566D01*
X0190200Y0036967D02*
X0190600Y0036967D01*
X0190600Y0035369D02*
X0190200Y0035369D01*
X0190200Y0033770D02*
X0190600Y0033770D01*
X0190600Y0032172D02*
X0190200Y0032172D01*
X0190200Y0030573D02*
X0190600Y0030573D01*
X0190600Y0028975D02*
X0190200Y0028975D01*
X0190200Y0027376D02*
X0190600Y0027376D01*
X0190200Y0025847D02*
X0190200Y0054362D01*
X0190600Y0054762D01*
X0190600Y0022753D01*
X0184810Y0016962D01*
X0183994Y0017300D01*
X0181806Y0017300D01*
X0181544Y0017192D01*
X0188853Y0024500D01*
X0190200Y0025847D01*
X0190130Y0025778D02*
X0190600Y0025778D01*
X0190600Y0024179D02*
X0188532Y0024179D01*
X0186933Y0022581D02*
X0190428Y0022581D01*
X0188829Y0020982D02*
X0185335Y0020982D01*
X0183736Y0019384D02*
X0187231Y0019384D01*
X0185632Y0017785D02*
X0182138Y0017785D01*
X0169508Y0016187D02*
X0166292Y0016187D01*
X0167698Y0014588D02*
X0168102Y0014588D01*
X0190200Y0048157D02*
X0190600Y0048157D01*
X0190600Y0049755D02*
X0190200Y0049755D01*
X0190200Y0051354D02*
X0190600Y0051354D01*
X0190600Y0052952D02*
X0190200Y0052952D01*
X0190388Y0054551D02*
X0190600Y0054551D01*
X0190600Y0059346D02*
X0190091Y0059346D01*
X0167748Y0073733D02*
X0165200Y0073733D01*
X0165200Y0075332D02*
X0168653Y0075332D01*
X0170285Y0076930D02*
X0165200Y0076930D01*
X0165200Y0078529D02*
X0168393Y0078529D01*
X0167640Y0080127D02*
X0165200Y0080127D01*
X0165200Y0081726D02*
X0167400Y0081726D01*
X0167578Y0083324D02*
X0165200Y0083324D01*
X0165200Y0084923D02*
X0168244Y0084923D01*
X0169926Y0086521D02*
X0165200Y0086521D01*
X0165818Y0072134D02*
X0167400Y0072134D01*
X0167417Y0070536D02*
X0167470Y0070536D01*
X0060554Y0196818D02*
X0055245Y0196818D01*
X0057295Y0198417D02*
X0058505Y0198417D01*
X0014054Y0196818D02*
X0008745Y0196818D01*
X0010795Y0198417D02*
X0012005Y0198417D01*
X0011400Y0204101D02*
X0011063Y0204915D01*
X0009778Y0206200D01*
X0013022Y0206200D01*
X0011737Y0204915D01*
X0011400Y0204101D01*
X0011106Y0204811D02*
X0011694Y0204811D01*
M02*
