%
M48
M72
T01C0.01500
T02C0.04000
%
T01
X142900Y134300
X157900Y124300
X125400Y151800
X125400Y166800
X152900Y176800
X157900Y174300
X142900Y216800
X25400Y214300
X20400Y174300
X205400Y44300
T02
X142900Y11800
X152900Y11800
X162900Y11800
X172900Y11800
X182900Y11800
X192900Y11800
X202900Y11800
X212900Y11800
X222900Y31800
X232900Y31800
X227900Y51800
X227900Y61800
X227900Y71800
X227900Y81800
X227900Y101800
X227900Y111800
X227900Y121800
X227900Y131800
X227900Y151800
X227900Y161800
X227900Y171800
X227900Y181800
X222900Y201800
X232900Y201800
X227900Y216800
X227900Y226800
X227900Y236800
X227900Y246800
X172900Y246800
X172900Y236800
X172900Y226800
X172900Y216800
X172900Y181800
X172900Y171800
X172900Y161800
X172900Y151800
X172900Y131800
X172900Y121800
X172900Y111800
X172900Y101800
X172900Y81800
X172900Y71800
X172900Y61800
X172900Y51800
X102900Y201800
X92900Y201800
X82900Y201800
X72900Y201800
X62900Y201800
X52900Y201800
X42900Y201800
X32900Y201800
X16400Y201800
X6400Y201800
M30
