G75*
%MOIN*%
%OFA0B0*%
%FSLAX25Y25*%
%IPPOS*%
%LPD*%
%AMOC8*
5,1,8,0,0,1.08239X$1,22.5*
%
%ADD10C,0.01600*%
%ADD11C,0.00400*%
%ADD12C,0.00900*%
%ADD13C,0.00500*%
%ADD14C,0.00100*%
%ADD15C,0.00800*%
%ADD16C,0.00700*%
D10*
X0133684Y0072600D02*
X0142892Y0072600D01*
X0139823Y0078739D01*
X0139823Y0081808D01*
X0142892Y0084877D01*
X0149031Y0084877D01*
X0152100Y0081808D01*
X0152100Y0075669D01*
X0149031Y0072600D01*
X0133684Y0072600D02*
X0133684Y0084877D01*
X0142892Y0122600D02*
X0142892Y0131808D01*
X0145961Y0134877D01*
X0149031Y0134877D01*
X0152100Y0131808D01*
X0152100Y0125669D01*
X0149031Y0122600D01*
X0142892Y0122600D01*
X0136754Y0128739D01*
X0133684Y0134877D01*
X0133684Y0172600D02*
X0133684Y0184877D01*
X0136754Y0184877D01*
X0149031Y0172600D01*
X0152100Y0172600D01*
X0188684Y0175669D02*
X0191754Y0172600D01*
X0188684Y0175669D02*
X0188684Y0181808D01*
X0191754Y0184877D01*
X0194823Y0184877D01*
X0207100Y0172600D01*
X0207100Y0184877D01*
X0204031Y0134877D02*
X0200961Y0134877D01*
X0197892Y0131808D01*
X0197892Y0128739D01*
X0197892Y0131808D02*
X0194823Y0134877D01*
X0191754Y0134877D01*
X0188684Y0131808D01*
X0188684Y0125669D01*
X0191754Y0122600D01*
X0204031Y0122600D02*
X0207100Y0125669D01*
X0207100Y0131808D01*
X0204031Y0134877D01*
X0197892Y0084877D02*
X0197892Y0072600D01*
X0188684Y0081808D01*
X0207100Y0081808D01*
X0207100Y0237600D02*
X0207100Y0249877D01*
X0207100Y0243739D02*
X0188684Y0243739D01*
X0194823Y0237600D01*
X0152100Y0240669D02*
X0149031Y0237600D01*
X0145961Y0237600D01*
X0142892Y0240669D01*
X0142892Y0246808D01*
X0145961Y0249877D01*
X0149031Y0249877D01*
X0152100Y0246808D01*
X0152100Y0240669D01*
X0142892Y0240669D02*
X0139823Y0237600D01*
X0136754Y0237600D01*
X0133684Y0240669D01*
X0133684Y0246808D01*
X0136754Y0249877D01*
X0139823Y0249877D01*
X0142892Y0246808D01*
D11*
X0036116Y0246600D02*
X0033046Y0243531D01*
X0033046Y0242763D01*
X0033814Y0241996D01*
X0035348Y0241996D01*
X0036116Y0242763D01*
X0036116Y0246600D02*
X0033046Y0246600D01*
X0031512Y0245833D02*
X0031512Y0242763D01*
X0030745Y0241996D01*
X0029210Y0241996D01*
X0028443Y0242763D01*
X0031512Y0245833D01*
X0030745Y0246600D01*
X0029210Y0246600D01*
X0028443Y0245833D01*
X0028443Y0242763D01*
X0026908Y0243531D02*
X0025373Y0241996D01*
X0025373Y0246600D01*
X0023839Y0246600D02*
X0026908Y0246600D01*
X0022304Y0245833D02*
X0021537Y0246600D01*
X0020002Y0246600D01*
X0019235Y0245833D01*
X0019235Y0244298D01*
X0020002Y0243531D01*
X0020769Y0243531D01*
X0022304Y0244298D01*
X0022304Y0241996D01*
X0019235Y0241996D01*
X0019235Y0239100D02*
X0022304Y0239100D01*
X0019235Y0236031D01*
X0019235Y0235263D01*
X0020002Y0234496D01*
X0021537Y0234496D01*
X0022304Y0235263D01*
X0023839Y0236031D02*
X0025373Y0239100D01*
X0026908Y0236031D01*
X0239596Y0094549D02*
X0239596Y0093014D01*
X0240363Y0092247D01*
X0243433Y0092247D01*
X0244200Y0093014D01*
X0244200Y0094549D01*
X0243433Y0095316D01*
X0240363Y0095316D02*
X0239596Y0094549D01*
X0240363Y0090712D02*
X0239596Y0089945D01*
X0239596Y0088410D01*
X0240363Y0087643D01*
X0243433Y0087643D01*
X0244200Y0088410D01*
X0244200Y0089945D01*
X0243433Y0090712D01*
X0242665Y0086109D02*
X0239596Y0086109D01*
X0239596Y0083039D02*
X0242665Y0083039D01*
X0244200Y0084574D01*
X0242665Y0086109D01*
X0241898Y0081505D02*
X0241898Y0078435D01*
X0241898Y0076901D02*
X0241898Y0073831D01*
X0241131Y0073831D02*
X0239596Y0075366D01*
X0241131Y0076901D01*
X0244200Y0076901D01*
X0244200Y0073831D02*
X0241131Y0073831D01*
X0241898Y0072297D02*
X0241898Y0069227D01*
X0240363Y0067693D02*
X0239596Y0066926D01*
X0239596Y0064624D01*
X0244200Y0064624D01*
X0244200Y0066926D01*
X0243433Y0067693D01*
X0240363Y0067693D01*
X0239596Y0063089D02*
X0239596Y0060020D01*
X0244200Y0060020D01*
X0244200Y0063089D01*
X0241898Y0061554D02*
X0241898Y0060020D01*
X0244200Y0058485D02*
X0244200Y0055416D01*
X0239596Y0055416D01*
X0241898Y0053881D02*
X0241898Y0050812D01*
X0240363Y0049277D02*
X0239596Y0048510D01*
X0239596Y0046208D01*
X0244200Y0046208D01*
X0244200Y0048510D01*
X0243433Y0049277D01*
X0240363Y0049277D01*
X0239596Y0044673D02*
X0244200Y0044673D01*
X0239596Y0041604D01*
X0244200Y0041604D01*
X0243433Y0040069D02*
X0241898Y0040069D01*
X0241898Y0038535D01*
X0240363Y0040069D02*
X0239596Y0039302D01*
X0239596Y0037767D01*
X0240363Y0037000D01*
X0243433Y0037000D01*
X0244200Y0037767D01*
X0244200Y0039302D01*
X0243433Y0040069D01*
D12*
X0110984Y0218491D02*
X0105680Y0218491D01*
X0103912Y0220259D01*
X0103912Y0227332D01*
X0105680Y0229100D01*
X0110984Y0229100D01*
X0110984Y0218491D01*
X0100395Y0218491D02*
X0093323Y0218491D01*
X0096859Y0218491D02*
X0096859Y0229100D01*
X0096866Y0235741D02*
X0096866Y0246350D01*
X0093329Y0242814D01*
X0089793Y0246350D01*
X0089793Y0235741D01*
X0086277Y0235741D02*
X0082740Y0239277D01*
X0079204Y0235741D01*
X0079204Y0246350D01*
X0075687Y0241045D02*
X0068615Y0241045D01*
X0065098Y0235741D02*
X0061562Y0235741D01*
X0063330Y0235741D02*
X0063330Y0246350D01*
X0065098Y0246350D02*
X0061562Y0246350D01*
X0058039Y0244582D02*
X0056271Y0246350D01*
X0052735Y0246350D01*
X0050966Y0244582D01*
X0050966Y0237509D01*
X0052735Y0235741D01*
X0056271Y0235741D01*
X0058039Y0237509D01*
X0058039Y0244582D01*
X0056271Y0229100D02*
X0052735Y0229100D01*
X0050966Y0227332D01*
X0050966Y0225564D01*
X0052735Y0223795D01*
X0056271Y0223795D01*
X0058039Y0222027D01*
X0058039Y0220259D01*
X0056271Y0218491D01*
X0052735Y0218491D01*
X0050966Y0220259D01*
X0050966Y0222027D01*
X0052735Y0223795D01*
X0056271Y0223795D02*
X0058039Y0225564D01*
X0058039Y0227332D01*
X0056271Y0229100D01*
X0061555Y0223795D02*
X0068628Y0223795D01*
X0073913Y0227332D02*
X0073913Y0218491D01*
X0075681Y0218491D02*
X0072144Y0218491D01*
X0073913Y0227332D02*
X0075681Y0229100D01*
X0077449Y0229100D01*
X0079217Y0227332D01*
X0082733Y0229100D02*
X0089806Y0229100D01*
X0089806Y0218491D01*
X0086277Y0235741D02*
X0086277Y0246350D01*
X0100382Y0241045D02*
X0100382Y0237509D01*
X0102150Y0235741D01*
X0107455Y0235741D01*
X0107455Y0246350D01*
X0107455Y0242814D02*
X0102150Y0242814D01*
X0100382Y0241045D01*
D13*
X0097641Y0194354D02*
X0094638Y0194354D01*
X0097641Y0193603D02*
X0094638Y0190601D01*
X0094638Y0189850D01*
X0093037Y0189099D02*
X0090034Y0189099D01*
X0088433Y0189850D02*
X0088433Y0194354D01*
X0086932Y0192853D01*
X0085430Y0194354D01*
X0085430Y0189850D01*
X0083829Y0189850D02*
X0083829Y0194354D01*
X0080826Y0194354D02*
X0080826Y0189850D01*
X0082328Y0191351D01*
X0083829Y0189850D01*
X0079225Y0192102D02*
X0078474Y0191351D01*
X0076222Y0191351D01*
X0076222Y0189850D02*
X0076222Y0194354D01*
X0078474Y0194354D01*
X0079225Y0193603D01*
X0079225Y0192102D01*
X0097641Y0193603D02*
X0097641Y0194354D01*
X0099242Y0192102D02*
X0102245Y0192102D01*
X0103846Y0193603D02*
X0104597Y0194354D01*
X0106098Y0194354D01*
X0106849Y0193603D01*
X0106849Y0192853D01*
X0103846Y0189850D01*
X0106849Y0189850D01*
X0160900Y0186800D02*
X0160900Y0146800D01*
X0182900Y0146800D01*
X0182900Y0151800D01*
X0177900Y0151800D01*
X0177900Y0181800D01*
X0182900Y0181800D01*
X0182900Y0151800D01*
X0182900Y0136800D02*
X0182900Y0131800D01*
X0177900Y0131800D01*
X0177900Y0101800D01*
X0182900Y0101800D01*
X0182900Y0096800D01*
X0160900Y0096800D01*
X0160900Y0136800D01*
X0182900Y0136800D01*
X0182900Y0131800D02*
X0182900Y0101800D01*
X0182900Y0086800D02*
X0182900Y0081800D01*
X0177900Y0081800D01*
X0177900Y0051800D01*
X0182900Y0051800D01*
X0182900Y0046800D01*
X0160900Y0046800D01*
X0160900Y0086800D01*
X0182900Y0086800D01*
X0182900Y0081800D02*
X0182900Y0051800D01*
X0182286Y0024354D02*
X0180785Y0024354D01*
X0180034Y0023603D01*
X0180034Y0022853D01*
X0180785Y0022102D01*
X0182286Y0022102D01*
X0183037Y0021351D01*
X0183037Y0020601D01*
X0182286Y0019850D01*
X0180785Y0019850D01*
X0180034Y0020601D01*
X0180034Y0021351D01*
X0180785Y0022102D01*
X0182286Y0022102D02*
X0183037Y0022853D01*
X0183037Y0023603D01*
X0182286Y0024354D01*
X0184638Y0022102D02*
X0187641Y0022102D01*
X0189242Y0022853D02*
X0190743Y0024354D01*
X0190743Y0019850D01*
X0189242Y0019850D02*
X0192245Y0019850D01*
X0193846Y0020601D02*
X0194597Y0019850D01*
X0196098Y0019850D01*
X0196849Y0020601D01*
X0196849Y0022102D01*
X0196098Y0022853D01*
X0195347Y0022853D01*
X0193846Y0022102D01*
X0193846Y0024354D01*
X0196849Y0024354D01*
X0178433Y0019099D02*
X0175430Y0019099D01*
X0173829Y0019850D02*
X0173829Y0024354D01*
X0170826Y0024354D02*
X0173829Y0019850D01*
X0170826Y0019850D02*
X0170826Y0024354D01*
X0169258Y0024354D02*
X0167757Y0024354D01*
X0168508Y0024354D02*
X0168508Y0019850D01*
X0169258Y0019850D02*
X0167757Y0019850D01*
X0166156Y0020601D02*
X0166156Y0022102D01*
X0164654Y0022102D01*
X0163153Y0023603D02*
X0163153Y0020601D01*
X0163904Y0019850D01*
X0165405Y0019850D01*
X0166156Y0020601D01*
X0166156Y0023603D02*
X0165405Y0024354D01*
X0163904Y0024354D01*
X0163153Y0023603D01*
X0161552Y0023603D02*
X0161552Y0020601D01*
X0160801Y0019850D01*
X0159300Y0019850D01*
X0158549Y0020601D01*
X0158549Y0023603D01*
X0159300Y0024354D01*
X0160801Y0024354D01*
X0161552Y0023603D01*
X0156948Y0019850D02*
X0153945Y0019850D01*
X0153945Y0024354D01*
X0152344Y0022853D02*
X0152344Y0019850D01*
X0152344Y0022102D02*
X0149341Y0022102D01*
X0149341Y0022853D02*
X0150843Y0024354D01*
X0152344Y0022853D01*
X0149341Y0022853D02*
X0149341Y0019850D01*
X0147740Y0019850D02*
X0147740Y0024354D01*
X0144737Y0024354D02*
X0144737Y0019850D01*
X0143136Y0019850D02*
X0143136Y0022853D01*
X0141635Y0024354D01*
X0140134Y0022853D01*
X0140134Y0019850D01*
X0140134Y0022102D02*
X0143136Y0022102D01*
X0144737Y0024354D02*
X0147740Y0019850D01*
X0215900Y0046800D02*
X0215900Y0086800D01*
X0237900Y0086800D01*
X0237900Y0081800D01*
X0232900Y0081800D01*
X0232900Y0051800D01*
X0237900Y0051800D01*
X0237900Y0046800D01*
X0215900Y0046800D01*
X0237900Y0051800D02*
X0237900Y0081800D01*
X0237900Y0096800D02*
X0237900Y0101800D01*
X0232900Y0101800D01*
X0232900Y0131800D01*
X0237900Y0131800D01*
X0237900Y0101800D01*
X0237900Y0096800D02*
X0215900Y0096800D01*
X0215900Y0136800D01*
X0237900Y0136800D01*
X0237900Y0131800D01*
X0237900Y0146800D02*
X0237900Y0151800D01*
X0232900Y0151800D01*
X0232900Y0181800D01*
X0237900Y0181800D01*
X0237900Y0151800D01*
X0237900Y0146800D02*
X0215900Y0146800D01*
X0215900Y0186800D01*
X0237900Y0186800D01*
X0237900Y0181800D01*
X0237900Y0211800D02*
X0215900Y0211800D01*
X0215900Y0251800D01*
X0237900Y0251800D01*
X0237900Y0246800D01*
X0232900Y0246800D01*
X0232900Y0216800D01*
X0237900Y0216800D01*
X0237900Y0211800D01*
X0237900Y0216800D02*
X0237900Y0246800D01*
X0182900Y0246800D02*
X0182900Y0216800D01*
X0177900Y0216800D01*
X0177900Y0246800D01*
X0182900Y0246800D01*
X0182900Y0251800D01*
X0160900Y0251800D01*
X0160900Y0211800D01*
X0182900Y0211800D01*
X0182900Y0216800D01*
X0182900Y0186800D02*
X0160900Y0186800D01*
X0182900Y0186800D02*
X0182900Y0181800D01*
X0035349Y0190601D02*
X0034598Y0189850D01*
X0033097Y0189850D01*
X0032346Y0190601D01*
X0032346Y0191351D01*
X0033097Y0192102D01*
X0034598Y0192102D01*
X0035349Y0191351D01*
X0035349Y0190601D01*
X0034598Y0192102D02*
X0035349Y0192853D01*
X0035349Y0193603D01*
X0034598Y0194354D01*
X0033097Y0194354D01*
X0032346Y0193603D01*
X0032346Y0192853D01*
X0033097Y0192102D01*
X0030745Y0192102D02*
X0027742Y0192102D01*
X0026141Y0192102D02*
X0023889Y0192102D01*
X0023138Y0192853D01*
X0023138Y0193603D01*
X0023889Y0194354D01*
X0025390Y0194354D01*
X0026141Y0193603D01*
X0026141Y0190601D01*
X0025390Y0189850D01*
X0023889Y0189850D01*
X0023138Y0190601D01*
X0021537Y0189099D02*
X0018534Y0189099D01*
X0016933Y0189850D02*
X0016933Y0194354D01*
X0015432Y0192853D01*
X0013930Y0194354D01*
X0013930Y0189850D01*
X0012329Y0189850D02*
X0012329Y0194354D01*
X0009326Y0194354D02*
X0009326Y0189850D01*
X0010828Y0191351D01*
X0012329Y0189850D01*
X0007725Y0192102D02*
X0007725Y0193603D01*
X0006974Y0194354D01*
X0004722Y0194354D01*
X0004722Y0189850D01*
X0004722Y0191351D02*
X0006974Y0191351D01*
X0007725Y0192102D01*
D14*
X0017449Y0175877D02*
X0018950Y0175877D01*
X0018950Y0175377D02*
X0018950Y0176378D01*
X0017949Y0175377D02*
X0017449Y0175877D01*
X0017699Y0174904D02*
X0017449Y0174654D01*
X0017449Y0173903D01*
X0018950Y0173903D01*
X0018450Y0173903D02*
X0018450Y0174654D01*
X0018199Y0174904D01*
X0017699Y0174904D01*
X0018450Y0174404D02*
X0018950Y0174904D01*
X0032449Y0174654D02*
X0032449Y0173903D01*
X0033950Y0173903D01*
X0033450Y0173903D02*
X0033450Y0174654D01*
X0033199Y0174904D01*
X0032699Y0174904D01*
X0032449Y0174654D01*
X0032699Y0175377D02*
X0032449Y0175627D01*
X0032449Y0176127D01*
X0032699Y0176378D01*
X0032949Y0176378D01*
X0033950Y0175377D01*
X0033950Y0176378D01*
X0033950Y0174904D02*
X0033450Y0174404D01*
X0047449Y0174654D02*
X0047449Y0173903D01*
X0048950Y0173903D01*
X0048450Y0173903D02*
X0048450Y0174654D01*
X0048199Y0174904D01*
X0047699Y0174904D01*
X0047449Y0174654D01*
X0047699Y0175377D02*
X0047449Y0175627D01*
X0047449Y0176127D01*
X0047699Y0176378D01*
X0047949Y0176378D01*
X0048199Y0176127D01*
X0048450Y0176378D01*
X0048700Y0176378D01*
X0048950Y0176127D01*
X0048950Y0175627D01*
X0048700Y0175377D01*
X0048950Y0174904D02*
X0048450Y0174404D01*
X0048199Y0175877D02*
X0048199Y0176127D01*
X0062449Y0176127D02*
X0063199Y0175377D01*
X0063199Y0176378D01*
X0062449Y0176127D02*
X0063950Y0176127D01*
X0063950Y0174904D02*
X0063450Y0174404D01*
X0063450Y0174654D02*
X0063450Y0173903D01*
X0063950Y0173903D02*
X0062449Y0173903D01*
X0062449Y0174654D01*
X0062699Y0174904D01*
X0063199Y0174904D01*
X0063450Y0174654D01*
X0077449Y0174654D02*
X0077449Y0173903D01*
X0078950Y0173903D01*
X0078450Y0173903D02*
X0078450Y0174654D01*
X0078199Y0174904D01*
X0077699Y0174904D01*
X0077449Y0174654D01*
X0077449Y0175377D02*
X0078199Y0175377D01*
X0077949Y0175877D01*
X0077949Y0176127D01*
X0078199Y0176378D01*
X0078700Y0176378D01*
X0078950Y0176127D01*
X0078950Y0175627D01*
X0078700Y0175377D01*
X0078950Y0174904D02*
X0078450Y0174404D01*
X0077449Y0175377D02*
X0077449Y0176378D01*
X0092449Y0176378D02*
X0092699Y0175877D01*
X0093199Y0175377D01*
X0093199Y0176127D01*
X0093450Y0176378D01*
X0093700Y0176378D01*
X0093950Y0176127D01*
X0093950Y0175627D01*
X0093700Y0175377D01*
X0093199Y0175377D01*
X0093199Y0174904D02*
X0093450Y0174654D01*
X0093450Y0173903D01*
X0093950Y0173903D02*
X0092449Y0173903D01*
X0092449Y0174654D01*
X0092699Y0174904D01*
X0093199Y0174904D01*
X0093450Y0174404D02*
X0093950Y0174904D01*
X0107449Y0174654D02*
X0107449Y0173903D01*
X0108950Y0173903D01*
X0108450Y0173903D02*
X0108450Y0174654D01*
X0108199Y0174904D01*
X0107699Y0174904D01*
X0107449Y0174654D01*
X0107449Y0175377D02*
X0107449Y0176378D01*
X0107699Y0176378D01*
X0108700Y0175377D01*
X0108950Y0175377D01*
X0108950Y0174904D02*
X0108450Y0174404D01*
X0122449Y0174654D02*
X0122449Y0173903D01*
X0123950Y0173903D01*
X0123450Y0173903D02*
X0123450Y0174654D01*
X0123199Y0174904D01*
X0122699Y0174904D01*
X0122449Y0174654D01*
X0122699Y0175377D02*
X0122949Y0175377D01*
X0123199Y0175627D01*
X0123199Y0176127D01*
X0123450Y0176378D01*
X0123700Y0176378D01*
X0123950Y0176127D01*
X0123950Y0175627D01*
X0123700Y0175377D01*
X0123450Y0175377D01*
X0123199Y0175627D01*
X0123199Y0176127D02*
X0122949Y0176378D01*
X0122699Y0176378D01*
X0122449Y0176127D01*
X0122449Y0175627D01*
X0122699Y0175377D01*
X0123450Y0174404D02*
X0123950Y0174904D01*
X0157449Y0161378D02*
X0157449Y0160377D01*
X0158199Y0160377D01*
X0157949Y0160877D01*
X0157949Y0161127D01*
X0158199Y0161378D01*
X0158700Y0161378D01*
X0158950Y0161127D01*
X0158950Y0160627D01*
X0158700Y0160377D01*
X0158950Y0159904D02*
X0158950Y0158903D01*
X0158950Y0158431D02*
X0158450Y0157931D01*
X0158450Y0158181D02*
X0158450Y0157430D01*
X0158950Y0157430D02*
X0157449Y0157430D01*
X0157449Y0158181D01*
X0157699Y0158431D01*
X0158199Y0158431D01*
X0158450Y0158181D01*
X0157949Y0158903D02*
X0157449Y0159404D01*
X0158950Y0159404D01*
X0158199Y0111378D02*
X0158199Y0110377D01*
X0157449Y0111127D01*
X0158950Y0111127D01*
X0158950Y0109904D02*
X0158950Y0108903D01*
X0158950Y0108431D02*
X0158450Y0107931D01*
X0158450Y0108181D02*
X0158450Y0107430D01*
X0158950Y0107430D02*
X0157449Y0107430D01*
X0157449Y0108181D01*
X0157699Y0108431D01*
X0158199Y0108431D01*
X0158450Y0108181D01*
X0157949Y0108903D02*
X0157449Y0109404D01*
X0158950Y0109404D01*
X0158700Y0061378D02*
X0158950Y0061127D01*
X0158950Y0060627D01*
X0158700Y0060377D01*
X0158950Y0059904D02*
X0158950Y0058903D01*
X0158950Y0058431D02*
X0158450Y0057931D01*
X0158450Y0058181D02*
X0158450Y0057430D01*
X0158950Y0057430D02*
X0157449Y0057430D01*
X0157449Y0058181D01*
X0157699Y0058431D01*
X0158199Y0058431D01*
X0158450Y0058181D01*
X0157949Y0058903D02*
X0157449Y0059404D01*
X0158950Y0059404D01*
X0157699Y0060377D02*
X0157449Y0060627D01*
X0157449Y0061127D01*
X0157699Y0061378D01*
X0157949Y0061378D01*
X0158199Y0061127D01*
X0158450Y0061378D01*
X0158700Y0061378D01*
X0158199Y0061127D02*
X0158199Y0060877D01*
X0212449Y0060627D02*
X0212699Y0060377D01*
X0212449Y0060627D02*
X0212449Y0061127D01*
X0212699Y0061378D01*
X0212949Y0061378D01*
X0213950Y0060377D01*
X0213950Y0061378D01*
X0213950Y0059904D02*
X0213950Y0058903D01*
X0213950Y0058431D02*
X0213450Y0057931D01*
X0213450Y0058181D02*
X0213450Y0057430D01*
X0213950Y0057430D02*
X0212449Y0057430D01*
X0212449Y0058181D01*
X0212699Y0058431D01*
X0213199Y0058431D01*
X0213450Y0058181D01*
X0212949Y0058903D02*
X0212449Y0059404D01*
X0213950Y0059404D01*
X0213950Y0107430D02*
X0212449Y0107430D01*
X0212449Y0108181D01*
X0212699Y0108431D01*
X0213199Y0108431D01*
X0213450Y0108181D01*
X0213450Y0107430D01*
X0213450Y0107931D02*
X0213950Y0108431D01*
X0213950Y0108903D02*
X0213950Y0109904D01*
X0213950Y0110377D02*
X0213950Y0111378D01*
X0213950Y0110877D02*
X0212449Y0110877D01*
X0212949Y0110377D01*
X0212449Y0109404D02*
X0213950Y0109404D01*
X0212949Y0108903D02*
X0212449Y0109404D01*
X0212449Y0157430D02*
X0212449Y0158181D01*
X0212699Y0158431D01*
X0213199Y0158431D01*
X0213450Y0158181D01*
X0213450Y0157430D01*
X0213950Y0157430D02*
X0212449Y0157430D01*
X0213450Y0157931D02*
X0213950Y0158431D01*
X0213950Y0158903D02*
X0213950Y0159904D01*
X0213950Y0159404D02*
X0212449Y0159404D01*
X0212949Y0158903D01*
X0212699Y0160377D02*
X0212449Y0160627D01*
X0212449Y0161127D01*
X0212699Y0161378D01*
X0213700Y0160377D01*
X0213950Y0160627D01*
X0213950Y0161127D01*
X0213700Y0161378D01*
X0212699Y0161378D01*
X0212699Y0160377D02*
X0213700Y0160377D01*
X0213950Y0223903D02*
X0212449Y0223903D01*
X0212449Y0224654D01*
X0212699Y0224904D01*
X0213199Y0224904D01*
X0213450Y0224654D01*
X0213450Y0223903D01*
X0213450Y0224404D02*
X0213950Y0224904D01*
X0213700Y0225377D02*
X0213950Y0225627D01*
X0213950Y0226127D01*
X0213700Y0226378D01*
X0212699Y0226378D01*
X0212449Y0226127D01*
X0212449Y0225627D01*
X0212699Y0225377D01*
X0212949Y0225377D01*
X0213199Y0225627D01*
X0213199Y0226378D01*
X0158950Y0226127D02*
X0158700Y0226378D01*
X0158450Y0226378D01*
X0158199Y0226127D01*
X0158199Y0225377D01*
X0158700Y0225377D01*
X0158950Y0225627D01*
X0158950Y0226127D01*
X0158199Y0225377D02*
X0157699Y0225877D01*
X0157449Y0226378D01*
X0157449Y0224404D02*
X0158950Y0224404D01*
X0158950Y0224904D02*
X0158950Y0223903D01*
X0158950Y0223431D02*
X0158450Y0222931D01*
X0158450Y0223181D02*
X0158450Y0222430D01*
X0158950Y0222430D02*
X0157449Y0222430D01*
X0157449Y0223181D01*
X0157699Y0223431D01*
X0158199Y0223431D01*
X0158450Y0223181D01*
X0157949Y0223903D02*
X0157449Y0224404D01*
D15*
X0107900Y0204300D02*
X0107900Y0199300D01*
X0105400Y0196800D01*
X0100400Y0196800D01*
X0097900Y0199300D01*
X0095400Y0196800D01*
X0090400Y0196800D01*
X0087900Y0199300D01*
X0085400Y0196800D01*
X0080400Y0196800D01*
X0077900Y0199300D01*
X0075400Y0196800D01*
X0070400Y0196800D01*
X0067900Y0199300D01*
X0065400Y0196800D01*
X0060400Y0196800D01*
X0057900Y0199300D01*
X0055400Y0196800D01*
X0050400Y0196800D01*
X0047900Y0199300D01*
X0045400Y0196800D01*
X0040400Y0196800D01*
X0037900Y0199300D01*
X0035400Y0196800D01*
X0030400Y0196800D01*
X0027900Y0199300D01*
X0027900Y0204300D01*
X0030400Y0206800D01*
X0035400Y0206800D01*
X0037900Y0204300D01*
X0040400Y0206800D01*
X0045400Y0206800D01*
X0047900Y0204300D01*
X0050400Y0206800D01*
X0055400Y0206800D01*
X0057900Y0204300D01*
X0060400Y0206800D01*
X0065400Y0206800D01*
X0067900Y0204300D01*
X0070400Y0206800D01*
X0075400Y0206800D01*
X0077900Y0204300D01*
X0080400Y0206800D01*
X0085400Y0206800D01*
X0087900Y0204300D01*
X0090400Y0206800D01*
X0095400Y0206800D01*
X0097900Y0204300D01*
X0100400Y0206800D01*
X0105400Y0206800D01*
X0107900Y0204300D01*
X0021400Y0204300D02*
X0021400Y0199300D01*
X0018900Y0196800D01*
X0013900Y0196800D01*
X0011400Y0199300D01*
X0008900Y0196800D01*
X0003900Y0196800D01*
X0001400Y0199300D01*
X0001400Y0204300D01*
X0003900Y0206800D01*
X0008900Y0206800D01*
X0011400Y0204300D01*
X0013900Y0206800D01*
X0018900Y0206800D01*
X0021400Y0204300D01*
X0140400Y0016800D02*
X0145400Y0016800D01*
X0147900Y0014300D01*
X0150400Y0016800D01*
X0155400Y0016800D01*
X0157900Y0014300D01*
X0160400Y0016800D01*
X0165400Y0016800D01*
X0167900Y0014300D01*
X0170400Y0016800D01*
X0175400Y0016800D01*
X0177900Y0014300D01*
X0180400Y0016800D01*
X0185400Y0016800D01*
X0187900Y0014300D01*
X0190400Y0016800D01*
X0195400Y0016800D01*
X0197900Y0014300D01*
X0200400Y0016800D01*
X0205400Y0016800D01*
X0207900Y0014300D01*
X0210400Y0016800D01*
X0215400Y0016800D01*
X0217900Y0014300D01*
X0217900Y0009300D01*
X0215400Y0006800D01*
X0210400Y0006800D01*
X0207900Y0009300D01*
X0205400Y0006800D01*
X0200400Y0006800D01*
X0197900Y0009300D01*
X0195400Y0006800D01*
X0190400Y0006800D01*
X0187900Y0009300D01*
X0185400Y0006800D01*
X0180400Y0006800D01*
X0177900Y0009300D01*
X0175400Y0006800D01*
X0170400Y0006800D01*
X0167900Y0009300D01*
X0165400Y0006800D01*
X0160400Y0006800D01*
X0157900Y0009300D01*
X0155400Y0006800D01*
X0150400Y0006800D01*
X0147900Y0009300D01*
X0145400Y0006800D01*
X0140400Y0006800D01*
X0137900Y0009300D01*
X0137900Y0014300D01*
X0140400Y0016800D01*
X0217900Y0029300D02*
X0220400Y0026800D01*
X0225400Y0026800D01*
X0227900Y0029300D01*
X0230400Y0026800D01*
X0235400Y0026800D01*
X0237900Y0029300D01*
X0237900Y0034300D01*
X0235400Y0036800D01*
X0230400Y0036800D01*
X0227900Y0034300D01*
X0225400Y0036800D01*
X0220400Y0036800D01*
X0217900Y0034300D01*
X0217900Y0029300D01*
X0220400Y0196800D02*
X0225400Y0196800D01*
X0227900Y0199300D01*
X0230400Y0196800D01*
X0235400Y0196800D01*
X0237900Y0199300D01*
X0237900Y0204300D01*
X0235400Y0206800D01*
X0230400Y0206800D01*
X0227900Y0204300D01*
X0225400Y0206800D01*
X0220400Y0206800D01*
X0217900Y0204300D01*
X0217900Y0199300D01*
X0220400Y0196800D01*
D16*
X0212550Y0197901D02*
X0211499Y0196850D01*
X0212550Y0197901D02*
X0212550Y0200003D01*
X0211499Y0201054D01*
X0209397Y0201054D01*
X0208346Y0200003D01*
X0208346Y0198952D01*
X0209397Y0196850D01*
X0206245Y0196850D01*
X0206245Y0201054D01*
X0206245Y0203295D02*
X0210448Y0203295D01*
X0212550Y0205397D01*
X0210448Y0207499D01*
X0206245Y0207499D01*
X0232296Y0026245D02*
X0231245Y0025194D01*
X0231245Y0022041D01*
X0237550Y0022041D01*
X0237550Y0025194D01*
X0236499Y0026245D01*
X0232296Y0026245D01*
X0231245Y0019799D02*
X0237550Y0019799D01*
X0231245Y0015595D01*
X0237550Y0015595D01*
X0236499Y0013354D02*
X0237550Y0012303D01*
X0237550Y0010201D01*
X0236499Y0009150D01*
X0232296Y0009150D01*
X0231245Y0010201D01*
X0231245Y0012303D01*
X0232296Y0013354D01*
X0234397Y0013354D02*
X0234397Y0011252D01*
X0234397Y0013354D02*
X0236499Y0013354D01*
M02*
