G75*
%MOIN*%
%OFA0B0*%
%FSLAX25Y25*%
%IPPOS*%
%LPD*%
%AMOC8*
5,1,8,0,0,1.08239X$1,22.5*
%
%ADD10R,0.07400X0.07400*%
%ADD11C,0.07400*%
%ADD12R,0.07087X0.06299*%
%ADD13C,0.01000*%
%ADD14C,0.03100*%
%ADD15C,0.01600*%
D10*
X0172900Y0051800D03*
X0172900Y0101800D03*
X0172900Y0151800D03*
X0227900Y0151800D03*
X0227900Y0101800D03*
X0227900Y0051800D03*
X0227900Y0216800D03*
X0172900Y0216800D03*
D11*
X0172900Y0226800D03*
X0172900Y0236800D03*
X0172900Y0246800D03*
X0222900Y0201800D03*
X0232900Y0201800D03*
X0227900Y0181800D03*
X0227900Y0171800D03*
X0227900Y0161800D03*
X0227900Y0131800D03*
X0227900Y0121800D03*
X0227900Y0111800D03*
X0227900Y0081800D03*
X0227900Y0071800D03*
X0227900Y0061800D03*
X0222900Y0031800D03*
X0232900Y0031800D03*
X0212900Y0011800D03*
X0202900Y0011800D03*
X0192900Y0011800D03*
X0182900Y0011800D03*
X0172900Y0011800D03*
X0162900Y0011800D03*
X0152900Y0011800D03*
X0142900Y0011800D03*
X0172900Y0061800D03*
X0172900Y0071800D03*
X0172900Y0081800D03*
X0172900Y0111800D03*
X0172900Y0121800D03*
X0172900Y0131800D03*
X0172900Y0161800D03*
X0172900Y0171800D03*
X0172900Y0181800D03*
X0227900Y0226800D03*
X0227900Y0236800D03*
X0227900Y0246800D03*
X0102900Y0201800D03*
X0092900Y0201800D03*
X0082900Y0201800D03*
X0072900Y0201800D03*
X0062900Y0201800D03*
X0052900Y0201800D03*
X0042900Y0201800D03*
X0032900Y0201800D03*
X0016400Y0201800D03*
X0006400Y0201800D03*
D12*
X0012900Y0177312D03*
X0012900Y0166288D03*
X0027900Y0166288D03*
X0027900Y0177312D03*
X0042900Y0177312D03*
X0042900Y0166288D03*
X0057900Y0166288D03*
X0057900Y0177312D03*
X0072900Y0177312D03*
X0072900Y0166288D03*
X0087900Y0166288D03*
X0087900Y0177312D03*
X0102900Y0177312D03*
X0102900Y0166288D03*
X0117900Y0166288D03*
X0117900Y0177312D03*
X0152900Y0162312D03*
X0152900Y0151288D03*
X0152900Y0112312D03*
X0152900Y0101288D03*
X0152900Y0062312D03*
X0152900Y0051288D03*
X0207900Y0051288D03*
X0207900Y0062312D03*
X0207900Y0101288D03*
X0207900Y0112312D03*
X0207900Y0151288D03*
X0207900Y0162312D03*
X0207900Y0216288D03*
X0207900Y0227312D03*
X0152900Y0227312D03*
X0152900Y0216288D03*
D13*
X0152900Y0216800D01*
X0172900Y0216800D01*
X0207900Y0216800D01*
X0207900Y0216288D01*
X0207900Y0216800D02*
X0227900Y0216800D01*
X0227900Y0226800D02*
X0235400Y0226800D01*
X0235400Y0246800D01*
X0227900Y0254300D01*
X0065400Y0254300D01*
X0025400Y0214300D01*
X0025400Y0209300D02*
X0207900Y0209300D01*
X0235400Y0181800D01*
X0235400Y0161800D01*
X0227900Y0161800D01*
X0227900Y0151800D02*
X0207900Y0151800D01*
X0207900Y0151288D01*
X0207900Y0151800D02*
X0172900Y0151800D01*
X0152900Y0151800D01*
X0152900Y0151288D01*
X0147900Y0146800D02*
X0152900Y0141800D01*
X0225400Y0141800D01*
X0235400Y0131800D01*
X0235400Y0111800D01*
X0227900Y0111800D01*
X0227900Y0101800D02*
X0207900Y0101800D01*
X0207900Y0101288D01*
X0207900Y0101800D02*
X0172900Y0101800D01*
X0152900Y0101800D01*
X0152900Y0101288D01*
X0145400Y0106800D02*
X0167900Y0106800D01*
X0172900Y0111800D01*
X0172900Y0121800D02*
X0160400Y0121800D01*
X0152900Y0114300D01*
X0152900Y0112312D01*
X0145400Y0106800D02*
X0145400Y0131800D01*
X0142900Y0134300D01*
X0142900Y0129300D02*
X0142900Y0089300D01*
X0227900Y0089300D01*
X0235400Y0081800D01*
X0235400Y0061800D01*
X0227900Y0061800D01*
X0227900Y0051800D02*
X0222900Y0051800D01*
X0222900Y0031800D01*
X0232900Y0031800D01*
X0222900Y0051800D02*
X0207900Y0051800D01*
X0207900Y0051288D01*
X0207900Y0051800D02*
X0172900Y0051800D01*
X0152900Y0051800D01*
X0152900Y0051288D01*
X0152900Y0062312D02*
X0152900Y0064300D01*
X0160400Y0071800D01*
X0172900Y0071800D01*
X0172900Y0081800D02*
X0227900Y0081800D01*
X0227900Y0071800D02*
X0215400Y0071800D01*
X0207900Y0064300D01*
X0207900Y0062312D01*
X0205400Y0044300D02*
X0172900Y0011800D01*
X0207900Y0112312D02*
X0207900Y0114300D01*
X0182900Y0139300D01*
X0172900Y0139300D01*
X0157900Y0124300D01*
X0142900Y0129300D02*
X0127900Y0144300D01*
X0035400Y0144300D01*
X0035400Y0169300D01*
X0037900Y0171800D01*
X0052900Y0171800D01*
X0057900Y0166800D01*
X0057900Y0166288D01*
X0057900Y0177312D02*
X0057900Y0179300D01*
X0042900Y0194300D01*
X0042900Y0201800D01*
X0032900Y0201800D02*
X0032900Y0199300D01*
X0042900Y0189300D01*
X0042900Y0177312D01*
X0035400Y0174300D02*
X0035400Y0191800D01*
X0025400Y0201800D01*
X0025400Y0209300D01*
X0017900Y0201800D02*
X0016400Y0201800D01*
X0017900Y0201800D02*
X0025400Y0194300D01*
X0027900Y0194300D01*
X0027900Y0177312D01*
X0020400Y0174300D02*
X0012900Y0166800D01*
X0012900Y0166288D01*
X0012900Y0177312D02*
X0012900Y0196800D01*
X0007900Y0201800D01*
X0006400Y0201800D01*
X0035400Y0174300D02*
X0027900Y0166800D01*
X0027900Y0166288D01*
X0042900Y0166288D02*
X0042900Y0164300D01*
X0060400Y0146800D01*
X0147900Y0146800D01*
X0152900Y0162312D02*
X0152900Y0164300D01*
X0160400Y0171800D01*
X0172900Y0171800D01*
X0172900Y0161800D02*
X0167900Y0156800D01*
X0110400Y0156800D01*
X0102900Y0164300D01*
X0102900Y0166288D01*
X0102900Y0177312D02*
X0102900Y0179300D01*
X0087900Y0194300D01*
X0080400Y0194300D01*
X0072900Y0201800D01*
X0065400Y0201800D02*
X0062900Y0201800D01*
X0065400Y0201800D02*
X0087900Y0179300D01*
X0087900Y0177312D01*
X0087900Y0166288D02*
X0087900Y0164300D01*
X0100400Y0151800D01*
X0125400Y0151800D01*
X0125400Y0166800D02*
X0117900Y0166800D01*
X0117900Y0166288D01*
X0117900Y0177312D02*
X0117900Y0179300D01*
X0102900Y0194300D01*
X0092900Y0194300D01*
X0085400Y0201800D01*
X0082900Y0201800D01*
X0072900Y0179300D02*
X0072900Y0177312D01*
X0072900Y0179300D02*
X0052900Y0199300D01*
X0052900Y0201800D01*
X0077900Y0171800D02*
X0155400Y0171800D01*
X0157900Y0174300D01*
X0152900Y0176800D02*
X0165400Y0189300D01*
X0182900Y0189300D01*
X0207900Y0164300D01*
X0207900Y0162312D01*
X0207900Y0164300D02*
X0215400Y0171800D01*
X0227900Y0171800D01*
X0232900Y0201800D02*
X0222900Y0201800D01*
X0207900Y0227312D02*
X0207900Y0229300D01*
X0215400Y0236800D01*
X0227900Y0236800D01*
X0227900Y0246800D02*
X0172900Y0246800D01*
X0172900Y0236800D02*
X0160400Y0236800D01*
X0152900Y0229300D01*
X0152900Y0227312D01*
X0147900Y0221800D02*
X0167900Y0221800D01*
X0172900Y0226800D01*
X0147900Y0221800D02*
X0142900Y0216800D01*
X0077900Y0171800D02*
X0072900Y0166800D01*
X0072900Y0166288D01*
X0207900Y0114300D02*
X0215400Y0121800D01*
X0227900Y0121800D01*
D14*
X0157900Y0124300D03*
X0142900Y0134300D03*
X0125400Y0151800D03*
X0125400Y0166800D03*
X0152900Y0176800D03*
X0157900Y0174300D03*
X0142900Y0216800D03*
X0025400Y0214300D03*
X0020400Y0174300D03*
X0205400Y0044300D03*
D15*
X0133500Y0007400D02*
X0133500Y0135447D01*
X0140600Y0128347D01*
X0140600Y0088347D01*
X0141947Y0087000D01*
X0171082Y0087000D01*
X0169784Y0086463D01*
X0168237Y0084915D01*
X0167400Y0082894D01*
X0167400Y0080706D01*
X0168237Y0078684D01*
X0169784Y0077137D01*
X0170599Y0076800D01*
X0169784Y0076463D01*
X0168237Y0074915D01*
X0167900Y0074100D01*
X0159447Y0074100D01*
X0158100Y0072753D01*
X0152609Y0067261D01*
X0148611Y0067261D01*
X0147557Y0066207D01*
X0147557Y0058417D01*
X0148611Y0057362D01*
X0157189Y0057362D01*
X0158243Y0058417D01*
X0158243Y0066207D01*
X0158151Y0066299D01*
X0161353Y0069500D01*
X0167900Y0069500D01*
X0168237Y0068684D01*
X0169784Y0067137D01*
X0170599Y0066800D01*
X0169784Y0066463D01*
X0168237Y0064915D01*
X0167400Y0062894D01*
X0167400Y0060706D01*
X0168237Y0058684D01*
X0169622Y0057300D01*
X0168454Y0057300D01*
X0167400Y0056246D01*
X0167400Y0054100D01*
X0158243Y0054100D01*
X0158243Y0055183D01*
X0157189Y0056238D01*
X0148611Y0056238D01*
X0147557Y0055183D01*
X0147557Y0047393D01*
X0148611Y0046339D01*
X0157189Y0046339D01*
X0158243Y0047393D01*
X0158243Y0049500D01*
X0167400Y0049500D01*
X0167400Y0047354D01*
X0168454Y0046300D01*
X0177346Y0046300D01*
X0178400Y0047354D01*
X0178400Y0049500D01*
X0202557Y0049500D01*
X0202557Y0047393D01*
X0203156Y0046794D01*
X0202560Y0046198D01*
X0202050Y0044966D01*
X0202050Y0044203D01*
X0174810Y0016962D01*
X0173994Y0017300D01*
X0171806Y0017300D01*
X0169784Y0016463D01*
X0168237Y0014915D01*
X0167900Y0014101D01*
X0167563Y0014915D01*
X0166015Y0016463D01*
X0163994Y0017300D01*
X0161806Y0017300D01*
X0159784Y0016463D01*
X0158237Y0014915D01*
X0157900Y0014101D01*
X0157563Y0014915D01*
X0156015Y0016463D01*
X0153994Y0017300D01*
X0151806Y0017300D01*
X0149784Y0016463D01*
X0148237Y0014915D01*
X0147900Y0014101D01*
X0147563Y0014915D01*
X0146015Y0016463D01*
X0143994Y0017300D01*
X0141806Y0017300D01*
X0139784Y0016463D01*
X0138237Y0014915D01*
X0137400Y0012894D01*
X0137400Y0010706D01*
X0138237Y0008684D01*
X0139522Y0007400D01*
X0133500Y0007400D01*
X0133500Y0008194D02*
X0138728Y0008194D01*
X0137778Y0009793D02*
X0133500Y0009793D01*
X0133500Y0011391D02*
X0137400Y0011391D01*
X0137440Y0012990D02*
X0133500Y0012990D01*
X0133500Y0014588D02*
X0138102Y0014588D01*
X0139508Y0016187D02*
X0133500Y0016187D01*
X0133500Y0017785D02*
X0175632Y0017785D01*
X0177231Y0019384D02*
X0133500Y0019384D01*
X0133500Y0020982D02*
X0178829Y0020982D01*
X0180428Y0022581D02*
X0133500Y0022581D01*
X0133500Y0024179D02*
X0182026Y0024179D01*
X0183625Y0025778D02*
X0133500Y0025778D01*
X0133500Y0027376D02*
X0185224Y0027376D01*
X0186822Y0028975D02*
X0133500Y0028975D01*
X0133500Y0030573D02*
X0188421Y0030573D01*
X0190019Y0032172D02*
X0133500Y0032172D01*
X0133500Y0033770D02*
X0191618Y0033770D01*
X0193216Y0035369D02*
X0133500Y0035369D01*
X0133500Y0036967D02*
X0194815Y0036967D01*
X0196413Y0038566D02*
X0133500Y0038566D01*
X0133500Y0040164D02*
X0198012Y0040164D01*
X0199610Y0041763D02*
X0133500Y0041763D01*
X0133500Y0043361D02*
X0201209Y0043361D01*
X0202050Y0044960D02*
X0133500Y0044960D01*
X0133500Y0046558D02*
X0148391Y0046558D01*
X0147557Y0048157D02*
X0133500Y0048157D01*
X0133500Y0049755D02*
X0147557Y0049755D01*
X0147557Y0051354D02*
X0133500Y0051354D01*
X0133500Y0052952D02*
X0147557Y0052952D01*
X0147557Y0054551D02*
X0133500Y0054551D01*
X0133500Y0056149D02*
X0148523Y0056149D01*
X0148225Y0057748D02*
X0133500Y0057748D01*
X0133500Y0059346D02*
X0147557Y0059346D01*
X0147557Y0060945D02*
X0133500Y0060945D01*
X0133500Y0062543D02*
X0147557Y0062543D01*
X0147557Y0064142D02*
X0133500Y0064142D01*
X0133500Y0065740D02*
X0147557Y0065740D01*
X0152686Y0067339D02*
X0133500Y0067339D01*
X0133500Y0068937D02*
X0154285Y0068937D01*
X0155883Y0070536D02*
X0133500Y0070536D01*
X0133500Y0072134D02*
X0157482Y0072134D01*
X0159080Y0073733D02*
X0133500Y0073733D01*
X0133500Y0075332D02*
X0168653Y0075332D01*
X0170285Y0076930D02*
X0133500Y0076930D01*
X0133500Y0078529D02*
X0168393Y0078529D01*
X0167640Y0080127D02*
X0133500Y0080127D01*
X0133500Y0081726D02*
X0167400Y0081726D01*
X0167578Y0083324D02*
X0133500Y0083324D01*
X0133500Y0084923D02*
X0168244Y0084923D01*
X0169926Y0086521D02*
X0133500Y0086521D01*
X0133500Y0088120D02*
X0140828Y0088120D01*
X0140600Y0089718D02*
X0133500Y0089718D01*
X0133500Y0091317D02*
X0140600Y0091317D01*
X0140600Y0092915D02*
X0133500Y0092915D01*
X0133500Y0094514D02*
X0140600Y0094514D01*
X0140600Y0096112D02*
X0133500Y0096112D01*
X0133500Y0097711D02*
X0140600Y0097711D01*
X0140600Y0099309D02*
X0133500Y0099309D01*
X0133500Y0100908D02*
X0140600Y0100908D01*
X0140600Y0102506D02*
X0133500Y0102506D01*
X0133500Y0104105D02*
X0140600Y0104105D01*
X0140600Y0105703D02*
X0133500Y0105703D01*
X0133500Y0107302D02*
X0140600Y0107302D01*
X0140600Y0108900D02*
X0133500Y0108900D01*
X0133500Y0110499D02*
X0140600Y0110499D01*
X0140600Y0112097D02*
X0133500Y0112097D01*
X0133500Y0113696D02*
X0140600Y0113696D01*
X0140600Y0115294D02*
X0133500Y0115294D01*
X0133500Y0116893D02*
X0140600Y0116893D01*
X0140600Y0118491D02*
X0133500Y0118491D01*
X0133500Y0120090D02*
X0140600Y0120090D01*
X0140600Y0121688D02*
X0133500Y0121688D01*
X0133500Y0123287D02*
X0140600Y0123287D01*
X0140600Y0124885D02*
X0133500Y0124885D01*
X0133500Y0126484D02*
X0140600Y0126484D01*
X0140600Y0128082D02*
X0133500Y0128082D01*
X0133500Y0129681D02*
X0139266Y0129681D01*
X0137668Y0131279D02*
X0133500Y0131279D01*
X0133500Y0132878D02*
X0136069Y0132878D01*
X0134471Y0134476D02*
X0133500Y0134476D01*
X0136181Y0139272D02*
X0169619Y0139272D01*
X0169847Y0139500D02*
X0157997Y0127650D01*
X0157234Y0127650D01*
X0156002Y0127140D01*
X0155060Y0126198D01*
X0154550Y0124966D01*
X0154550Y0123634D01*
X0155060Y0122402D01*
X0156002Y0121460D01*
X0156572Y0121224D01*
X0152609Y0117261D01*
X0148611Y0117261D01*
X0147700Y0116350D01*
X0147700Y0132753D01*
X0146353Y0134100D01*
X0146250Y0134203D01*
X0146250Y0134966D01*
X0145740Y0136198D01*
X0144798Y0137140D01*
X0143566Y0137650D01*
X0142234Y0137650D01*
X0141002Y0137140D01*
X0140060Y0136198D01*
X0139824Y0135628D01*
X0130953Y0144500D01*
X0146947Y0144500D01*
X0150600Y0140847D01*
X0151947Y0139500D01*
X0169847Y0139500D01*
X0168021Y0137673D02*
X0137779Y0137673D01*
X0139378Y0136075D02*
X0140009Y0136075D01*
X0145791Y0136075D02*
X0166422Y0136075D01*
X0164824Y0134476D02*
X0146250Y0134476D01*
X0147575Y0132878D02*
X0163225Y0132878D01*
X0161627Y0131279D02*
X0147700Y0131279D01*
X0147700Y0129681D02*
X0160028Y0129681D01*
X0158430Y0128082D02*
X0147700Y0128082D01*
X0147700Y0126484D02*
X0155346Y0126484D01*
X0154550Y0124885D02*
X0147700Y0124885D01*
X0147700Y0123287D02*
X0154694Y0123287D01*
X0155774Y0121688D02*
X0147700Y0121688D01*
X0147700Y0120090D02*
X0155437Y0120090D01*
X0153839Y0118491D02*
X0147700Y0118491D01*
X0147700Y0116893D02*
X0148243Y0116893D01*
X0158151Y0116299D02*
X0161353Y0119500D01*
X0167900Y0119500D01*
X0168237Y0118684D01*
X0169784Y0117137D01*
X0170599Y0116800D01*
X0169784Y0116463D01*
X0168237Y0114915D01*
X0167400Y0112894D01*
X0167400Y0110706D01*
X0167738Y0109890D01*
X0166947Y0109100D01*
X0158243Y0109100D01*
X0158243Y0116207D01*
X0158151Y0116299D01*
X0158745Y0116893D02*
X0170375Y0116893D01*
X0168616Y0115294D02*
X0158243Y0115294D01*
X0158243Y0113696D02*
X0167732Y0113696D01*
X0167400Y0112097D02*
X0158243Y0112097D01*
X0158243Y0110499D02*
X0167486Y0110499D01*
X0167400Y0104500D02*
X0167400Y0104100D01*
X0158243Y0104100D01*
X0158243Y0104500D01*
X0167400Y0104500D01*
X0167400Y0104105D02*
X0158243Y0104105D01*
X0158243Y0099500D02*
X0167400Y0099500D01*
X0167400Y0097354D01*
X0168454Y0096300D01*
X0177346Y0096300D01*
X0178400Y0097354D01*
X0178400Y0099500D01*
X0202557Y0099500D01*
X0202557Y0097393D01*
X0203611Y0096339D01*
X0212189Y0096339D01*
X0213243Y0097393D01*
X0213243Y0099500D01*
X0222400Y0099500D01*
X0222400Y0097354D01*
X0223454Y0096300D01*
X0232346Y0096300D01*
X0233400Y0097354D01*
X0233400Y0106246D01*
X0232346Y0107300D01*
X0231178Y0107300D01*
X0232563Y0108684D01*
X0232900Y0109500D01*
X0236353Y0109500D01*
X0237700Y0110847D01*
X0237700Y0132753D01*
X0236353Y0134100D01*
X0226353Y0144100D01*
X0153853Y0144100D01*
X0151614Y0146339D01*
X0157189Y0146339D01*
X0158243Y0147393D01*
X0158243Y0149500D01*
X0167400Y0149500D01*
X0167400Y0147354D01*
X0168454Y0146300D01*
X0177346Y0146300D01*
X0178400Y0147354D01*
X0178400Y0149500D01*
X0202557Y0149500D01*
X0202557Y0147393D01*
X0203611Y0146339D01*
X0212189Y0146339D01*
X0213243Y0147393D01*
X0213243Y0149500D01*
X0222400Y0149500D01*
X0222400Y0147354D01*
X0223454Y0146300D01*
X0232346Y0146300D01*
X0233400Y0147354D01*
X0233400Y0156246D01*
X0232346Y0157300D01*
X0231178Y0157300D01*
X0232563Y0158684D01*
X0232900Y0159500D01*
X0236353Y0159500D01*
X0237700Y0160847D01*
X0237700Y0182753D01*
X0236353Y0184100D01*
X0224106Y0196346D01*
X0226015Y0197137D01*
X0227563Y0198684D01*
X0227900Y0199499D01*
X0228237Y0198684D01*
X0229784Y0197137D01*
X0231806Y0196300D01*
X0233994Y0196300D01*
X0236015Y0197137D01*
X0237563Y0198684D01*
X0238400Y0200706D01*
X0238400Y0202894D01*
X0237563Y0204915D01*
X0236015Y0206463D01*
X0233994Y0207300D01*
X0231806Y0207300D01*
X0229784Y0206463D01*
X0228237Y0204915D01*
X0227900Y0204101D01*
X0227563Y0204915D01*
X0226015Y0206463D01*
X0223994Y0207300D01*
X0221806Y0207300D01*
X0219784Y0206463D01*
X0218237Y0204915D01*
X0217446Y0203006D01*
X0209114Y0211339D01*
X0212189Y0211339D01*
X0213243Y0212393D01*
X0213243Y0214500D01*
X0222400Y0214500D01*
X0222400Y0212354D01*
X0223454Y0211300D01*
X0232346Y0211300D01*
X0233400Y0212354D01*
X0233400Y0221246D01*
X0232346Y0222300D01*
X0231178Y0222300D01*
X0232563Y0223684D01*
X0232900Y0224500D01*
X0236353Y0224500D01*
X0237700Y0225847D01*
X0237700Y0247753D01*
X0236353Y0249100D01*
X0229253Y0256200D01*
X0242300Y0256200D01*
X0242300Y0007400D01*
X0216278Y0007400D01*
X0217563Y0008684D01*
X0218400Y0010706D01*
X0218400Y0012894D01*
X0217563Y0014915D01*
X0216015Y0016463D01*
X0213994Y0017300D01*
X0211806Y0017300D01*
X0209784Y0016463D01*
X0208237Y0014915D01*
X0207900Y0014101D01*
X0207563Y0014915D01*
X0206015Y0016463D01*
X0203994Y0017300D01*
X0201806Y0017300D01*
X0199784Y0016463D01*
X0198237Y0014915D01*
X0197900Y0014101D01*
X0197563Y0014915D01*
X0196015Y0016463D01*
X0193994Y0017300D01*
X0191806Y0017300D01*
X0189784Y0016463D01*
X0188237Y0014915D01*
X0187900Y0014101D01*
X0187563Y0014915D01*
X0186015Y0016463D01*
X0183994Y0017300D01*
X0181806Y0017300D01*
X0181544Y0017192D01*
X0205303Y0040950D01*
X0206066Y0040950D01*
X0207298Y0041460D01*
X0208240Y0042402D01*
X0208750Y0043634D01*
X0208750Y0044966D01*
X0208240Y0046198D01*
X0208099Y0046339D01*
X0212189Y0046339D01*
X0213243Y0047393D01*
X0213243Y0049500D01*
X0220600Y0049500D01*
X0220600Y0036800D01*
X0219784Y0036463D01*
X0218237Y0034915D01*
X0217400Y0032894D01*
X0217400Y0030706D01*
X0218237Y0028684D01*
X0219784Y0027137D01*
X0221806Y0026300D01*
X0223994Y0026300D01*
X0226015Y0027137D01*
X0227563Y0028684D01*
X0227900Y0029499D01*
X0228237Y0028684D01*
X0229784Y0027137D01*
X0231806Y0026300D01*
X0233994Y0026300D01*
X0236015Y0027137D01*
X0237563Y0028684D01*
X0238400Y0030706D01*
X0238400Y0032894D01*
X0237563Y0034915D01*
X0236015Y0036463D01*
X0233994Y0037300D01*
X0231806Y0037300D01*
X0229784Y0036463D01*
X0228237Y0034915D01*
X0227900Y0034101D01*
X0227563Y0034915D01*
X0226015Y0036463D01*
X0225200Y0036800D01*
X0225200Y0046300D01*
X0232346Y0046300D01*
X0233400Y0047354D01*
X0233400Y0056246D01*
X0232346Y0057300D01*
X0231178Y0057300D01*
X0232563Y0058684D01*
X0232900Y0059500D01*
X0236353Y0059500D01*
X0237700Y0060847D01*
X0237700Y0082753D01*
X0236353Y0084100D01*
X0228853Y0091600D01*
X0145200Y0091600D01*
X0145200Y0104500D01*
X0147557Y0104500D01*
X0147557Y0097393D01*
X0148611Y0096339D01*
X0157189Y0096339D01*
X0158243Y0097393D01*
X0158243Y0099500D01*
X0158243Y0099309D02*
X0167400Y0099309D01*
X0167400Y0097711D02*
X0158243Y0097711D01*
X0147557Y0097711D02*
X0145200Y0097711D01*
X0145200Y0099309D02*
X0147557Y0099309D01*
X0147557Y0100908D02*
X0145200Y0100908D01*
X0145200Y0102506D02*
X0147557Y0102506D01*
X0147557Y0104105D02*
X0145200Y0104105D01*
X0145200Y0096112D02*
X0242300Y0096112D01*
X0242300Y0094514D02*
X0145200Y0094514D01*
X0145200Y0092915D02*
X0242300Y0092915D01*
X0242300Y0091317D02*
X0229136Y0091317D01*
X0230735Y0089718D02*
X0242300Y0089718D01*
X0242300Y0088120D02*
X0232333Y0088120D01*
X0233932Y0086521D02*
X0242300Y0086521D01*
X0242300Y0084923D02*
X0235530Y0084923D01*
X0237129Y0083324D02*
X0242300Y0083324D01*
X0242300Y0081726D02*
X0237700Y0081726D01*
X0237700Y0080127D02*
X0242300Y0080127D01*
X0242300Y0078529D02*
X0237700Y0078529D01*
X0237700Y0076930D02*
X0242300Y0076930D01*
X0242300Y0075332D02*
X0237700Y0075332D01*
X0237700Y0073733D02*
X0242300Y0073733D01*
X0242300Y0072134D02*
X0237700Y0072134D01*
X0237700Y0070536D02*
X0242300Y0070536D01*
X0242300Y0068937D02*
X0237700Y0068937D01*
X0237700Y0067339D02*
X0242300Y0067339D01*
X0242300Y0065740D02*
X0237700Y0065740D01*
X0237700Y0064142D02*
X0242300Y0064142D01*
X0242300Y0062543D02*
X0237700Y0062543D01*
X0237700Y0060945D02*
X0242300Y0060945D01*
X0242300Y0059346D02*
X0232837Y0059346D01*
X0231626Y0057748D02*
X0242300Y0057748D01*
X0242300Y0056149D02*
X0233400Y0056149D01*
X0233400Y0054551D02*
X0242300Y0054551D01*
X0242300Y0052952D02*
X0233400Y0052952D01*
X0233400Y0051354D02*
X0242300Y0051354D01*
X0242300Y0049755D02*
X0233400Y0049755D01*
X0233400Y0048157D02*
X0242300Y0048157D01*
X0242300Y0046558D02*
X0232604Y0046558D01*
X0225200Y0044960D02*
X0242300Y0044960D01*
X0242300Y0043361D02*
X0225200Y0043361D01*
X0225200Y0041763D02*
X0242300Y0041763D01*
X0242300Y0040164D02*
X0225200Y0040164D01*
X0225200Y0038566D02*
X0242300Y0038566D01*
X0242300Y0036967D02*
X0234797Y0036967D01*
X0237109Y0035369D02*
X0242300Y0035369D01*
X0242300Y0033770D02*
X0238037Y0033770D01*
X0238400Y0032172D02*
X0242300Y0032172D01*
X0242300Y0030573D02*
X0238345Y0030573D01*
X0237683Y0028975D02*
X0242300Y0028975D01*
X0242300Y0027376D02*
X0236254Y0027376D01*
X0242300Y0025778D02*
X0190130Y0025778D01*
X0188532Y0024179D02*
X0242300Y0024179D01*
X0242300Y0022581D02*
X0186933Y0022581D01*
X0185335Y0020982D02*
X0242300Y0020982D01*
X0242300Y0019384D02*
X0183736Y0019384D01*
X0182138Y0017785D02*
X0242300Y0017785D01*
X0242300Y0016187D02*
X0216292Y0016187D01*
X0217698Y0014588D02*
X0242300Y0014588D01*
X0242300Y0012990D02*
X0218360Y0012990D01*
X0218400Y0011391D02*
X0242300Y0011391D01*
X0242300Y0009793D02*
X0218022Y0009793D01*
X0217072Y0008194D02*
X0242300Y0008194D01*
X0229546Y0027376D02*
X0226254Y0027376D01*
X0227683Y0028975D02*
X0228117Y0028975D01*
X0228691Y0035369D02*
X0227109Y0035369D01*
X0225200Y0036967D02*
X0231003Y0036967D01*
X0220600Y0036967D02*
X0201320Y0036967D01*
X0199721Y0035369D02*
X0218691Y0035369D01*
X0217763Y0033770D02*
X0198123Y0033770D01*
X0196524Y0032172D02*
X0217400Y0032172D01*
X0217455Y0030573D02*
X0194926Y0030573D01*
X0193327Y0028975D02*
X0218117Y0028975D01*
X0219546Y0027376D02*
X0191729Y0027376D01*
X0189508Y0016187D02*
X0186292Y0016187D01*
X0187698Y0014588D02*
X0188102Y0014588D01*
X0187900Y0009499D02*
X0188237Y0008684D01*
X0189522Y0007400D01*
X0186278Y0007400D01*
X0187563Y0008684D01*
X0187900Y0009499D01*
X0187072Y0008194D02*
X0188728Y0008194D01*
X0196278Y0007400D02*
X0197563Y0008684D01*
X0197900Y0009499D01*
X0198237Y0008684D01*
X0199522Y0007400D01*
X0196278Y0007400D01*
X0197072Y0008194D02*
X0198728Y0008194D01*
X0198102Y0014588D02*
X0197698Y0014588D01*
X0196292Y0016187D02*
X0199508Y0016187D01*
X0206292Y0016187D02*
X0209508Y0016187D01*
X0208102Y0014588D02*
X0207698Y0014588D01*
X0207900Y0009499D02*
X0208237Y0008684D01*
X0209522Y0007400D01*
X0206278Y0007400D01*
X0207563Y0008684D01*
X0207900Y0009499D01*
X0207072Y0008194D02*
X0208728Y0008194D01*
X0202918Y0038566D02*
X0220600Y0038566D01*
X0220600Y0040164D02*
X0204517Y0040164D01*
X0207600Y0041763D02*
X0220600Y0041763D01*
X0220600Y0043361D02*
X0208637Y0043361D01*
X0208750Y0044960D02*
X0220600Y0044960D01*
X0220600Y0046558D02*
X0212409Y0046558D01*
X0213243Y0048157D02*
X0220600Y0048157D01*
X0222400Y0054100D02*
X0213243Y0054100D01*
X0213243Y0055183D01*
X0212189Y0056238D01*
X0203611Y0056238D01*
X0202557Y0055183D01*
X0202557Y0054100D01*
X0178400Y0054100D01*
X0178400Y0056246D01*
X0177346Y0057300D01*
X0176178Y0057300D01*
X0177563Y0058684D01*
X0178400Y0060706D01*
X0178400Y0062894D01*
X0177563Y0064915D01*
X0176015Y0066463D01*
X0175201Y0066800D01*
X0176015Y0067137D01*
X0177563Y0068684D01*
X0178400Y0070706D01*
X0178400Y0072894D01*
X0177563Y0074915D01*
X0176015Y0076463D01*
X0175201Y0076800D01*
X0176015Y0077137D01*
X0177563Y0078684D01*
X0177900Y0079500D01*
X0222900Y0079500D01*
X0223237Y0078684D01*
X0224784Y0077137D01*
X0225599Y0076800D01*
X0224784Y0076463D01*
X0223237Y0074915D01*
X0222900Y0074100D01*
X0214447Y0074100D01*
X0213100Y0072753D01*
X0207609Y0067261D01*
X0203611Y0067261D01*
X0202557Y0066207D01*
X0202557Y0058417D01*
X0203611Y0057362D01*
X0212189Y0057362D01*
X0213243Y0058417D01*
X0213243Y0066207D01*
X0213151Y0066299D01*
X0216353Y0069500D01*
X0222900Y0069500D01*
X0223237Y0068684D01*
X0224784Y0067137D01*
X0225599Y0066800D01*
X0224784Y0066463D01*
X0223237Y0064915D01*
X0222400Y0062894D01*
X0222400Y0060706D01*
X0223237Y0058684D01*
X0224622Y0057300D01*
X0223454Y0057300D01*
X0222400Y0056246D01*
X0222400Y0054100D01*
X0222400Y0054551D02*
X0213243Y0054551D01*
X0212277Y0056149D02*
X0222400Y0056149D01*
X0224174Y0057748D02*
X0212575Y0057748D01*
X0213243Y0059346D02*
X0222963Y0059346D01*
X0222400Y0060945D02*
X0213243Y0060945D01*
X0213243Y0062543D02*
X0222400Y0062543D01*
X0222917Y0064142D02*
X0213243Y0064142D01*
X0213243Y0065740D02*
X0224062Y0065740D01*
X0224583Y0067339D02*
X0214192Y0067339D01*
X0215790Y0068937D02*
X0223133Y0068937D01*
X0223653Y0075332D02*
X0177147Y0075332D01*
X0178052Y0073733D02*
X0214080Y0073733D01*
X0212482Y0072134D02*
X0178400Y0072134D01*
X0178330Y0070536D02*
X0210883Y0070536D01*
X0209285Y0068937D02*
X0177667Y0068937D01*
X0176217Y0067339D02*
X0207686Y0067339D01*
X0202557Y0065740D02*
X0176738Y0065740D01*
X0177883Y0064142D02*
X0202557Y0064142D01*
X0202557Y0062543D02*
X0178400Y0062543D01*
X0178400Y0060945D02*
X0202557Y0060945D01*
X0202557Y0059346D02*
X0177837Y0059346D01*
X0176626Y0057748D02*
X0203225Y0057748D01*
X0203523Y0056149D02*
X0178400Y0056149D01*
X0178400Y0054551D02*
X0202557Y0054551D01*
X0202557Y0048157D02*
X0178400Y0048157D01*
X0177604Y0046558D02*
X0202921Y0046558D01*
X0230201Y0066800D02*
X0231015Y0067137D01*
X0232563Y0068684D01*
X0233100Y0069982D01*
X0233100Y0064100D01*
X0232900Y0064100D01*
X0232563Y0064915D01*
X0231015Y0066463D01*
X0230201Y0066800D01*
X0231217Y0067339D02*
X0233100Y0067339D01*
X0233100Y0068937D02*
X0232667Y0068937D01*
X0233100Y0073618D02*
X0232563Y0074915D01*
X0231015Y0076463D01*
X0230201Y0076800D01*
X0231015Y0077137D01*
X0232563Y0078684D01*
X0233100Y0079982D01*
X0233100Y0073618D01*
X0233100Y0073733D02*
X0233052Y0073733D01*
X0233100Y0075332D02*
X0232147Y0075332D01*
X0233100Y0076930D02*
X0230515Y0076930D01*
X0232407Y0078529D02*
X0233100Y0078529D01*
X0225285Y0076930D02*
X0175515Y0076930D01*
X0177407Y0078529D02*
X0223393Y0078529D01*
X0222900Y0084100D02*
X0177900Y0084100D01*
X0177563Y0084915D01*
X0176015Y0086463D01*
X0174718Y0087000D01*
X0226082Y0087000D01*
X0224784Y0086463D01*
X0223237Y0084915D01*
X0222900Y0084100D01*
X0223244Y0084923D02*
X0177556Y0084923D01*
X0175874Y0086521D02*
X0224926Y0086521D01*
X0222400Y0097711D02*
X0213243Y0097711D01*
X0213243Y0099309D02*
X0222400Y0099309D01*
X0222400Y0104100D02*
X0213243Y0104100D01*
X0213243Y0105183D01*
X0212189Y0106238D01*
X0203611Y0106238D01*
X0202557Y0105183D01*
X0202557Y0104100D01*
X0178400Y0104100D01*
X0178400Y0106246D01*
X0177346Y0107300D01*
X0176178Y0107300D01*
X0177563Y0108684D01*
X0178400Y0110706D01*
X0178400Y0112894D01*
X0177563Y0114915D01*
X0176015Y0116463D01*
X0175201Y0116800D01*
X0176015Y0117137D01*
X0177563Y0118684D01*
X0178400Y0120706D01*
X0178400Y0122894D01*
X0177563Y0124915D01*
X0176015Y0126463D01*
X0175201Y0126800D01*
X0176015Y0127137D01*
X0177563Y0128684D01*
X0178400Y0130706D01*
X0178400Y0132894D01*
X0177563Y0134915D01*
X0176015Y0136463D01*
X0174718Y0137000D01*
X0181947Y0137000D01*
X0202649Y0116299D01*
X0202557Y0116207D01*
X0202557Y0108417D01*
X0203611Y0107362D01*
X0212189Y0107362D01*
X0213243Y0108417D01*
X0213243Y0116207D01*
X0213151Y0116299D01*
X0216353Y0119500D01*
X0222900Y0119500D01*
X0223237Y0118684D01*
X0224784Y0117137D01*
X0225599Y0116800D01*
X0224784Y0116463D01*
X0223237Y0114915D01*
X0222400Y0112894D01*
X0222400Y0110706D01*
X0223237Y0108684D01*
X0224622Y0107300D01*
X0223454Y0107300D01*
X0222400Y0106246D01*
X0222400Y0104100D01*
X0222400Y0104105D02*
X0213243Y0104105D01*
X0212723Y0105703D02*
X0222400Y0105703D01*
X0224620Y0107302D02*
X0176180Y0107302D01*
X0177652Y0108900D02*
X0202557Y0108900D01*
X0202557Y0110499D02*
X0178314Y0110499D01*
X0178400Y0112097D02*
X0202557Y0112097D01*
X0202557Y0113696D02*
X0178068Y0113696D01*
X0177184Y0115294D02*
X0202557Y0115294D01*
X0202054Y0116893D02*
X0175425Y0116893D01*
X0177369Y0118491D02*
X0200456Y0118491D01*
X0198857Y0120090D02*
X0178145Y0120090D01*
X0178400Y0121688D02*
X0197259Y0121688D01*
X0195660Y0123287D02*
X0178237Y0123287D01*
X0177575Y0124885D02*
X0194062Y0124885D01*
X0192463Y0126484D02*
X0175964Y0126484D01*
X0176961Y0128082D02*
X0190865Y0128082D01*
X0189266Y0129681D02*
X0177975Y0129681D01*
X0178400Y0131279D02*
X0187668Y0131279D01*
X0186069Y0132878D02*
X0178400Y0132878D01*
X0177745Y0134476D02*
X0184471Y0134476D01*
X0182872Y0136075D02*
X0176403Y0136075D01*
X0167446Y0130594D02*
X0168237Y0128684D01*
X0169784Y0127137D01*
X0170599Y0126800D01*
X0169784Y0126463D01*
X0168237Y0124915D01*
X0167900Y0124100D01*
X0161250Y0124100D01*
X0161250Y0124397D01*
X0167446Y0130594D01*
X0167825Y0129681D02*
X0166534Y0129681D01*
X0164935Y0128082D02*
X0168839Y0128082D01*
X0169836Y0126484D02*
X0163337Y0126484D01*
X0161738Y0124885D02*
X0168225Y0124885D01*
X0168430Y0118491D02*
X0160344Y0118491D01*
X0178400Y0105703D02*
X0203077Y0105703D01*
X0202557Y0104105D02*
X0178400Y0104105D01*
X0178400Y0099309D02*
X0202557Y0099309D01*
X0202557Y0097711D02*
X0178400Y0097711D01*
X0202166Y0123287D02*
X0213634Y0123287D01*
X0213100Y0122753D02*
X0207900Y0117553D01*
X0185953Y0139500D01*
X0224447Y0139500D01*
X0226694Y0137254D01*
X0224784Y0136463D01*
X0223237Y0134915D01*
X0222400Y0132894D01*
X0222400Y0130706D01*
X0223237Y0128684D01*
X0224784Y0127137D01*
X0225599Y0126800D01*
X0224784Y0126463D01*
X0223237Y0124915D01*
X0222900Y0124100D01*
X0214447Y0124100D01*
X0213100Y0122753D01*
X0212036Y0121688D02*
X0203764Y0121688D01*
X0205363Y0120090D02*
X0210437Y0120090D01*
X0208839Y0118491D02*
X0206961Y0118491D01*
X0213745Y0116893D02*
X0225375Y0116893D01*
X0223616Y0115294D02*
X0213243Y0115294D01*
X0213243Y0113696D02*
X0222732Y0113696D01*
X0222400Y0112097D02*
X0213243Y0112097D01*
X0213243Y0110499D02*
X0222486Y0110499D01*
X0223148Y0108900D02*
X0213243Y0108900D01*
X0215344Y0118491D02*
X0223430Y0118491D01*
X0223225Y0124885D02*
X0200567Y0124885D01*
X0198969Y0126484D02*
X0224836Y0126484D01*
X0223839Y0128082D02*
X0197370Y0128082D01*
X0195772Y0129681D02*
X0222825Y0129681D01*
X0222400Y0131279D02*
X0194173Y0131279D01*
X0192575Y0132878D02*
X0222400Y0132878D01*
X0223055Y0134476D02*
X0190976Y0134476D01*
X0189378Y0136075D02*
X0224397Y0136075D01*
X0226274Y0137673D02*
X0187779Y0137673D01*
X0186181Y0139272D02*
X0224675Y0139272D01*
X0227984Y0142469D02*
X0242300Y0142469D01*
X0242300Y0144068D02*
X0226385Y0144068D01*
X0229582Y0140870D02*
X0242300Y0140870D01*
X0242300Y0139272D02*
X0231181Y0139272D01*
X0232779Y0137673D02*
X0242300Y0137673D01*
X0242300Y0136075D02*
X0234378Y0136075D01*
X0235976Y0134476D02*
X0242300Y0134476D01*
X0242300Y0132878D02*
X0237575Y0132878D01*
X0237700Y0131279D02*
X0242300Y0131279D01*
X0242300Y0129681D02*
X0237700Y0129681D01*
X0237700Y0128082D02*
X0242300Y0128082D01*
X0242300Y0126484D02*
X0237700Y0126484D01*
X0237700Y0124885D02*
X0242300Y0124885D01*
X0242300Y0123287D02*
X0237700Y0123287D01*
X0237700Y0121688D02*
X0242300Y0121688D01*
X0242300Y0120090D02*
X0237700Y0120090D01*
X0237700Y0118491D02*
X0242300Y0118491D01*
X0242300Y0116893D02*
X0237700Y0116893D01*
X0237700Y0115294D02*
X0242300Y0115294D01*
X0242300Y0113696D02*
X0237700Y0113696D01*
X0237700Y0112097D02*
X0242300Y0112097D01*
X0242300Y0110499D02*
X0237351Y0110499D01*
X0232652Y0108900D02*
X0242300Y0108900D01*
X0242300Y0107302D02*
X0231180Y0107302D01*
X0233400Y0105703D02*
X0242300Y0105703D01*
X0242300Y0104105D02*
X0233400Y0104105D01*
X0233400Y0102506D02*
X0242300Y0102506D01*
X0242300Y0100908D02*
X0233400Y0100908D01*
X0233400Y0099309D02*
X0242300Y0099309D01*
X0242300Y0097711D02*
X0233400Y0097711D01*
X0233100Y0114100D02*
X0232900Y0114100D01*
X0232563Y0114915D01*
X0231015Y0116463D01*
X0230201Y0116800D01*
X0231015Y0117137D01*
X0232563Y0118684D01*
X0233100Y0119982D01*
X0233100Y0114100D01*
X0233100Y0115294D02*
X0232184Y0115294D01*
X0233100Y0116893D02*
X0230425Y0116893D01*
X0232369Y0118491D02*
X0233100Y0118491D01*
X0233100Y0123618D02*
X0232563Y0124915D01*
X0231015Y0126463D01*
X0230201Y0126800D01*
X0231015Y0127137D01*
X0232563Y0128684D01*
X0233100Y0129982D01*
X0233100Y0123618D01*
X0233100Y0124885D02*
X0232575Y0124885D01*
X0233100Y0126484D02*
X0230964Y0126484D01*
X0231961Y0128082D02*
X0233100Y0128082D01*
X0233100Y0129681D02*
X0232975Y0129681D01*
X0233310Y0147265D02*
X0242300Y0147265D01*
X0242300Y0148863D02*
X0233400Y0148863D01*
X0233400Y0150462D02*
X0242300Y0150462D01*
X0242300Y0152060D02*
X0233400Y0152060D01*
X0233400Y0153659D02*
X0242300Y0153659D01*
X0242300Y0155257D02*
X0233400Y0155257D01*
X0232790Y0156856D02*
X0242300Y0156856D01*
X0242300Y0158454D02*
X0232332Y0158454D01*
X0236905Y0160053D02*
X0242300Y0160053D01*
X0242300Y0161651D02*
X0237700Y0161651D01*
X0237700Y0163250D02*
X0242300Y0163250D01*
X0242300Y0164848D02*
X0237700Y0164848D01*
X0237700Y0166447D02*
X0242300Y0166447D01*
X0242300Y0168045D02*
X0237700Y0168045D01*
X0237700Y0169644D02*
X0242300Y0169644D01*
X0242300Y0171242D02*
X0237700Y0171242D01*
X0237700Y0172841D02*
X0242300Y0172841D01*
X0242300Y0174439D02*
X0237700Y0174439D01*
X0237700Y0176038D02*
X0242300Y0176038D01*
X0242300Y0177636D02*
X0237700Y0177636D01*
X0237700Y0179235D02*
X0242300Y0179235D01*
X0242300Y0180833D02*
X0237700Y0180833D01*
X0237700Y0182432D02*
X0242300Y0182432D01*
X0242300Y0184030D02*
X0236422Y0184030D01*
X0234824Y0185629D02*
X0242300Y0185629D01*
X0242300Y0187227D02*
X0233225Y0187227D01*
X0231627Y0188826D02*
X0242300Y0188826D01*
X0242300Y0190424D02*
X0230028Y0190424D01*
X0228430Y0192023D02*
X0242300Y0192023D01*
X0242300Y0193621D02*
X0226831Y0193621D01*
X0225233Y0195220D02*
X0242300Y0195220D01*
X0242300Y0196818D02*
X0235245Y0196818D01*
X0237295Y0198417D02*
X0242300Y0198417D01*
X0242300Y0200015D02*
X0238114Y0200015D01*
X0238400Y0201614D02*
X0242300Y0201614D01*
X0242300Y0203212D02*
X0238268Y0203212D01*
X0237606Y0204811D02*
X0242300Y0204811D01*
X0242300Y0206409D02*
X0236069Y0206409D01*
X0229731Y0206409D02*
X0226069Y0206409D01*
X0227606Y0204811D02*
X0228194Y0204811D01*
X0228505Y0198417D02*
X0227295Y0198417D01*
X0225245Y0196818D02*
X0230554Y0196818D01*
X0223523Y0190424D02*
X0185028Y0190424D01*
X0183853Y0191600D02*
X0181947Y0191600D01*
X0164447Y0191600D01*
X0163100Y0190253D01*
X0152997Y0180150D01*
X0152234Y0180150D01*
X0151002Y0179640D01*
X0150060Y0178698D01*
X0149550Y0177466D01*
X0149550Y0176134D01*
X0150060Y0174902D01*
X0150862Y0174100D01*
X0123243Y0174100D01*
X0123243Y0181207D01*
X0122189Y0182261D01*
X0118191Y0182261D01*
X0105200Y0195253D01*
X0104106Y0196346D01*
X0106015Y0197137D01*
X0107563Y0198684D01*
X0108400Y0200706D01*
X0108400Y0202894D01*
X0107563Y0204915D01*
X0106015Y0206463D01*
X0104718Y0207000D01*
X0206947Y0207000D01*
X0226694Y0187254D01*
X0224784Y0186463D01*
X0223237Y0184915D01*
X0222400Y0182894D01*
X0222400Y0180706D01*
X0223237Y0178684D01*
X0224784Y0177137D01*
X0225599Y0176800D01*
X0224784Y0176463D01*
X0223237Y0174915D01*
X0222900Y0174100D01*
X0214447Y0174100D01*
X0213100Y0172753D01*
X0207900Y0167553D01*
X0183853Y0191600D01*
X0186627Y0188826D02*
X0225121Y0188826D01*
X0226631Y0187227D02*
X0188225Y0187227D01*
X0189824Y0185629D02*
X0223951Y0185629D01*
X0222871Y0184030D02*
X0191422Y0184030D01*
X0193021Y0182432D02*
X0222400Y0182432D01*
X0222400Y0180833D02*
X0194619Y0180833D01*
X0196218Y0179235D02*
X0223009Y0179235D01*
X0224286Y0177636D02*
X0197816Y0177636D01*
X0199415Y0176038D02*
X0224360Y0176038D01*
X0223040Y0174439D02*
X0201013Y0174439D01*
X0202612Y0172841D02*
X0213188Y0172841D01*
X0211590Y0171242D02*
X0204210Y0171242D01*
X0205809Y0169644D02*
X0209991Y0169644D01*
X0208393Y0168045D02*
X0207407Y0168045D01*
X0202649Y0166299D02*
X0202557Y0166207D01*
X0202557Y0158417D01*
X0203611Y0157362D01*
X0212189Y0157362D01*
X0213243Y0158417D01*
X0213243Y0166207D01*
X0213151Y0166299D01*
X0216353Y0169500D01*
X0222900Y0169500D01*
X0223237Y0168684D01*
X0224784Y0167137D01*
X0225599Y0166800D01*
X0224784Y0166463D01*
X0223237Y0164915D01*
X0222400Y0162894D01*
X0222400Y0160706D01*
X0223237Y0158684D01*
X0224622Y0157300D01*
X0223454Y0157300D01*
X0222400Y0156246D01*
X0222400Y0154100D01*
X0213243Y0154100D01*
X0213243Y0155183D01*
X0212189Y0156238D01*
X0203611Y0156238D01*
X0202557Y0155183D01*
X0202557Y0154100D01*
X0178400Y0154100D01*
X0178400Y0156246D01*
X0177346Y0157300D01*
X0176178Y0157300D01*
X0177563Y0158684D01*
X0178400Y0160706D01*
X0178400Y0162894D01*
X0177563Y0164915D01*
X0176015Y0166463D01*
X0175201Y0166800D01*
X0176015Y0167137D01*
X0177563Y0168684D01*
X0178400Y0170706D01*
X0178400Y0172894D01*
X0177563Y0174915D01*
X0176015Y0176463D01*
X0175201Y0176800D01*
X0176015Y0177137D01*
X0177563Y0178684D01*
X0178400Y0180706D01*
X0178400Y0182894D01*
X0177563Y0184915D01*
X0176015Y0186463D01*
X0174718Y0187000D01*
X0181947Y0187000D01*
X0202649Y0166299D01*
X0202501Y0166447D02*
X0176031Y0166447D01*
X0176923Y0168045D02*
X0200902Y0168045D01*
X0199304Y0169644D02*
X0177960Y0169644D01*
X0178400Y0171242D02*
X0197705Y0171242D01*
X0196107Y0172841D02*
X0178400Y0172841D01*
X0177760Y0174439D02*
X0194508Y0174439D01*
X0192910Y0176038D02*
X0176440Y0176038D01*
X0176514Y0177636D02*
X0191311Y0177636D01*
X0189713Y0179235D02*
X0177791Y0179235D01*
X0178400Y0180833D02*
X0188114Y0180833D01*
X0186516Y0182432D02*
X0178400Y0182432D01*
X0177929Y0184030D02*
X0184917Y0184030D01*
X0183319Y0185629D02*
X0176849Y0185629D01*
X0171082Y0187000D02*
X0169784Y0186463D01*
X0168237Y0184915D01*
X0167400Y0182894D01*
X0167400Y0180706D01*
X0168237Y0178684D01*
X0169784Y0177137D01*
X0170599Y0176800D01*
X0169784Y0176463D01*
X0168237Y0174915D01*
X0167900Y0174100D01*
X0161250Y0174100D01*
X0161250Y0174966D01*
X0160740Y0176198D01*
X0159798Y0177140D01*
X0158566Y0177650D01*
X0157234Y0177650D01*
X0156839Y0177487D01*
X0166353Y0187000D01*
X0171082Y0187000D01*
X0168951Y0185629D02*
X0164981Y0185629D01*
X0163383Y0184030D02*
X0167871Y0184030D01*
X0167400Y0182432D02*
X0161784Y0182432D01*
X0160186Y0180833D02*
X0167400Y0180833D01*
X0168009Y0179235D02*
X0158587Y0179235D01*
X0158600Y0177636D02*
X0169286Y0177636D01*
X0169360Y0176038D02*
X0160806Y0176038D01*
X0161250Y0174439D02*
X0168040Y0174439D01*
X0167900Y0169500D02*
X0168237Y0168684D01*
X0169784Y0167137D01*
X0170599Y0166800D01*
X0169784Y0166463D01*
X0168237Y0164915D01*
X0167400Y0162894D01*
X0167400Y0160706D01*
X0167738Y0159890D01*
X0166947Y0159100D01*
X0158243Y0159100D01*
X0158243Y0166207D01*
X0158151Y0166299D01*
X0161353Y0169500D01*
X0167900Y0169500D01*
X0168877Y0168045D02*
X0159898Y0168045D01*
X0158299Y0166447D02*
X0169769Y0166447D01*
X0168209Y0164848D02*
X0158243Y0164848D01*
X0158243Y0163250D02*
X0167547Y0163250D01*
X0167400Y0161651D02*
X0158243Y0161651D01*
X0158243Y0160053D02*
X0167671Y0160053D01*
X0167400Y0154500D02*
X0167400Y0154100D01*
X0158243Y0154100D01*
X0158243Y0154500D01*
X0167400Y0154500D01*
X0167400Y0148863D02*
X0158243Y0148863D01*
X0158115Y0147265D02*
X0167490Y0147265D01*
X0178310Y0147265D02*
X0202685Y0147265D01*
X0202557Y0148863D02*
X0178400Y0148863D01*
X0178400Y0155257D02*
X0202630Y0155257D01*
X0202557Y0158454D02*
X0177332Y0158454D01*
X0177790Y0156856D02*
X0223010Y0156856D01*
X0223468Y0158454D02*
X0213243Y0158454D01*
X0213243Y0160053D02*
X0222671Y0160053D01*
X0222400Y0161651D02*
X0213243Y0161651D01*
X0213243Y0163250D02*
X0222547Y0163250D01*
X0223209Y0164848D02*
X0213243Y0164848D01*
X0213299Y0166447D02*
X0224769Y0166447D01*
X0223877Y0168045D02*
X0214898Y0168045D01*
X0202557Y0164848D02*
X0177591Y0164848D01*
X0178253Y0163250D02*
X0202557Y0163250D01*
X0202557Y0161651D02*
X0178400Y0161651D01*
X0178129Y0160053D02*
X0202557Y0160053D01*
X0213170Y0155257D02*
X0222400Y0155257D01*
X0222400Y0148863D02*
X0213243Y0148863D01*
X0213115Y0147265D02*
X0222490Y0147265D01*
X0232900Y0164100D02*
X0232563Y0164915D01*
X0231015Y0166463D01*
X0230201Y0166800D01*
X0231015Y0167137D01*
X0232563Y0168684D01*
X0233100Y0169982D01*
X0233100Y0164100D01*
X0232900Y0164100D01*
X0233100Y0164848D02*
X0232591Y0164848D01*
X0233100Y0166447D02*
X0231031Y0166447D01*
X0231923Y0168045D02*
X0233100Y0168045D01*
X0233100Y0169644D02*
X0232960Y0169644D01*
X0233100Y0173618D02*
X0232563Y0174915D01*
X0231015Y0176463D01*
X0230201Y0176800D01*
X0231015Y0177137D01*
X0232563Y0178684D01*
X0233100Y0179982D01*
X0233100Y0173618D01*
X0233100Y0174439D02*
X0232760Y0174439D01*
X0233100Y0176038D02*
X0231440Y0176038D01*
X0231514Y0177636D02*
X0233100Y0177636D01*
X0233100Y0179235D02*
X0232791Y0179235D01*
X0221924Y0192023D02*
X0108430Y0192023D01*
X0110028Y0190424D02*
X0163272Y0190424D01*
X0161673Y0188826D02*
X0111627Y0188826D01*
X0113225Y0187227D02*
X0160075Y0187227D01*
X0158476Y0185629D02*
X0114824Y0185629D01*
X0116422Y0184030D02*
X0156878Y0184030D01*
X0155279Y0182432D02*
X0118021Y0182432D01*
X0123243Y0180833D02*
X0153681Y0180833D01*
X0150597Y0179235D02*
X0123243Y0179235D01*
X0123243Y0177636D02*
X0149620Y0177636D01*
X0149590Y0176038D02*
X0123243Y0176038D01*
X0123243Y0174439D02*
X0150523Y0174439D01*
X0154847Y0169500D02*
X0152609Y0167261D01*
X0148611Y0167261D01*
X0147557Y0166207D01*
X0147557Y0159100D01*
X0111353Y0159100D01*
X0108151Y0162301D01*
X0108243Y0162393D01*
X0108243Y0169500D01*
X0112557Y0169500D01*
X0112557Y0162393D01*
X0113611Y0161339D01*
X0122189Y0161339D01*
X0123243Y0162393D01*
X0123243Y0164219D01*
X0123502Y0163960D01*
X0124734Y0163450D01*
X0126066Y0163450D01*
X0127298Y0163960D01*
X0128240Y0164902D01*
X0128750Y0166134D01*
X0128750Y0167466D01*
X0128240Y0168698D01*
X0127438Y0169500D01*
X0154847Y0169500D01*
X0153393Y0168045D02*
X0128510Y0168045D01*
X0128750Y0166447D02*
X0147796Y0166447D01*
X0147557Y0164848D02*
X0128186Y0164848D01*
X0123243Y0163250D02*
X0147557Y0163250D01*
X0147557Y0161651D02*
X0122501Y0161651D01*
X0123362Y0154500D02*
X0122962Y0154100D01*
X0101353Y0154100D01*
X0093151Y0162301D01*
X0093243Y0162393D01*
X0093243Y0169500D01*
X0097557Y0169500D01*
X0097557Y0162393D01*
X0098611Y0161339D01*
X0102609Y0161339D01*
X0108100Y0155847D01*
X0109447Y0154500D01*
X0123362Y0154500D01*
X0127438Y0154500D02*
X0147557Y0154500D01*
X0147557Y0149100D01*
X0127438Y0149100D01*
X0128240Y0149902D01*
X0128750Y0151134D01*
X0128750Y0152466D01*
X0128240Y0153698D01*
X0127438Y0154500D01*
X0128256Y0153659D02*
X0147557Y0153659D01*
X0147557Y0152060D02*
X0128750Y0152060D01*
X0128472Y0150462D02*
X0147557Y0150462D01*
X0152287Y0145666D02*
X0242300Y0145666D01*
X0220326Y0193621D02*
X0106831Y0193621D01*
X0105233Y0195220D02*
X0218727Y0195220D01*
X0217129Y0196818D02*
X0105245Y0196818D01*
X0107295Y0198417D02*
X0215530Y0198417D01*
X0213932Y0200015D02*
X0108114Y0200015D01*
X0108400Y0201614D02*
X0212333Y0201614D01*
X0210735Y0203212D02*
X0108268Y0203212D01*
X0107606Y0204811D02*
X0209136Y0204811D01*
X0207538Y0206409D02*
X0106069Y0206409D01*
X0101082Y0207000D02*
X0099784Y0206463D01*
X0098237Y0204915D01*
X0097900Y0204101D01*
X0097563Y0204915D01*
X0096015Y0206463D01*
X0094718Y0207000D01*
X0101082Y0207000D01*
X0099731Y0206409D02*
X0096069Y0206409D01*
X0097606Y0204811D02*
X0098194Y0204811D01*
X0097900Y0199499D02*
X0098237Y0198684D01*
X0099784Y0197137D01*
X0101082Y0196600D01*
X0094718Y0196600D01*
X0096015Y0197137D01*
X0097563Y0198684D01*
X0097900Y0199499D01*
X0097295Y0198417D02*
X0098505Y0198417D01*
X0100555Y0196818D02*
X0095245Y0196818D01*
X0093453Y0192000D02*
X0101947Y0192000D01*
X0112649Y0181299D01*
X0112557Y0181207D01*
X0112557Y0174100D01*
X0108243Y0174100D01*
X0108243Y0181207D01*
X0107189Y0182261D01*
X0103191Y0182261D01*
X0093453Y0192000D01*
X0095028Y0190424D02*
X0103523Y0190424D01*
X0105121Y0188826D02*
X0096627Y0188826D01*
X0098225Y0187227D02*
X0106720Y0187227D01*
X0108319Y0185629D02*
X0099824Y0185629D01*
X0101422Y0184030D02*
X0109917Y0184030D01*
X0111516Y0182432D02*
X0103021Y0182432D01*
X0108243Y0180833D02*
X0112557Y0180833D01*
X0112557Y0179235D02*
X0108243Y0179235D01*
X0108243Y0177636D02*
X0112557Y0177636D01*
X0112557Y0176038D02*
X0108243Y0176038D01*
X0108243Y0174439D02*
X0112557Y0174439D01*
X0112557Y0168045D02*
X0108243Y0168045D01*
X0108243Y0166447D02*
X0112557Y0166447D01*
X0112557Y0164848D02*
X0108243Y0164848D01*
X0108243Y0163250D02*
X0112557Y0163250D01*
X0113299Y0161651D02*
X0108802Y0161651D01*
X0110400Y0160053D02*
X0147557Y0160053D01*
X0147380Y0144068D02*
X0131385Y0144068D01*
X0132984Y0142469D02*
X0148978Y0142469D01*
X0150577Y0140870D02*
X0134582Y0140870D01*
X0123362Y0149100D02*
X0061353Y0149100D01*
X0048151Y0162301D01*
X0048243Y0162393D01*
X0048243Y0169500D01*
X0051947Y0169500D01*
X0052557Y0168891D01*
X0052557Y0162393D01*
X0053611Y0161339D01*
X0062189Y0161339D01*
X0063243Y0162393D01*
X0063243Y0170183D01*
X0062189Y0171238D01*
X0056715Y0171238D01*
X0055590Y0172362D01*
X0062189Y0172362D01*
X0063243Y0173417D01*
X0063243Y0181207D01*
X0062189Y0182261D01*
X0058191Y0182261D01*
X0045200Y0195253D01*
X0045200Y0196800D01*
X0046015Y0197137D01*
X0047563Y0198684D01*
X0047900Y0199499D01*
X0048237Y0198684D01*
X0049784Y0197137D01*
X0051806Y0196300D01*
X0052647Y0196300D01*
X0067649Y0181299D01*
X0067557Y0181207D01*
X0067557Y0173417D01*
X0068611Y0172362D01*
X0075210Y0172362D01*
X0074085Y0171238D01*
X0068611Y0171238D01*
X0067557Y0170183D01*
X0067557Y0162393D01*
X0068611Y0161339D01*
X0077189Y0161339D01*
X0078243Y0162393D01*
X0078243Y0168891D01*
X0078853Y0169500D01*
X0082557Y0169500D01*
X0082557Y0162393D01*
X0083611Y0161339D01*
X0087609Y0161339D01*
X0098100Y0150847D01*
X0099447Y0149500D01*
X0122962Y0149500D01*
X0123362Y0149100D01*
X0108690Y0155257D02*
X0100196Y0155257D01*
X0098597Y0156856D02*
X0107092Y0156856D01*
X0105493Y0158454D02*
X0096999Y0158454D01*
X0095400Y0160053D02*
X0103895Y0160053D01*
X0098299Y0161651D02*
X0093802Y0161651D01*
X0093243Y0163250D02*
X0097557Y0163250D01*
X0097557Y0164848D02*
X0093243Y0164848D01*
X0093243Y0166447D02*
X0097557Y0166447D01*
X0097557Y0168045D02*
X0093243Y0168045D01*
X0093243Y0174100D02*
X0093243Y0181207D01*
X0092189Y0182261D01*
X0088191Y0182261D01*
X0074106Y0196346D01*
X0074810Y0196638D01*
X0079447Y0192000D01*
X0086947Y0192000D01*
X0097649Y0181299D01*
X0097557Y0181207D01*
X0097557Y0174100D01*
X0093243Y0174100D01*
X0093243Y0174439D02*
X0097557Y0174439D01*
X0097557Y0176038D02*
X0093243Y0176038D01*
X0093243Y0177636D02*
X0097557Y0177636D01*
X0097557Y0179235D02*
X0093243Y0179235D01*
X0093243Y0180833D02*
X0097557Y0180833D01*
X0096516Y0182432D02*
X0088021Y0182432D01*
X0086422Y0184030D02*
X0094917Y0184030D01*
X0093319Y0185629D02*
X0084824Y0185629D01*
X0083225Y0187227D02*
X0091720Y0187227D01*
X0090121Y0188826D02*
X0081627Y0188826D01*
X0080028Y0190424D02*
X0088523Y0190424D01*
X0087347Y0196600D02*
X0084718Y0196600D01*
X0086015Y0197137D01*
X0086413Y0197535D01*
X0087347Y0196600D01*
X0087129Y0196818D02*
X0085245Y0196818D01*
X0079424Y0192023D02*
X0078430Y0192023D01*
X0077826Y0193621D02*
X0076831Y0193621D01*
X0076227Y0195220D02*
X0075233Y0195220D01*
X0071924Y0192023D02*
X0063430Y0192023D01*
X0065028Y0190424D02*
X0073523Y0190424D01*
X0075121Y0188826D02*
X0066627Y0188826D01*
X0068225Y0187227D02*
X0076720Y0187227D01*
X0078319Y0185629D02*
X0069824Y0185629D01*
X0071422Y0184030D02*
X0079917Y0184030D01*
X0081516Y0182432D02*
X0073021Y0182432D01*
X0073191Y0182261D02*
X0057165Y0198287D01*
X0057563Y0198684D01*
X0057900Y0199499D01*
X0058237Y0198684D01*
X0059784Y0197137D01*
X0061806Y0196300D01*
X0063994Y0196300D01*
X0066015Y0197137D01*
X0066413Y0197535D01*
X0082649Y0181299D01*
X0082557Y0181207D01*
X0082557Y0174100D01*
X0078243Y0174100D01*
X0078243Y0181207D01*
X0077189Y0182261D01*
X0073191Y0182261D01*
X0078243Y0180833D02*
X0082557Y0180833D01*
X0082557Y0179235D02*
X0078243Y0179235D01*
X0078243Y0177636D02*
X0082557Y0177636D01*
X0082557Y0176038D02*
X0078243Y0176038D01*
X0078243Y0174439D02*
X0082557Y0174439D01*
X0082557Y0168045D02*
X0078243Y0168045D01*
X0078243Y0166447D02*
X0082557Y0166447D01*
X0082557Y0164848D02*
X0078243Y0164848D01*
X0078243Y0163250D02*
X0082557Y0163250D01*
X0083299Y0161651D02*
X0077501Y0161651D01*
X0074090Y0171242D02*
X0056710Y0171242D01*
X0052557Y0168045D02*
X0048243Y0168045D01*
X0048243Y0166447D02*
X0052557Y0166447D01*
X0052557Y0164848D02*
X0048243Y0164848D01*
X0048243Y0163250D02*
X0052557Y0163250D01*
X0053299Y0161651D02*
X0048802Y0161651D01*
X0050400Y0160053D02*
X0088895Y0160053D01*
X0090493Y0158454D02*
X0051999Y0158454D01*
X0053597Y0156856D02*
X0092092Y0156856D01*
X0093690Y0155257D02*
X0055196Y0155257D01*
X0056794Y0153659D02*
X0095289Y0153659D01*
X0096887Y0152060D02*
X0058393Y0152060D01*
X0059991Y0150462D02*
X0098486Y0150462D01*
X0123243Y0169381D02*
X0123243Y0169500D01*
X0123362Y0169500D01*
X0123243Y0169381D01*
X0156989Y0177636D02*
X0157200Y0177636D01*
X0157450Y0211600D02*
X0158243Y0212393D01*
X0158243Y0214500D01*
X0167400Y0214500D01*
X0167400Y0212354D01*
X0168154Y0211600D01*
X0157450Y0211600D01*
X0158243Y0212803D02*
X0167400Y0212803D01*
X0167400Y0214402D02*
X0158243Y0214402D01*
X0158243Y0219100D02*
X0158243Y0219500D01*
X0167400Y0219500D01*
X0167400Y0219100D01*
X0158243Y0219100D01*
X0158243Y0219198D02*
X0167400Y0219198D01*
X0166947Y0224100D02*
X0158243Y0224100D01*
X0158243Y0231207D01*
X0158151Y0231299D01*
X0161353Y0234500D01*
X0167900Y0234500D01*
X0168237Y0233684D01*
X0169784Y0232137D01*
X0170599Y0231800D01*
X0169784Y0231463D01*
X0168237Y0229915D01*
X0167400Y0227894D01*
X0167400Y0225706D01*
X0167738Y0224890D01*
X0166947Y0224100D01*
X0167447Y0225592D02*
X0158243Y0225592D01*
X0158243Y0227190D02*
X0167400Y0227190D01*
X0167771Y0228789D02*
X0158243Y0228789D01*
X0158243Y0230387D02*
X0168709Y0230387D01*
X0170151Y0231986D02*
X0158838Y0231986D01*
X0160437Y0233584D02*
X0168338Y0233584D01*
X0167900Y0239100D02*
X0159447Y0239100D01*
X0158100Y0237753D01*
X0152609Y0232261D01*
X0148611Y0232261D01*
X0147557Y0231207D01*
X0147557Y0224100D01*
X0146947Y0224100D01*
X0145600Y0222753D01*
X0142997Y0220150D01*
X0142234Y0220150D01*
X0141002Y0219640D01*
X0140060Y0218698D01*
X0139550Y0217466D01*
X0139550Y0216134D01*
X0140060Y0214902D01*
X0141002Y0213960D01*
X0142234Y0213450D01*
X0143566Y0213450D01*
X0144798Y0213960D01*
X0145740Y0214902D01*
X0146250Y0216134D01*
X0146250Y0216897D01*
X0147557Y0218204D01*
X0147557Y0212393D01*
X0148350Y0211600D01*
X0027438Y0211600D01*
X0028240Y0212402D01*
X0028750Y0213634D01*
X0028750Y0214397D01*
X0066353Y0252000D01*
X0171082Y0252000D01*
X0169784Y0251463D01*
X0168237Y0249915D01*
X0167400Y0247894D01*
X0167400Y0245706D01*
X0168237Y0243684D01*
X0169784Y0242137D01*
X0170599Y0241800D01*
X0169784Y0241463D01*
X0168237Y0239915D01*
X0167900Y0239100D01*
X0168300Y0239978D02*
X0054331Y0239978D01*
X0052732Y0238380D02*
X0158727Y0238380D01*
X0157128Y0236781D02*
X0051134Y0236781D01*
X0049535Y0235183D02*
X0155530Y0235183D01*
X0153931Y0233584D02*
X0047937Y0233584D01*
X0046338Y0231986D02*
X0148335Y0231986D01*
X0147557Y0230387D02*
X0044740Y0230387D01*
X0043141Y0228789D02*
X0147557Y0228789D01*
X0147557Y0227190D02*
X0041543Y0227190D01*
X0039944Y0225592D02*
X0147557Y0225592D01*
X0146840Y0223993D02*
X0038346Y0223993D01*
X0036747Y0222395D02*
X0145242Y0222395D01*
X0143643Y0220796D02*
X0035149Y0220796D01*
X0033550Y0219198D02*
X0140560Y0219198D01*
X0139605Y0217599D02*
X0031952Y0217599D01*
X0030353Y0216001D02*
X0139605Y0216001D01*
X0140560Y0214402D02*
X0028755Y0214402D01*
X0028406Y0212803D02*
X0147557Y0212803D01*
X0147557Y0214402D02*
X0145240Y0214402D01*
X0146195Y0216001D02*
X0147557Y0216001D01*
X0147557Y0217599D02*
X0146952Y0217599D01*
X0170060Y0241577D02*
X0055929Y0241577D01*
X0057528Y0243175D02*
X0168747Y0243175D01*
X0167786Y0244774D02*
X0059126Y0244774D01*
X0060725Y0246372D02*
X0167400Y0246372D01*
X0167432Y0247971D02*
X0062323Y0247971D01*
X0063922Y0249569D02*
X0168094Y0249569D01*
X0169490Y0251168D02*
X0065520Y0251168D01*
X0063100Y0255253D02*
X0025497Y0217650D01*
X0024734Y0217650D01*
X0023502Y0217140D01*
X0022560Y0216198D01*
X0022050Y0214966D01*
X0022050Y0213634D01*
X0022560Y0212402D01*
X0023502Y0211460D01*
X0024072Y0211224D01*
X0023100Y0210253D01*
X0023100Y0200847D01*
X0024447Y0199500D01*
X0027347Y0196600D01*
X0026353Y0196600D01*
X0021900Y0201053D01*
X0021900Y0202894D01*
X0021063Y0204915D01*
X0019515Y0206463D01*
X0017494Y0207300D01*
X0015306Y0207300D01*
X0013284Y0206463D01*
X0011737Y0204915D01*
X0011400Y0204101D01*
X0011063Y0204915D01*
X0009515Y0206463D01*
X0007500Y0207298D01*
X0007500Y0256200D01*
X0064047Y0256200D01*
X0063100Y0255253D01*
X0063811Y0255963D02*
X0007500Y0255963D01*
X0007500Y0254365D02*
X0062212Y0254365D01*
X0060614Y0252766D02*
X0007500Y0252766D01*
X0007500Y0251168D02*
X0059015Y0251168D01*
X0057417Y0249569D02*
X0007500Y0249569D01*
X0007500Y0247971D02*
X0055818Y0247971D01*
X0054220Y0246372D02*
X0007500Y0246372D01*
X0007500Y0244774D02*
X0052621Y0244774D01*
X0051023Y0243175D02*
X0007500Y0243175D01*
X0007500Y0241577D02*
X0049424Y0241577D01*
X0047826Y0239978D02*
X0007500Y0239978D01*
X0007500Y0238380D02*
X0046227Y0238380D01*
X0044628Y0236781D02*
X0007500Y0236781D01*
X0007500Y0235183D02*
X0043030Y0235183D01*
X0041431Y0233584D02*
X0007500Y0233584D01*
X0007500Y0231986D02*
X0039833Y0231986D01*
X0038234Y0230387D02*
X0007500Y0230387D01*
X0007500Y0228789D02*
X0036636Y0228789D01*
X0035037Y0227190D02*
X0007500Y0227190D01*
X0007500Y0225592D02*
X0033439Y0225592D01*
X0031840Y0223993D02*
X0007500Y0223993D01*
X0007500Y0222395D02*
X0030242Y0222395D01*
X0028643Y0220796D02*
X0007500Y0220796D01*
X0007500Y0219198D02*
X0027045Y0219198D01*
X0024611Y0217599D02*
X0007500Y0217599D01*
X0007500Y0216001D02*
X0022478Y0216001D01*
X0022050Y0214402D02*
X0007500Y0214402D01*
X0007500Y0212803D02*
X0022394Y0212803D01*
X0024052Y0211205D02*
X0007500Y0211205D01*
X0007500Y0209606D02*
X0023100Y0209606D01*
X0023100Y0208008D02*
X0007500Y0208008D01*
X0009569Y0206409D02*
X0013231Y0206409D01*
X0011694Y0204811D02*
X0011106Y0204811D01*
X0009370Y0197077D02*
X0010600Y0195847D01*
X0010600Y0182261D01*
X0008611Y0182261D01*
X0007557Y0181207D01*
X0007557Y0173417D01*
X0008611Y0172362D01*
X0015210Y0172362D01*
X0014085Y0171238D01*
X0008611Y0171238D01*
X0007557Y0170183D01*
X0007557Y0162393D01*
X0008611Y0161339D01*
X0017189Y0161339D01*
X0018243Y0162393D01*
X0018243Y0168891D01*
X0020303Y0170950D01*
X0021066Y0170950D01*
X0022298Y0171460D01*
X0023240Y0172402D01*
X0023337Y0172636D01*
X0023611Y0172362D01*
X0030210Y0172362D01*
X0029085Y0171238D01*
X0023611Y0171238D01*
X0022557Y0170183D01*
X0022557Y0162393D01*
X0023611Y0161339D01*
X0032189Y0161339D01*
X0033100Y0162250D01*
X0033100Y0143347D01*
X0034047Y0142400D01*
X0007500Y0142400D01*
X0007500Y0196302D01*
X0009370Y0197077D01*
X0009629Y0196818D02*
X0008745Y0196818D01*
X0007500Y0195220D02*
X0010600Y0195220D01*
X0010600Y0193621D02*
X0007500Y0193621D01*
X0007500Y0192023D02*
X0010600Y0192023D01*
X0010600Y0190424D02*
X0007500Y0190424D01*
X0007500Y0188826D02*
X0010600Y0188826D01*
X0010600Y0187227D02*
X0007500Y0187227D01*
X0007500Y0185629D02*
X0010600Y0185629D01*
X0010600Y0184030D02*
X0007500Y0184030D01*
X0007500Y0182432D02*
X0010600Y0182432D01*
X0007557Y0180833D02*
X0007500Y0180833D01*
X0007500Y0179235D02*
X0007557Y0179235D01*
X0007557Y0177636D02*
X0007500Y0177636D01*
X0007500Y0176038D02*
X0007557Y0176038D01*
X0007557Y0174439D02*
X0007500Y0174439D01*
X0007500Y0172841D02*
X0008133Y0172841D01*
X0007500Y0171242D02*
X0014090Y0171242D01*
X0018996Y0169644D02*
X0022557Y0169644D01*
X0022557Y0168045D02*
X0018243Y0168045D01*
X0018243Y0166447D02*
X0022557Y0166447D01*
X0022557Y0164848D02*
X0018243Y0164848D01*
X0018243Y0163250D02*
X0022557Y0163250D01*
X0023299Y0161651D02*
X0017501Y0161651D01*
X0021772Y0171242D02*
X0029090Y0171242D01*
X0022557Y0176881D02*
X0022298Y0177140D01*
X0021066Y0177650D01*
X0019734Y0177650D01*
X0018502Y0177140D01*
X0018243Y0176881D01*
X0018243Y0181207D01*
X0017189Y0182261D01*
X0015200Y0182261D01*
X0015200Y0196344D01*
X0015306Y0196300D01*
X0017494Y0196300D01*
X0019370Y0197077D01*
X0024447Y0192000D01*
X0025600Y0192000D01*
X0025600Y0182261D01*
X0023611Y0182261D01*
X0022557Y0181207D01*
X0022557Y0176881D01*
X0022557Y0177636D02*
X0021100Y0177636D01*
X0019700Y0177636D02*
X0018243Y0177636D01*
X0018243Y0179235D02*
X0022557Y0179235D01*
X0022557Y0180833D02*
X0018243Y0180833D01*
X0015200Y0182432D02*
X0025600Y0182432D01*
X0025600Y0184030D02*
X0015200Y0184030D01*
X0015200Y0185629D02*
X0025600Y0185629D01*
X0025600Y0187227D02*
X0015200Y0187227D01*
X0015200Y0188826D02*
X0025600Y0188826D01*
X0025600Y0190424D02*
X0015200Y0190424D01*
X0015200Y0192023D02*
X0024424Y0192023D01*
X0022826Y0193621D02*
X0015200Y0193621D01*
X0015200Y0195220D02*
X0021227Y0195220D01*
X0019629Y0196818D02*
X0018745Y0196818D01*
X0022937Y0200015D02*
X0023932Y0200015D01*
X0024536Y0198417D02*
X0025530Y0198417D01*
X0026134Y0196818D02*
X0027129Y0196818D01*
X0030200Y0193747D02*
X0033100Y0190847D01*
X0033100Y0181350D01*
X0032189Y0182261D01*
X0030200Y0182261D01*
X0030200Y0193747D01*
X0030200Y0193621D02*
X0030326Y0193621D01*
X0030200Y0192023D02*
X0031924Y0192023D01*
X0033100Y0190424D02*
X0030200Y0190424D01*
X0030200Y0188826D02*
X0033100Y0188826D01*
X0033100Y0187227D02*
X0030200Y0187227D01*
X0030200Y0185629D02*
X0033100Y0185629D01*
X0033100Y0184030D02*
X0030200Y0184030D01*
X0030200Y0182432D02*
X0033100Y0182432D01*
X0037700Y0182432D02*
X0040600Y0182432D01*
X0040600Y0182261D02*
X0040600Y0188347D01*
X0037700Y0191247D01*
X0037700Y0181350D01*
X0038611Y0182261D01*
X0040600Y0182261D01*
X0040600Y0184030D02*
X0037700Y0184030D01*
X0037700Y0185629D02*
X0040600Y0185629D01*
X0040600Y0187227D02*
X0037700Y0187227D01*
X0037700Y0188826D02*
X0040121Y0188826D01*
X0038523Y0190424D02*
X0037700Y0190424D01*
X0040600Y0194853D02*
X0037165Y0198287D01*
X0037563Y0198684D01*
X0037900Y0199499D01*
X0038237Y0198684D01*
X0039784Y0197137D01*
X0040600Y0196800D01*
X0040600Y0194853D01*
X0040600Y0195220D02*
X0040233Y0195220D01*
X0040554Y0196818D02*
X0038634Y0196818D01*
X0038505Y0198417D02*
X0037295Y0198417D01*
X0037900Y0204101D02*
X0037563Y0204915D01*
X0036015Y0206463D01*
X0034718Y0207000D01*
X0041082Y0207000D01*
X0039784Y0206463D01*
X0038237Y0204915D01*
X0037900Y0204101D01*
X0037606Y0204811D02*
X0038194Y0204811D01*
X0039731Y0206409D02*
X0036069Y0206409D01*
X0031082Y0207000D02*
X0029784Y0206463D01*
X0028237Y0204915D01*
X0027700Y0203618D01*
X0027700Y0207000D01*
X0031082Y0207000D01*
X0029731Y0206409D02*
X0027700Y0206409D01*
X0027700Y0204811D02*
X0028194Y0204811D01*
X0023100Y0204811D02*
X0021106Y0204811D01*
X0021768Y0203212D02*
X0023100Y0203212D01*
X0023100Y0201614D02*
X0021900Y0201614D01*
X0023100Y0206409D02*
X0019569Y0206409D01*
X0044718Y0207000D02*
X0051082Y0207000D01*
X0049784Y0206463D01*
X0048237Y0204915D01*
X0047900Y0204101D01*
X0047563Y0204915D01*
X0046015Y0206463D01*
X0044718Y0207000D01*
X0046069Y0206409D02*
X0049731Y0206409D01*
X0048194Y0204811D02*
X0047606Y0204811D01*
X0047295Y0198417D02*
X0048505Y0198417D01*
X0050554Y0196818D02*
X0045245Y0196818D01*
X0045233Y0195220D02*
X0053727Y0195220D01*
X0055326Y0193621D02*
X0046831Y0193621D01*
X0048430Y0192023D02*
X0056924Y0192023D01*
X0058523Y0190424D02*
X0050028Y0190424D01*
X0051627Y0188826D02*
X0060121Y0188826D01*
X0061720Y0187227D02*
X0053225Y0187227D01*
X0054824Y0185629D02*
X0063319Y0185629D01*
X0064917Y0184030D02*
X0056422Y0184030D01*
X0058021Y0182432D02*
X0066516Y0182432D01*
X0067557Y0180833D02*
X0063243Y0180833D01*
X0063243Y0179235D02*
X0067557Y0179235D01*
X0067557Y0177636D02*
X0063243Y0177636D01*
X0063243Y0176038D02*
X0067557Y0176038D01*
X0067557Y0174439D02*
X0063243Y0174439D01*
X0062667Y0172841D02*
X0068133Y0172841D01*
X0067557Y0169644D02*
X0063243Y0169644D01*
X0063243Y0168045D02*
X0067557Y0168045D01*
X0067557Y0166447D02*
X0063243Y0166447D01*
X0063243Y0164848D02*
X0067557Y0164848D01*
X0067557Y0163250D02*
X0063243Y0163250D01*
X0062501Y0161651D02*
X0068299Y0161651D01*
X0055084Y0148863D02*
X0037700Y0148863D01*
X0037700Y0147265D02*
X0056683Y0147265D01*
X0057347Y0146600D02*
X0037700Y0146600D01*
X0037700Y0162250D01*
X0038611Y0161339D01*
X0042609Y0161339D01*
X0057347Y0146600D01*
X0053486Y0150462D02*
X0037700Y0150462D01*
X0037700Y0152060D02*
X0051887Y0152060D01*
X0050289Y0153659D02*
X0037700Y0153659D01*
X0037700Y0155257D02*
X0048690Y0155257D01*
X0047092Y0156856D02*
X0037700Y0156856D01*
X0037700Y0158454D02*
X0045493Y0158454D01*
X0043895Y0160053D02*
X0037700Y0160053D01*
X0037700Y0161651D02*
X0038299Y0161651D01*
X0033100Y0161651D02*
X0032501Y0161651D01*
X0033100Y0160053D02*
X0007500Y0160053D01*
X0007500Y0161651D02*
X0008299Y0161651D01*
X0007557Y0163250D02*
X0007500Y0163250D01*
X0007500Y0164848D02*
X0007557Y0164848D01*
X0007557Y0166447D02*
X0007500Y0166447D01*
X0007500Y0168045D02*
X0007557Y0168045D01*
X0007557Y0169644D02*
X0007500Y0169644D01*
X0007500Y0158454D02*
X0033100Y0158454D01*
X0033100Y0156856D02*
X0007500Y0156856D01*
X0007500Y0155257D02*
X0033100Y0155257D01*
X0033100Y0153659D02*
X0007500Y0153659D01*
X0007500Y0152060D02*
X0033100Y0152060D01*
X0033100Y0150462D02*
X0007500Y0150462D01*
X0007500Y0148863D02*
X0033100Y0148863D01*
X0033100Y0147265D02*
X0007500Y0147265D01*
X0007500Y0145666D02*
X0033100Y0145666D01*
X0033100Y0144068D02*
X0007500Y0144068D01*
X0007500Y0142469D02*
X0033978Y0142469D01*
X0048243Y0174100D02*
X0048243Y0181207D01*
X0047189Y0182261D01*
X0045200Y0182261D01*
X0045200Y0188747D01*
X0052649Y0181299D01*
X0052557Y0181207D01*
X0052557Y0174100D01*
X0048243Y0174100D01*
X0048243Y0174439D02*
X0052557Y0174439D01*
X0052557Y0176038D02*
X0048243Y0176038D01*
X0048243Y0177636D02*
X0052557Y0177636D01*
X0052557Y0179235D02*
X0048243Y0179235D01*
X0048243Y0180833D02*
X0052557Y0180833D01*
X0051516Y0182432D02*
X0045200Y0182432D01*
X0045200Y0184030D02*
X0049917Y0184030D01*
X0048319Y0185629D02*
X0045200Y0185629D01*
X0045200Y0187227D02*
X0046720Y0187227D01*
X0057295Y0198417D02*
X0058505Y0198417D01*
X0058634Y0196818D02*
X0060554Y0196818D01*
X0060233Y0195220D02*
X0068727Y0195220D01*
X0067129Y0196818D02*
X0065245Y0196818D01*
X0061831Y0193621D02*
X0070326Y0193621D01*
X0067900Y0204101D02*
X0067563Y0204915D01*
X0066015Y0206463D01*
X0064718Y0207000D01*
X0071082Y0207000D01*
X0069784Y0206463D01*
X0068237Y0204915D01*
X0067900Y0204101D01*
X0067606Y0204811D02*
X0068194Y0204811D01*
X0069731Y0206409D02*
X0066069Y0206409D01*
X0061082Y0207000D02*
X0059784Y0206463D01*
X0058237Y0204915D01*
X0057900Y0204101D01*
X0057563Y0204915D01*
X0056015Y0206463D01*
X0054718Y0207000D01*
X0061082Y0207000D01*
X0059731Y0206409D02*
X0056069Y0206409D01*
X0057606Y0204811D02*
X0058194Y0204811D01*
X0074718Y0207000D02*
X0081082Y0207000D01*
X0079784Y0206463D01*
X0078237Y0204915D01*
X0077900Y0204101D01*
X0077563Y0204915D01*
X0076015Y0206463D01*
X0074718Y0207000D01*
X0076069Y0206409D02*
X0079731Y0206409D01*
X0078194Y0204811D02*
X0077606Y0204811D01*
X0084718Y0207000D02*
X0091082Y0207000D01*
X0089784Y0206463D01*
X0088237Y0204915D01*
X0087900Y0204101D01*
X0087563Y0204915D01*
X0086015Y0206463D01*
X0084718Y0207000D01*
X0086069Y0206409D02*
X0089731Y0206409D01*
X0088194Y0204811D02*
X0087606Y0204811D01*
X0174718Y0252000D02*
X0226082Y0252000D01*
X0224784Y0251463D01*
X0223237Y0249915D01*
X0222900Y0249100D01*
X0177900Y0249100D01*
X0177563Y0249915D01*
X0176015Y0251463D01*
X0174718Y0252000D01*
X0176310Y0251168D02*
X0224490Y0251168D01*
X0223094Y0249569D02*
X0177706Y0249569D01*
X0177900Y0244500D02*
X0222900Y0244500D01*
X0223237Y0243684D01*
X0224784Y0242137D01*
X0225599Y0241800D01*
X0224784Y0241463D01*
X0223237Y0239915D01*
X0222900Y0239100D01*
X0214447Y0239100D01*
X0213100Y0237753D01*
X0213100Y0237753D01*
X0207609Y0232261D01*
X0203611Y0232261D01*
X0202557Y0231207D01*
X0202557Y0223417D01*
X0203611Y0222362D01*
X0212189Y0222362D01*
X0213243Y0223417D01*
X0213243Y0231207D01*
X0213151Y0231299D01*
X0216353Y0234500D01*
X0222900Y0234500D01*
X0223237Y0233684D01*
X0224784Y0232137D01*
X0225599Y0231800D01*
X0224784Y0231463D01*
X0223237Y0229915D01*
X0222400Y0227894D01*
X0222400Y0225706D01*
X0223237Y0223684D01*
X0224622Y0222300D01*
X0223454Y0222300D01*
X0222400Y0221246D01*
X0222400Y0219100D01*
X0213243Y0219100D01*
X0213243Y0220183D01*
X0212189Y0221238D01*
X0203611Y0221238D01*
X0202557Y0220183D01*
X0202557Y0219100D01*
X0178400Y0219100D01*
X0178400Y0221246D01*
X0177346Y0222300D01*
X0176178Y0222300D01*
X0177563Y0223684D01*
X0178400Y0225706D01*
X0178400Y0227894D01*
X0177563Y0229915D01*
X0176015Y0231463D01*
X0175201Y0231800D01*
X0176015Y0232137D01*
X0177563Y0233684D01*
X0178400Y0235706D01*
X0178400Y0237894D01*
X0177563Y0239915D01*
X0176015Y0241463D01*
X0175201Y0241800D01*
X0176015Y0242137D01*
X0177563Y0243684D01*
X0177900Y0244500D01*
X0177053Y0243175D02*
X0223747Y0243175D01*
X0225060Y0241577D02*
X0175740Y0241577D01*
X0177500Y0239978D02*
X0223300Y0239978D01*
X0223338Y0233584D02*
X0215437Y0233584D01*
X0213838Y0231986D02*
X0225151Y0231986D01*
X0223709Y0230387D02*
X0213243Y0230387D01*
X0213243Y0228789D02*
X0222771Y0228789D01*
X0222400Y0227190D02*
X0213243Y0227190D01*
X0213243Y0225592D02*
X0222447Y0225592D01*
X0223110Y0223993D02*
X0213243Y0223993D01*
X0212221Y0222395D02*
X0224527Y0222395D01*
X0222400Y0220796D02*
X0212631Y0220796D01*
X0213243Y0219198D02*
X0222400Y0219198D01*
X0222400Y0214402D02*
X0213243Y0214402D01*
X0213243Y0212803D02*
X0222400Y0212803D01*
X0219731Y0206409D02*
X0214043Y0206409D01*
X0215642Y0204811D02*
X0218194Y0204811D01*
X0217532Y0203212D02*
X0217240Y0203212D01*
X0212445Y0208008D02*
X0242300Y0208008D01*
X0242300Y0209606D02*
X0210846Y0209606D01*
X0209248Y0211205D02*
X0242300Y0211205D01*
X0242300Y0212803D02*
X0233400Y0212803D01*
X0233400Y0214402D02*
X0242300Y0214402D01*
X0242300Y0216001D02*
X0233400Y0216001D01*
X0233400Y0217599D02*
X0242300Y0217599D01*
X0242300Y0219198D02*
X0233400Y0219198D01*
X0233400Y0220796D02*
X0242300Y0220796D01*
X0242300Y0222395D02*
X0231273Y0222395D01*
X0232690Y0223993D02*
X0242300Y0223993D01*
X0242300Y0225592D02*
X0237444Y0225592D01*
X0237700Y0227190D02*
X0242300Y0227190D01*
X0242300Y0228789D02*
X0237700Y0228789D01*
X0237700Y0230387D02*
X0242300Y0230387D01*
X0242300Y0231986D02*
X0237700Y0231986D01*
X0237700Y0233584D02*
X0242300Y0233584D01*
X0242300Y0235183D02*
X0237700Y0235183D01*
X0237700Y0236781D02*
X0242300Y0236781D01*
X0242300Y0238380D02*
X0237700Y0238380D01*
X0237700Y0239978D02*
X0242300Y0239978D01*
X0242300Y0241577D02*
X0237700Y0241577D01*
X0237700Y0243175D02*
X0242300Y0243175D01*
X0242300Y0244774D02*
X0237700Y0244774D01*
X0237700Y0246372D02*
X0242300Y0246372D01*
X0242300Y0247971D02*
X0237482Y0247971D01*
X0235883Y0249569D02*
X0242300Y0249569D01*
X0242300Y0251168D02*
X0234285Y0251168D01*
X0232686Y0252766D02*
X0242300Y0252766D01*
X0242300Y0254365D02*
X0231088Y0254365D01*
X0229489Y0255963D02*
X0242300Y0255963D01*
X0233100Y0244982D02*
X0233100Y0238618D01*
X0232563Y0239915D01*
X0231015Y0241463D01*
X0230201Y0241800D01*
X0231015Y0242137D01*
X0232563Y0243684D01*
X0233100Y0244982D01*
X0233100Y0244774D02*
X0233014Y0244774D01*
X0233100Y0243175D02*
X0232053Y0243175D01*
X0233100Y0241577D02*
X0230740Y0241577D01*
X0232500Y0239978D02*
X0233100Y0239978D01*
X0233100Y0234982D02*
X0233100Y0229100D01*
X0232900Y0229100D01*
X0232563Y0229915D01*
X0231015Y0231463D01*
X0230201Y0231800D01*
X0231015Y0232137D01*
X0232563Y0233684D01*
X0233100Y0234982D01*
X0233100Y0233584D02*
X0232462Y0233584D01*
X0233100Y0231986D02*
X0230649Y0231986D01*
X0232091Y0230387D02*
X0233100Y0230387D01*
X0213727Y0238380D02*
X0178199Y0238380D01*
X0178400Y0236781D02*
X0212128Y0236781D01*
X0210530Y0235183D02*
X0178183Y0235183D01*
X0177462Y0233584D02*
X0208931Y0233584D01*
X0203335Y0231986D02*
X0175649Y0231986D01*
X0177091Y0230387D02*
X0202557Y0230387D01*
X0202557Y0228789D02*
X0178029Y0228789D01*
X0178400Y0227190D02*
X0202557Y0227190D01*
X0202557Y0225592D02*
X0178353Y0225592D01*
X0177690Y0223993D02*
X0202557Y0223993D01*
X0203579Y0222395D02*
X0176273Y0222395D01*
X0178400Y0220796D02*
X0203169Y0220796D01*
X0202557Y0219198D02*
X0178400Y0219198D01*
X0178400Y0214500D02*
X0202557Y0214500D01*
X0202557Y0212393D01*
X0203350Y0211600D01*
X0177646Y0211600D01*
X0178400Y0212354D01*
X0178400Y0214500D01*
X0178400Y0214402D02*
X0202557Y0214402D01*
X0202557Y0212803D02*
X0178400Y0212803D01*
X0168133Y0068937D02*
X0160790Y0068937D01*
X0159192Y0067339D02*
X0169583Y0067339D01*
X0169062Y0065740D02*
X0158243Y0065740D01*
X0158243Y0064142D02*
X0167917Y0064142D01*
X0167400Y0062543D02*
X0158243Y0062543D01*
X0158243Y0060945D02*
X0167400Y0060945D01*
X0167963Y0059346D02*
X0158243Y0059346D01*
X0157575Y0057748D02*
X0169174Y0057748D01*
X0167400Y0056149D02*
X0157277Y0056149D01*
X0158243Y0054551D02*
X0167400Y0054551D01*
X0167400Y0048157D02*
X0158243Y0048157D01*
X0157409Y0046558D02*
X0168196Y0046558D01*
X0169508Y0016187D02*
X0166292Y0016187D01*
X0167698Y0014588D02*
X0168102Y0014588D01*
X0167900Y0009499D02*
X0168237Y0008684D01*
X0169522Y0007400D01*
X0166278Y0007400D01*
X0167563Y0008684D01*
X0167900Y0009499D01*
X0167072Y0008194D02*
X0168728Y0008194D01*
X0176278Y0007400D02*
X0177563Y0008684D01*
X0177900Y0009499D01*
X0178237Y0008684D01*
X0179522Y0007400D01*
X0176278Y0007400D01*
X0177072Y0008194D02*
X0178728Y0008194D01*
X0159522Y0007400D02*
X0156278Y0007400D01*
X0157563Y0008684D01*
X0157900Y0009499D01*
X0158237Y0008684D01*
X0159522Y0007400D01*
X0158728Y0008194D02*
X0157072Y0008194D01*
X0157698Y0014588D02*
X0158102Y0014588D01*
X0159508Y0016187D02*
X0156292Y0016187D01*
X0149508Y0016187D02*
X0146292Y0016187D01*
X0147698Y0014588D02*
X0148102Y0014588D01*
X0147900Y0009499D02*
X0148237Y0008684D01*
X0149522Y0007400D01*
X0146278Y0007400D01*
X0147563Y0008684D01*
X0147900Y0009499D01*
X0147072Y0008194D02*
X0148728Y0008194D01*
X0231738Y0065740D02*
X0233100Y0065740D01*
X0233100Y0064142D02*
X0232883Y0064142D01*
M02*
